<svg id="svg" version="1.1" xmlns="http://www.w3.org/2000/svg" xmlns:xlink="http://www.w3.org/1999/xlink" width="400" height="400" viewBox="0, 0, 400,400"><g id="svgg"><path id="path0" d="M251.200 27.382 C 178.710 42.186,118.365 54.514,117.100 54.778 L 114.800 55.257 114.800 172.878 L 114.800 290.500 113.500 290.228 C 54.244 277.848,-5.164 333.262,22.441 375.165 C 50.473 417.715,138.386 401.561,155.383 350.736 C 158.163 342.422,157.995 350.197,157.998 229.989 L 158.000 121.377 248.900 102.855 C 298.895 92.668,340.205 84.239,340.700 84.123 L 341.600 83.913 341.600 164.157 C 341.600 208.290,341.465 244.399,341.300 244.399 C 341.135 244.398,339.380 244.088,337.400 243.710 C 326.981 241.722,307.957 243.138,296.200 246.778 C 247.631 261.812,226.354 307.937,254.943 336.218 C 289.745 370.644,366.791 351.266,382.206 304.210 C 384.471 297.296,384.369 303.906,384.535 152.699 C 384.700 3.223,384.683 0.380,383.644 0.433 C 383.290 0.450,323.690 12.578,251.200 27.382 " stroke="none" fill="#fff" fill-rule="evenodd"></path></g></svg>