<svg id="Layer_1" data-name="Layer 1" xmlns="http://www.w3.org/2000/svg" viewBox="0 0 3474.67 469.33"><defs><style>.cls-1{fill:none;stroke:#fff;stroke-linecap:round;stroke-linejoin:round;stroke-width:13.95px;}</style></defs><circle class="cls-1" cx="1306.3" cy="234.72" r="93.31" transform="translate(216.64 992.44) rotate(-45)"/><path class="cls-1" d="M1331.26,247a50.46,50.46,0,0,0,67.52-23.09"/><path class="cls-1" d="M1312.29,261.86a50.47,50.47,0,0,0,60.15,38.4"/><path class="cls-1" d="M1288.82,256.32a50.47,50.47,0,0,0,7.48,71"/><path class="cls-1" d="M1278.51,234.52a50.46,50.46,0,0,0-50.82,50.1"/><path class="cls-1" d="M1289.13,212.86a50.46,50.46,0,0,0-70.85-8.49"/><path class="cls-1" d="M1331.43,222.84a50.46,50.46,0,0,0,24-67.19"/><path class="cls-1" d="M1312.68,207.67a50.46,50.46,0,0,0-37.53-60.7"/><circle class="cls-1" cx="1306.3" cy="234.72" r="27.79" transform="translate(81.34 745.59) rotate(-32.82)"/><circle class="cls-1" cx="1092.64" cy="234.72" r="93.31" transform="translate(154.06 841.36) rotate(-45)"/><path class="cls-1" d="M1119.89,229.25a50.47,50.47,0,0,0,39.54-59.41"/><path class="cls-1" d="M1113.91,252.61a50.46,50.46,0,0,0,71.1-6.13"/><path class="cls-1" d="M1091.91,262.5A50.46,50.46,0,0,0,1141,314.27"/><path class="cls-1" d="M1070.47,251.47a50.46,50.46,0,0,0-9.85,70.68"/><path class="cls-1" d="M1065.72,227.82a50.47,50.47,0,0,0-61.4,36.37"/><path class="cls-1" d="M1105.35,210a50.45,50.45,0,0,0-21.79-67.95"/><path class="cls-1" d="M1081.24,209.37A50.45,50.45,0,0,0,1014.53,184"/><circle class="cls-1" cx="1092.64" cy="234.72" r="27.79" transform="translate(673.34 1270.65) rotate(-80.09)"/><circle class="cls-1" cx="878.98" cy="234.72" r="93.31" transform="translate(91.48 690.28) rotate(-45)"/><path class="cls-1" d="M900.71,217.39a50.46,50.46,0,0,0,8-70.92"/><path class="cls-1" d="M906.08,240.9a50.46,50.46,0,0,0,60.42-38"/><path class="cls-1" d="M891,259.76a50.46,50.46,0,0,0,67.36,23.57"/><path class="cls-1" d="M866.92,259.76a50.47,50.47,0,0,0,23.57,67.36"/><path class="cls-1" d="M851.88,240.9a50.45,50.45,0,0,0-38,60.43"/><path class="cls-1" d="M879,206.92a50.46,50.46,0,0,0-50.46-50.46"/><path class="cls-1" d="M857.25,217.39a50.45,50.45,0,0,0-70.91,8"/><circle class="cls-1" cx="878.98" cy="234.72" r="27.79" transform="translate(-30.36 263.1) rotate(-16.74)"/><polyline class="cls-1" points="703.91 87.29 730.35 87.29 730.35 370.17"/><rect class="cls-1" x="705.49" y="121.34" width="24.86" height="40.46"/><rect class="cls-1" x="704.7" y="186.66" width="24.86" height="123.32"/><polyline class="cls-1" points="817.72 351.99 817.72 374.67 791.06 374.67 791.06 351.99"/><polyline class="cls-1" points="1119.92 351.99 1119.92 374.67 1093.27 374.67 1093.27 351.99"/><polyline class="cls-1" points="1068.15 351.99 1068.15 374.67 842.07 374.67 842.07 351.99"/><line class="cls-1" x1="753.03" y1="134.03" x2="730.35" y2="134.03"/><line class="cls-1" x1="753.03" y1="332.16" x2="733.59" y2="332.16"/><rect class="cls-1" x="755.55" y="117.44" width="672.93" height="234.55"/><path class="cls-1" d="M1851.55,151.76a76.59,76.59,0,1,0,76.6,76.59A76.59,76.59,0,0,0,1851.55,151.76Zm65.19,116.49a41.41,41.41,0,0,1-44-5.05,40.4,40.4,0,0,1-17.61,5.79,41.4,41.4,0,0,0,37.19,24,41.4,41.4,0,0,1-37.19-24c-1.2.11-2.4.17-3.63.17a40.85,40.85,0,0,1-14-2.46A41.43,41.43,0,0,0,1861,304.2a41.43,41.43,0,0,1-23.45-37.5A40.78,40.78,0,0,1,1822,256.52a41.41,41.41,0,0,0,4.43,44,41.41,41.41,0,0,1-4.43-44,40.82,40.82,0,0,1-9.19-15.22,41.4,41.4,0,0,0-14.7,41.73,41.4,41.4,0,0,1,14.7-41.73,40.78,40.78,0,0,1-2.11-13,41.67,41.67,0,0,1,.38-5.51,41.42,41.42,0,0,0-31.65,30.92,41.42,41.42,0,0,1,31.65-30.92,40.42,40.42,0,0,1,6.18-16.67,41.41,41.41,0,0,0-41.79,14.51,41.41,41.41,0,0,1,41.79-14.51,41,41,0,0,1,13.35-12.87,41.43,41.43,0,0,0-43.91-5.47,41.43,41.43,0,0,1,43.91,5.47,40.37,40.37,0,0,1,16.89-5.56,41.42,41.42,0,0,0-37.41-23.63,41.42,41.42,0,0,1,37.41,23.63c1.32-.13,2.66-.2,4-.2a40.53,40.53,0,0,1,14.37,2.61,41.42,41.42,0,0,0-23.1-37.73,41.42,41.42,0,0,1,23.1,37.73,40.75,40.75,0,0,1,14.88,9.75,41.45,41.45,0,0,0-4.85-44,41.45,41.45,0,0,1,4.85,44,40.8,40.8,0,0,1,9.58,15.86,41.43,41.43,0,0,0,15.1-41.58,41.43,41.43,0,0,1-15.1,41.58,41,41,0,0,1,2,12.59,39.46,39.46,0,0,1-.34,5.13,41.44,41.44,0,0,0,31.37-31.22A41.44,41.44,0,0,1,1892,233.48a40.52,40.52,0,0,1-6.43,17.38,41.44,41.44,0,0,0,41.93-14.13,41.44,41.44,0,0,1-41.93,14.13,40.9,40.9,0,0,1-12.81,12.34A41.41,41.41,0,0,0,1916.74,268.25Z"/><polyline class="cls-1" points="1440.05 87.23 1472.4 87.23 1472.4 372.78"/><rect class="cls-1" x="1448.74" y="146.62" width="23.67" height="33.87"/><rect class="cls-1" x="1448.18" y="207.42" width="23.67" height="80.96"/><polyline class="cls-1" points="1556.22 353.18 1556.22 374.52 1518.09 374.52 1518.09 353.18"/><polyline class="cls-1" points="1743.43 353.18 1743.43 374.52 1583.52 374.52 1583.52 353.18"/><polyline class="cls-1" points="1477.41 107.63 2021.29 107.63 2036.62 122.96 2036.62 335.74 2021.29 351.06 1477.41 351.06"/><polyline class="cls-1" points="1477.41 131.22 1981.71 131.22 2012.94 162.45 2012.94 296.25 1981.71 327.48 1477.41 327.48"/><line class="cls-1" x1="1981.71" y1="131.22" x2="2021.29" y2="107.63"/><line class="cls-1" x1="2012.94" y1="162.45" x2="2036.62" y2="122.96"/><line class="cls-1" x1="2012.94" y1="296.25" x2="2036.62" y2="335.74"/><line class="cls-1" x1="1981.71" y1="327.48" x2="2021.29" y2="351.07"/><line class="cls-1" x1="2009.67" y1="228.35" x2="1949.01" y2="228.35"/><line class="cls-1" x1="1755.22" y1="228.35" x2="1472.4" y2="228.35"/><path class="cls-1" d="M1475.67,253.53H1696.4a74,74,0,0,1,73.95,74h0"/><line class="cls-1" x1="1575" y1="228.35" x2="1646.98" y2="107.63"/><line class="cls-1" x1="1539.02" y1="228.35" x2="1610.99" y2="107.63"/><line class="cls-1" x1="1536.95" y1="297.25" x2="1615.54" y2="297.25"/><circle class="cls-1" cx="2641.69" cy="233.65" r="79.8"/><path class="cls-1" d="M2660.27,218.83a43.16,43.16,0,0,0,6.84-60.65"/><path class="cls-1" d="M2664.86,238.94a43.16,43.16,0,0,0,51.68-32.47"/><path class="cls-1" d="M2652,255.06a43.15,43.15,0,0,0,57.61,20.16"/><path class="cls-1" d="M2631.37,255.06a43.16,43.16,0,0,0,20.16,57.61"/><path class="cls-1" d="M2618.51,238.94A43.16,43.16,0,0,0,2586,290.61"/><path class="cls-1" d="M2641.69,209.88a43.16,43.16,0,0,0-43.16-43.16"/><path class="cls-1" d="M2623.1,218.83a43.15,43.15,0,0,0-60.64,6.83"/><circle class="cls-1" cx="2641.69" cy="233.65" r="23.77" transform="translate(-6.8 370.19) rotate(-8.01)"/><circle class="cls-1" cx="2447.87" cy="233.65" r="79.8" transform="translate(551.75 1799.34) rotate(-45)"/><path class="cls-1" d="M2458.62,212.45a43.16,43.16,0,0,0-19-58"/><path class="cls-1" d="M2471.15,228.83a43.16,43.16,0,0,0,33.52-51"/><path class="cls-1" d="M2466.15,248.84a43.16,43.16,0,0,0,60.78-5.6"/><path class="cls-1" d="M2447.39,257.41a43.17,43.17,0,0,0,42.27,44"/><path class="cls-1" d="M2429,248.09a43.15,43.15,0,0,0-8.06,60.49"/><path class="cls-1" d="M2438,212a43.16,43.16,0,0,0-57.19-21.33"/><path class="cls-1" d="M2424.81,227.89a43.15,43.15,0,0,0-52.32,31.41"/><path class="cls-1" d="M2426.25,243.52A23.77,23.77,0,1,0,2438,212,23.77,23.77,0,0,0,2426.25,243.52Z"/><circle class="cls-1" cx="2254.06" cy="233.65" r="79.8"/><path class="cls-1" d="M2272.65,218.83a43.16,43.16,0,0,0,6.83-60.65"/><path class="cls-1" d="M2277.24,238.94a43.16,43.16,0,0,0,51.67-32.47"/><path class="cls-1" d="M2264.37,255.06A43.16,43.16,0,0,0,2322,275.22"/><path class="cls-1" d="M2243.75,255.06a43.15,43.15,0,0,0,20.16,57.61"/><path class="cls-1" d="M2230.89,238.94a43.14,43.14,0,0,0-32.47,51.67"/><path class="cls-1" d="M2254.06,209.88a43.15,43.15,0,0,0-43.15-43.16"/><path class="cls-1" d="M2235.48,218.83a43.16,43.16,0,0,0-60.65,6.83"/><circle class="cls-1" cx="2254.06" cy="233.65" r="23.77" transform="translate(7.29 529.32) rotate(-13.42)"/><polyline class="cls-1" points="2057.24 86.59 2079.86 86.59 2079.86 373.78"/><rect class="cls-1" x="2058.59" y="121.17" width="21.26" height="41.07"/><rect class="cls-1" x="2057.92" y="187.48" width="21.26" height="125.19"/><polyline class="cls-1" points="2154.57 354.39 2154.57 373.78 2131.78 373.78 2131.78 354.39"/><polyline class="cls-1" points="2413.03 354.39 2413.03 373.78 2390.23 373.78 2390.23 354.39"/><polyline class="cls-1" points="2368.75 354.39 2368.75 373.78 2175.4 373.78 2175.4 354.39"/><line class="cls-1" x1="2099.25" y1="139.23" x2="2079.86" y2="139.23"/><line class="cls-1" x1="2099.25" y1="353" x2="2082.63" y2="353"/><path class="cls-1" d="M2101.4,114.3h618.15a40.81,40.81,0,0,1,40.81,40.81V312.2A40.81,40.81,0,0,1,2719.55,353H2101.4a0,0,0,0,1,0,0V114.3A0,0,0,0,1,2101.4,114.3Z"/><path class="cls-1" d="M2184.55,194.43h-7.35A39.21,39.21,0,0,0,2138,233.65h0a39.21,39.21,0,0,0,39.21,39.22h6.17"/><line class="cls-1" x1="2323.55" y1="194.43" x2="2378.38" y2="194.43"/><line class="cls-1" x1="2517.36" y1="194.43" x2="2572.2" y2="194.43"/><line class="cls-1" x1="2323.57" y1="272.87" x2="2378.38" y2="272.87"/><line class="cls-1" x1="2517.38" y1="272.87" x2="2572.18" y2="272.87"/><path class="cls-1" d="M3188.76,150.44a77.1,77.1,0,1,0,77.09,77.09A77.1,77.1,0,0,0,3188.76,150.44Zm65.62,117.26a41.68,41.68,0,0,1-44.24-5.08,40.94,40.94,0,0,1-17.73,5.83,41.69,41.69,0,0,0,37.43,24.14,41.69,41.69,0,0,1-37.43-24.14c-1.21.1-2.42.17-3.65.17a40.87,40.87,0,0,1-14.1-2.49,41.68,41.68,0,0,0,23.61,37.75,41.68,41.68,0,0,1-23.61-37.75,41,41,0,0,1-15.61-10.24,41.69,41.69,0,0,0,4.46,44.32,41.69,41.69,0,0,1-4.46-44.32,40.88,40.88,0,0,1-9.25-15.32,41.68,41.68,0,0,0-14.8,42,41.68,41.68,0,0,1,14.8-42,41.06,41.06,0,0,1-2.13-13,40.48,40.48,0,0,1,.39-5.54,41.7,41.7,0,0,0-31.87,31.12A41.7,41.7,0,0,1,3148.06,222a40.77,40.77,0,0,1,6.22-16.79,41.71,41.71,0,0,0-42.07,14.62,41.71,41.71,0,0,1,42.07-14.62,41.35,41.35,0,0,1,13.43-12.95,41.69,41.69,0,0,0-44.19-5.5,41.69,41.69,0,0,1,44.19,5.5,40.89,40.89,0,0,1,17-5.6,41.71,41.71,0,0,0-37.66-23.77,41.71,41.71,0,0,1,37.66,23.77c1.33-.13,2.67-.2,4-.2a41,41,0,0,1,14.46,2.63,41.71,41.71,0,0,0-23.25-38,41.71,41.71,0,0,1,23.25,38,41.26,41.26,0,0,1,15,9.82,41.72,41.72,0,0,0-4.89-44.28,41.72,41.72,0,0,1,4.89,44.28,41.08,41.08,0,0,1,9.64,16A41.69,41.69,0,0,0,3243,173a41.69,41.69,0,0,1-15.19,41.86,41.07,41.07,0,0,1,2,12.66,40.2,40.2,0,0,1-.34,5.17,41.71,41.71,0,0,0,31.57-31.43,41.71,41.71,0,0,1-31.57,31.43,40.73,40.73,0,0,1-6.48,17.49A41.7,41.7,0,0,0,3265.23,236,41.7,41.7,0,0,1,3223,250.19a41.31,41.31,0,0,1-12.88,12.43A41.68,41.68,0,0,0,3254.38,267.7Z"/><line class="cls-1" x1="2885.52" y1="276.05" x2="3058.04" y2="276.05"/><line class="cls-1" x1="3058.04" y1="179.02" x2="2885.52" y2="179.02"/><line class="cls-1" x1="2841.46" y1="156.57" x2="2841.46" y2="300.51"/><path class="cls-1" d="M3087,227.53a101.28,101.28,0,0,1,13.55-50.71l-25.12-25.12a136.37,136.37,0,0,0,0,151.67l25.12-25.12A101.29,101.29,0,0,1,3087,227.53Z"/><path class="cls-1" d="M3290.55,227.53A101.29,101.29,0,0,1,3277,278.25l25.12,25.13a136.41,136.41,0,0,0,0-151.69L3277,176.82A101.28,101.28,0,0,1,3290.55,227.53Z"/><path class="cls-1" d="M3126.77,106a135.83,135.83,0,0,0-13.85,8.15L3138,139.29a101.68,101.68,0,0,1,101.43,0l25.13-25.12a136.36,136.36,0,0,0-13.88-8.16"/><path class="cls-1" d="M3246.63,351.06a136.56,136.56,0,0,0,18-10.16l-25.13-25.12a101.68,101.68,0,0,1-101.43,0l-25.12,25.12a136.27,136.27,0,0,0,17,9.73"/><path class="cls-1" d="M3100.51,278.25l-25.12,25.12a137.08,137.08,0,0,0,37.53,37.53L3138,315.78A102.35,102.35,0,0,1,3100.51,278.25Z"/><path class="cls-1" d="M3138,139.29l-25.12-25.12a137.08,137.08,0,0,0-37.53,37.53l25.12,25.12A102.35,102.35,0,0,1,3138,139.29Z"/><path class="cls-1" d="M3277,176.82l25.12-25.13a137.28,137.28,0,0,0-37.52-37.52l-25.13,25.12A102.35,102.35,0,0,1,3277,176.82Z"/><path class="cls-1" d="M3302.12,303.38,3277,278.25a102.35,102.35,0,0,1-37.53,37.53l25.13,25.12A137.28,137.28,0,0,0,3302.12,303.38Z"/><path class="cls-1" d="M2903.25,106a311,311,0,0,0,.88,245"/><polyline class="cls-1" points="2774.54 85.48 2807.11 85.48 2807.11 372.92"/><rect class="cls-1" x="2783.28" y="145.26" width="23.82" height="34.09"/><rect class="cls-1" x="2782.72" y="206.47" width="23.82" height="81.49"/><polyline class="cls-1" points="2891.47 353.19 2891.47 374.67 2853.09 374.67 2853.09 353.19"/><polyline class="cls-1" points="3079.93 353.19 3079.93 374.67 2918.95 374.67 2918.95 353.19"/><polyline class="cls-1" points="2812.14 106.02 3359.61 106.02 3375.04 121.45 3375.04 335.63 3359.61 351.06 2812.14 351.06"/><line class="cls-1" x1="3093.27" y1="327.31" x2="2809.46" y2="327.31"/><polyline class="cls-1" points="3283.83 129.76 3319.77 129.76 3351.2 161.2 3351.2 295.88 3319.77 327.31 3281.7 327.31"/><line class="cls-1" x1="2809.46" y1="129.77" x2="3090.59" y2="129.77"/><line class="cls-1" x1="3319.77" y1="129.77" x2="3359.61" y2="106.02"/><line class="cls-1" x1="3351.2" y1="161.2" x2="3375.04" y2="121.45"/><line class="cls-1" x1="3351.2" y1="295.88" x2="3375.04" y2="335.63"/><line class="cls-1" x1="3319.77" y1="327.31" x2="3359.61" y2="351.06"/><path class="cls-1" d="M498.81,151.4a77,77,0,1,0,77,77A77,77,0,0,0,498.81,151.4Zm65.57,117.18a41.66,41.66,0,0,1-44.2-5.08,40.89,40.89,0,0,1-17.72,5.82,41.66,41.66,0,0,0,37.4,24.12,41.66,41.66,0,0,1-37.4-24.12c-1.2.11-2.42.17-3.65.17A41.13,41.13,0,0,1,484.72,267a41.67,41.67,0,0,0,23.6,37.72A41.67,41.67,0,0,1,484.72,267a41,41,0,0,1-15.59-10.23,41.65,41.65,0,0,0,4.46,44.28,41.65,41.65,0,0,1-4.46-44.28,41.18,41.18,0,0,1-9.25-15.31,41.68,41.68,0,0,0-14.79,42,41.68,41.68,0,0,1,14.79-42,41,41,0,0,1-2.12-13,42.13,42.13,0,0,1,.38-5.54A41.65,41.65,0,0,0,426.31,254a41.65,41.65,0,0,1,31.83-31.1,40.91,40.91,0,0,1,6.22-16.77,41.65,41.65,0,0,0-42,14.6,41.65,41.65,0,0,1,42-14.6,41.41,41.41,0,0,1,13.42-12.95,41.67,41.67,0,0,0-44.16-5.49,41.67,41.67,0,0,1,44.16,5.49,40.84,40.84,0,0,1,17-5.59,41.67,41.67,0,0,0-37.63-23.76,41.67,41.67,0,0,1,37.63,23.76c1.32-.13,2.67-.2,4-.2A40.94,40.94,0,0,1,513.26,190,41.66,41.66,0,0,0,490,152.06,41.66,41.66,0,0,1,513.26,190a41.16,41.16,0,0,1,15,9.81,41.68,41.68,0,0,0-4.88-44.24,41.68,41.68,0,0,1,4.88,44.24,41.11,41.11,0,0,1,9.64,16A41.68,41.68,0,0,0,553.05,174a41.68,41.68,0,0,1-15.18,41.83,41.06,41.06,0,0,1,2,12.66,41.8,41.8,0,0,1-.33,5.16,41.65,41.65,0,0,0,31.54-31.4,41.65,41.65,0,0,1-31.54,31.4,40.69,40.69,0,0,1-6.48,17.48,41.67,41.67,0,0,0,42.18-14.21,41.67,41.67,0,0,1-42.18,14.21,41.25,41.25,0,0,1-12.87,12.42A41.66,41.66,0,0,0,564.38,268.58Z"/><line class="cls-1" x1="195.81" y1="276.92" x2="368.2" y2="276.92"/><line class="cls-1" x1="368.2" y1="179.96" x2="195.81" y2="179.96"/><line class="cls-1" x1="151.78" y1="157.53" x2="151.78" y2="301.36"/><path class="cls-1" d="M397.1,228.44a101.19,101.19,0,0,1,13.54-50.68l-25.11-25.1a136.29,136.29,0,0,0,0,151.56l25.11-25.1A101.16,101.16,0,0,1,397.1,228.44Z"/><path class="cls-1" d="M600.53,228.44A101.16,101.16,0,0,1,587,279.12l25.1,25.1a136.29,136.29,0,0,0,0-151.56L587,177.76A101.16,101.16,0,0,1,600.53,228.44Z"/><path class="cls-1" d="M436.88,107A133.93,133.93,0,0,0,423,115.16l25.1,25.1a101.68,101.68,0,0,1,101.36,0l25.11-25.1A137.22,137.22,0,0,0,560.73,107"/><path class="cls-1" d="M556.64,351.88a136.45,136.45,0,0,0,18-10.16l-25.11-25.1a101.62,101.62,0,0,1-101.36,0L423,341.72a135.55,135.55,0,0,0,17,9.72"/><path class="cls-1" d="M410.64,279.12l-25.11,25.1a137,137,0,0,0,37.5,37.5l25.1-25.1A102.16,102.16,0,0,1,410.64,279.12Z"/><path class="cls-1" d="M448.13,140.26,423,115.16a137,137,0,0,0-37.5,37.5l25.11,25.1A102.16,102.16,0,0,1,448.13,140.26Z"/><path class="cls-1" d="M587,177.76l25.1-25.1a137,137,0,0,0-37.49-37.5l-25.11,25.1A102.19,102.19,0,0,1,587,177.76Z"/><path class="cls-1" d="M612.09,304.22,587,279.12a102.19,102.19,0,0,1-37.5,37.5l25.11,25.1A137,137,0,0,0,612.09,304.22Z"/><path class="cls-1" d="M213.52,107a310.8,310.8,0,0,0,.88,244.85"/><polyline class="cls-1" points="84.91 86.5 117.45 86.5 117.45 373.72"/><rect class="cls-1" x="93.65" y="146.23" width="23.8" height="34.06"/><rect class="cls-1" x="93.08" y="207.39" width="23.8" height="81.43"/><polyline class="cls-1" points="201.75 354 201.75 375.46 163.4 375.46 163.4 354"/><polyline class="cls-1" points="390.06 354 390.06 375.46 229.21 375.46 229.21 354"/><polyline class="cls-1" points="122.49 107.02 669.54 107.02 684.96 122.43 684.96 336.45 669.54 351.87 122.49 351.87"/><line class="cls-1" x1="403.4" y1="328.14" x2="119.81" y2="328.14"/><polyline class="cls-1" points="593.81 130.74 629.73 130.74 661.14 162.15 661.14 296.74 629.73 328.14 591.69 328.14"/><line class="cls-1" x1="119.81" y1="130.74" x2="400.72" y2="130.74"/><line class="cls-1" x1="629.73" y1="130.74" x2="669.54" y2="107.02"/><line class="cls-1" x1="661.14" y1="162.15" x2="684.96" y2="122.43"/><line class="cls-1" x1="661.14" y1="296.74" x2="684.96" y2="336.45"/><line class="cls-1" x1="629.73" y1="328.14" x2="669.54" y2="351.87"/></svg>