<svg id="svg" version="1.1" xmlns="http://www.w3.org/2000/svg" xmlns:xlink="http://www.w3.org/1999/xlink" width="400" height="408.3333333333333" viewBox="0, 0, 400,408.3333333333333"><g id="svgg"><path id="path0" d="M121.000 138.188 C 107.279 141.759,100.473 157.352,108.831 166.070 C 112.333 169.722,135.289 169.397,142.833 165.588 C 148.286 162.836,147.967 153.674,142.171 146.558 C 136.472 139.562,128.234 136.305,121.000 138.188 M267.796 138.332 C 255.458 142.351,247.023 159.733,254.833 165.044 C 259.429 168.170,279.675 169.792,287.397 167.653 C 289.870 166.969,292.773 162.565,293.350 158.623 C 295.135 146.432,279.949 134.374,267.796 138.332 M198.333 219.912 C 168.607 221.182,145.201 239.967,130.319 274.500 C 129.528 276.333,128.784 277.951,128.663 278.094 C 128.543 278.238,126.665 276.606,124.490 274.469 C 108.274 258.536,91.280 250.058,69.333 246.953 C 62.787 246.027,46.535 246.410,39.000 247.668 C 37.992 247.836,36.604 248.062,35.917 248.169 L 34.667 248.364 34.667 252.305 C 34.667 289.520,88.176 339.965,153.500 364.332 C 187.563 377.039,213.682 377.167,249.691 364.806 C 313.444 342.920,365.333 291.946,365.333 251.202 L 365.333 248.758 361.250 248.214 C 351.378 246.900,338.770 246.667,331.667 247.667 C 308.692 250.903,291.103 259.497,274.629 275.538 C 271.192 278.885,271.551 278.836,270.656 276.083 C 258.692 239.267,231.923 218.476,198.333 219.912 M222.944 246.518 C 228.084 249.089,228.836 250.812,228.826 260.000 C 228.812 272.953,224.560 279.589,212.917 284.826 L 210.000 286.138 210.000 292.403 L 210.000 298.667 211.288 298.667 C 212.545 298.667,212.619 298.735,214.286 301.454 L 215.995 304.242 224.414 304.425 L 232.833 304.609 233.833 303.471 L 234.833 302.333 241.583 302.333 C 247.794 302.333,248.332 302.380,248.323 302.917 C 248.317 303.237,247.589 306.275,246.706 309.667 L 245.101 315.833 243.085 315.932 C 241.520 316.008,241.036 316.157,240.919 316.598 C 240.563 317.944,235.563 330.000,235.361 330.000 C 235.239 330.000,234.564 329.018,233.862 327.818 L 232.586 325.636 232.832 317.439 L 233.078 309.242 232.289 309.434 C 221.542 312.051,196.585 312.413,182.420 310.157 C 180.726 309.887,179.076 309.667,178.753 309.667 C 178.203 309.667,178.173 310.231,178.285 318.324 L 178.406 326.982 177.453 328.491 C 176.929 329.320,176.389 329.999,176.254 329.999 C 175.401 330.001,172.564 323.834,171.347 319.333 C 170.926 317.775,170.523 316.292,170.451 316.038 C 170.350 315.683,169.904 315.625,168.520 315.788 L 166.720 316.000 166.222 313.750 C 165.949 312.512,165.623 310.573,165.499 309.441 C 165.279 307.436,165.220 307.335,163.285 305.652 C 160.058 302.845,160.358 302.525,166.333 302.396 C 173.372 302.244,176.667 302.550,176.667 303.357 C 176.667 304.235,176.960 304.266,187.354 304.491 C 197.877 304.719,196.595 305.093,199.032 301.086 C 200.433 298.782,200.557 298.672,201.750 298.670 L 203.000 298.667 203.000 292.316 L 203.000 285.965 201.917 285.591 C 193.940 282.837,184.750 275.868,181.916 270.426 C 179.209 265.227,179.107 253.236,181.736 249.309 C 184.356 245.395,184.524 245.365,204.039 245.348 L 220.577 245.333 222.944 246.518 M219.266 317.058 L 219.365 318.950 217.181 320.171 L 214.997 321.393 213.369 320.030 C 211.280 318.281,211.498 318.220,208.682 321.339 C 204.611 325.847,203.680 325.845,200.827 321.323 C 198.998 318.425,198.900 318.332,197.637 318.283 C 196.920 318.256,196.164 318.218,195.956 318.200 C 195.749 318.182,195.257 318.842,194.864 319.667 C 194.007 321.465,193.672 321.476,190.083 319.823 L 187.667 318.710 187.667 316.852 L 187.667 314.993 203.417 315.080 L 219.167 315.167 219.266 317.058 " stroke="none" fill="#fbfbfa" fill-rule="evenodd"></path><path id="path1" d="M190.629 18.352 C 190.179 18.472,188.240 18.673,186.322 18.798 C 179.195 19.262,174.386 19.849,168.167 21.015 C 167.250 21.187,164.850 21.636,162.833 22.013 C 153.033 23.848,138.311 28.253,128.737 32.216 C 119.916 35.867,107.866 41.791,108.076 42.373 C 108.126 42.511,110.642 45.151,113.667 48.239 C 118.769 53.448,123.047 57.985,131.530 67.186 C 133.380 69.192,135.383 71.396,135.981 72.083 C 137.355 73.662,136.998 73.695,143.952 71.351 C 180.084 59.169,226.948 59.824,262.575 73.007 L 264.317 73.651 266.102 71.409 C 267.084 70.176,268.752 68.042,269.809 66.667 C 272.948 62.583,281.540 52.515,284.987 48.882 C 291.764 41.738,291.786 41.712,291.361 41.200 C 290.499 40.161,274.593 32.720,268.833 30.660 C 263.709 28.828,257.190 26.667,256.788 26.667 C 256.533 26.667,256.064 26.524,255.745 26.349 C 254.509 25.669,243.334 22.780,238.728 21.949 C 237.686 21.761,236.083 21.466,235.167 21.293 C 234.250 21.119,232.525 20.839,231.333 20.670 C 230.142 20.500,228.267 20.205,227.167 20.014 C 222.413 19.187,214.151 18.612,205.000 18.471 C 199.592 18.388,194.330 18.277,193.308 18.226 C 192.285 18.175,191.080 18.231,190.629 18.352 M354.682 102.750 C 351.866 114.589,346.142 134.802,341.985 147.579 C 340.038 153.565,340.023 153.778,341.375 156.069 C 349.332 169.549,357.294 190.146,360.676 206.000 C 363.615 219.779,364.719 229.041,365.527 246.672 C 366.731 272.950,349.431 301.983,316.667 328.673 C 315.658 329.495,314.783 330.279,314.722 330.417 C 314.661 330.554,314.469 330.667,314.296 330.667 C 314.123 330.667,312.998 331.429,311.798 332.361 C 292.290 347.500,260.818 362.764,235.667 369.285 C 226.931 371.550,222.823 372.324,212.167 373.716 C 207.980 374.262,193.072 374.267,189.833 373.723 C 188.550 373.508,185.925 373.088,184.000 372.791 C 176.877 371.691,172.129 370.579,163.526 367.998 C 142.135 361.580,113.669 347.394,94.506 333.602 C 53.986 304.440,33.458 275.511,34.472 249.000 C 35.665 217.842,43.878 185.826,57.801 158.065 C 60.082 153.515,60.165 154.769,57.042 146.473 C 52.171 133.534,48.324 120.192,45.107 105.084 C 44.199 100.818,43.640 99.748,43.105 101.250 C 42.990 101.571,42.427 102.433,41.853 103.167 C 40.636 104.721,39.676 106.161,39.075 107.333 C 38.406 108.639,37.848 109.547,37.333 110.167 C 36.861 110.736,36.345 111.567,35.677 112.833 C 35.484 113.200,34.590 114.850,33.692 116.500 C 32.030 119.552,27.837 127.943,26.614 130.667 C 26.243 131.492,25.736 132.617,25.487 133.167 C 25.002 134.236,24.584 135.237,22.793 139.617 C 21.588 142.562,17.657 154.132,16.786 157.294 C 15.938 160.373,14.210 167.937,13.319 172.470 C 13.142 173.370,12.858 174.645,12.688 175.303 C 12.518 175.961,12.305 177.250,12.214 178.167 C 11.774 182.619,11.553 184.209,11.310 184.687 C 11.164 184.972,10.944 186.772,10.822 188.687 C 10.700 190.601,10.519 192.299,10.420 192.461 C 10.321 192.622,10.191 194.947,10.130 197.627 C 10.070 200.307,9.847 203.799,9.634 205.387 C 9.395 207.167,9.341 209.405,9.493 211.221 C 9.768 214.513,9.934 217.249,10.157 222.167 C 10.240 224.000,10.382 225.950,10.473 226.500 C 10.629 227.449,11.010 230.869,11.160 232.667 C 11.198 233.125,11.272 233.575,11.324 233.667 C 11.377 233.758,11.459 234.208,11.508 234.667 C 11.952 238.857,13.489 247.587,14.326 250.667 C 14.500 251.308,14.935 253.108,15.294 254.667 C 16.605 260.369,19.552 270.304,20.980 273.833 C 21.129 274.200,21.740 275.850,22.338 277.500 C 22.937 279.150,24.005 281.740,24.713 283.256 C 25.421 284.772,26.000 286.094,26.000 286.194 C 26.000 286.491,31.106 297.414,31.675 298.333 C 31.845 298.608,32.683 300.108,33.538 301.667 C 35.275 304.835,35.373 305.003,38.156 309.569 C 39.989 312.575,41.561 314.924,42.014 315.333 C 42.116 315.425,42.595 316.187,43.080 317.027 C 43.565 317.866,44.198 318.749,44.487 318.989 C 44.776 319.229,45.249 319.923,45.537 320.532 C 45.826 321.140,46.400 321.982,46.813 322.402 C 47.227 322.823,48.135 323.992,48.831 325.000 C 49.528 326.008,50.639 327.445,51.299 328.193 C 51.960 328.941,53.460 330.714,54.632 332.133 C 55.805 333.552,57.156 335.115,57.635 335.607 C 58.113 336.098,59.179 337.325,60.002 338.333 C 61.733 340.451,62.662 341.307,63.250 341.322 C 63.479 341.328,63.667 341.482,63.667 341.663 C 63.667 342.523,74.305 352.585,80.333 357.425 C 82.625 359.265,84.575 360.860,84.667 360.969 C 84.758 361.078,85.072 361.317,85.363 361.500 C 86.113 361.972,88.249 363.506,91.463 365.878 C 92.986 367.002,94.593 368.112,95.033 368.345 C 95.473 368.577,96.838 369.419,98.066 370.217 C 99.293 371.014,100.370 371.667,100.457 371.667 C 100.545 371.667,102.409 372.779,104.600 374.139 C 106.791 375.499,109.165 376.901,109.875 377.255 C 110.586 377.610,112.367 378.510,113.833 379.257 C 119.144 381.960,124.924 384.590,129.333 386.308 C 131.808 387.273,134.133 388.194,134.500 388.356 C 135.571 388.828,143.057 391.353,144.333 391.673 C 144.975 391.834,146.250 392.193,147.167 392.471 C 151.900 393.905,160.008 395.899,164.333 396.693 C 165.342 396.878,166.917 397.176,167.833 397.355 C 168.750 397.534,170.700 397.836,172.167 398.026 C 173.633 398.216,175.958 398.518,177.333 398.696 C 182.965 399.427,187.686 399.704,197.667 399.887 C 211.395 400.140,216.954 399.770,231.417 397.645 C 236.446 396.906,247.666 394.476,252.000 393.187 C 252.825 392.941,254.625 392.414,256.000 392.014 C 258.404 391.316,259.741 390.885,261.167 390.349 C 261.533 390.211,262.583 389.838,263.500 389.520 C 270.429 387.117,271.913 386.591,272.500 386.331 C 272.867 386.169,274.292 385.525,275.667 384.901 C 277.042 384.276,279.142 383.336,280.333 382.812 C 281.525 382.287,284.225 380.968,286.333 379.880 C 288.442 378.792,290.767 377.618,291.500 377.272 C 292.233 376.925,293.208 376.418,293.667 376.145 C 294.125 375.872,296.300 374.578,298.500 373.270 C 300.700 371.962,303.195 370.391,304.045 369.779 C 304.894 369.167,305.705 368.667,305.847 368.667 C 305.988 368.667,306.616 368.276,307.243 367.798 C 307.869 367.320,309.560 366.136,311.000 365.167 C 313.966 363.170,316.010 361.672,316.500 361.135 C 316.824 360.780,320.109 358.180,321.936 356.833 C 322.433 356.467,323.151 355.867,323.532 355.500 C 323.912 355.133,324.957 354.233,325.853 353.500 C 328.237 351.550,330.419 349.462,336.270 343.534 C 342.763 336.954,342.749 336.969,344.965 334.333 C 345.967 333.142,347.140 331.804,347.572 331.360 C 348.003 330.916,350.085 328.291,352.199 325.526 C 354.312 322.762,356.257 320.236,356.520 319.913 C 356.784 319.590,357.000 319.177,357.000 318.996 C 357.000 318.815,357.113 318.664,357.250 318.660 C 357.387 318.657,357.950 317.889,358.500 316.953 C 359.050 316.017,359.762 315.012,360.083 314.718 C 360.404 314.425,360.667 314.063,360.667 313.913 C 360.667 313.763,361.620 312.184,362.786 310.404 C 363.951 308.623,365.264 306.504,365.702 305.694 C 366.141 304.885,366.903 303.535,367.395 302.694 C 367.887 301.854,368.388 300.942,368.509 300.667 C 368.630 300.392,369.100 299.492,369.553 298.667 C 370.305 297.296,373.167 291.421,374.668 288.167 C 375.940 285.407,377.068 282.764,377.869 280.667 C 378.324 279.475,378.911 278.050,379.173 277.500 C 380.511 274.692,383.845 263.949,386.156 255.000 C 386.654 253.075,387.188 251.125,387.344 250.667 C 387.499 250.208,387.792 248.513,387.995 246.900 C 388.197 245.286,388.506 243.589,388.681 243.128 C 388.857 242.667,389.000 241.784,389.000 241.165 C 389.000 240.546,389.150 239.947,389.333 239.833 C 389.517 239.720,389.667 238.982,389.667 238.192 C 389.667 237.403,389.834 235.950,390.038 234.962 C 390.403 233.195,390.460 232.650,390.802 227.667 C 390.896 226.292,391.147 223.592,391.359 221.667 C 391.572 219.742,391.704 217.717,391.654 217.167 C 391.604 216.617,391.604 215.567,391.654 214.833 C 391.736 213.646,391.762 208.524,391.715 202.833 C 391.706 201.733,391.698 200.533,391.698 200.167 C 391.697 199.800,391.455 197.025,391.160 194.000 C 390.864 190.975,390.574 187.750,390.516 186.833 C 390.412 185.176,389.575 179.408,389.163 177.500 C 389.044 176.950,388.912 176.194,388.869 175.819 C 388.826 175.445,388.685 174.966,388.555 174.756 C 388.425 174.545,388.259 173.651,388.186 172.770 C 388.031 170.882,387.082 166.496,385.821 161.833 C 385.325 160.000,384.846 158.011,384.756 157.414 C 384.666 156.816,384.460 156.245,384.297 156.144 C 384.133 156.043,384.000 155.550,384.000 155.047 C 384.000 154.544,383.832 153.965,383.627 153.760 C 383.422 153.555,383.136 152.812,382.991 152.110 C 382.540 149.912,379.392 141.071,378.295 138.921 C 378.133 138.603,378.000 138.184,378.000 137.991 C 378.000 137.797,377.550 136.676,377.000 135.500 C 376.450 134.324,376.000 133.288,376.000 133.199 C 376.000 133.110,375.417 131.792,374.704 130.269 C 372.604 125.782,371.333 122.980,371.333 122.833 C 371.333 122.758,370.861 121.902,370.283 120.931 C 369.705 119.961,368.676 118.117,367.996 116.833 C 366.257 113.552,365.541 112.260,365.236 111.853 C 365.091 111.659,363.616 109.325,361.959 106.667 C 358.863 101.702,356.451 98.333,355.993 98.333 C 355.850 98.333,355.260 100.321,354.682 102.750 " stroke="none" fill="#f10404" fill-rule="evenodd"></path><path id="path2" d="M49.806 7.025 C 48.849 7.303,44.239 11.795,44.570 12.126 C 44.759 12.315,43.002 15.776,42.580 16.046 C 42.397 16.163,42.344 16.413,42.460 16.603 C 42.577 16.792,42.472 17.147,42.226 17.393 C 41.981 17.638,41.842 18.025,41.918 18.253 C 41.994 18.481,41.883 18.667,41.672 18.667 C 41.448 18.667,41.371 18.928,41.487 19.294 C 41.615 19.697,41.496 19.994,41.154 20.126 C 40.806 20.259,40.692 20.553,40.824 20.970 C 40.936 21.322,40.878 21.703,40.695 21.816 C 40.512 21.929,40.447 22.242,40.550 22.511 C 40.653 22.780,40.556 23.000,40.333 23.000 C 40.074 23.000,39.999 23.283,40.124 23.784 C 40.233 24.215,40.221 24.668,40.098 24.791 C 39.826 25.063,39.710 25.838,39.506 28.758 C 39.419 30.000,39.190 31.312,38.996 31.675 C 38.755 32.124,38.753 32.333,38.988 32.333 C 39.178 32.333,39.333 32.558,39.333 32.833 C 39.333 33.108,39.209 33.333,39.057 33.333 C 38.905 33.333,38.767 34.421,38.750 35.750 C 38.734 37.079,38.572 38.992,38.390 40.000 C 38.191 41.103,38.181 41.960,38.363 42.150 C 38.741 42.544,38.769 53.000,38.393 53.000 C 38.242 53.000,38.253 54.012,38.417 55.250 C 38.580 56.487,38.736 58.850,38.762 60.500 C 38.789 62.150,38.965 63.608,39.155 63.741 C 39.391 63.905,39.382 64.169,39.129 64.574 C 38.852 65.017,38.868 65.481,39.194 66.408 C 39.461 67.165,39.507 67.726,39.315 67.845 C 39.119 67.966,39.137 68.300,39.361 68.718 C 39.560 69.091,39.636 69.744,39.529 70.170 C 39.411 70.638,39.499 71.012,39.751 71.114 C 40.066 71.242,40.050 71.364,39.682 71.620 C 39.271 71.905,39.265 72.083,39.643 72.789 C 39.888 73.247,40.000 73.852,39.892 74.134 C 39.784 74.415,39.848 74.740,40.035 74.855 C 40.243 74.983,40.287 75.757,40.148 76.865 C 39.987 78.156,40.035 78.667,40.317 78.667 C 40.554 78.667,40.631 78.922,40.509 79.305 C 40.397 79.657,40.470 80.045,40.669 80.168 C 40.899 80.310,40.951 80.932,40.811 81.863 C 40.661 82.866,40.711 83.333,40.969 83.333 C 41.205 83.333,41.268 83.645,41.137 84.167 C 40.999 84.716,41.067 85.000,41.336 85.000 C 41.580 85.000,41.674 85.268,41.570 85.666 C 41.474 86.033,41.548 86.427,41.734 86.541 C 41.944 86.672,41.901 86.859,41.619 87.042 C 41.240 87.286,41.242 87.382,41.632 87.633 C 41.888 87.798,42.005 88.173,41.892 88.466 C 41.780 88.760,41.831 89.000,42.007 89.000 C 42.182 89.000,42.302 89.337,42.272 89.750 C 42.242 90.162,42.329 90.837,42.465 91.250 C 42.630 91.753,42.578 92.000,42.304 92.000 C 42.044 92.000,42.108 92.233,42.481 92.646 C 42.802 93.001,42.967 93.451,42.846 93.646 C 42.726 93.841,42.743 94.187,42.885 94.416 C 43.026 94.646,43.099 95.246,43.046 95.750 C 42.993 96.254,43.079 96.667,43.237 96.667 C 43.395 96.667,43.542 96.929,43.563 97.250 C 43.681 98.997,44.927 104.858,47.196 114.333 C 49.719 124.871,53.255 136.415,57.042 146.473 C 60.165 154.769,60.082 153.515,57.801 158.065 C 43.713 186.156,35.138 219.948,34.557 249.667 C 34.487 253.242,34.487 254.410,34.558 252.263 L 34.687 248.360 35.927 248.167 C 36.609 248.061,37.992 247.836,39.000 247.668 C 46.535 246.410,62.787 246.027,69.333 246.953 C 91.280 250.058,108.274 258.536,124.490 274.469 C 126.665 276.606,128.543 278.238,128.663 278.094 C 128.784 277.951,129.528 276.333,130.319 274.500 C 148.327 232.713,179.105 213.899,216.707 221.691 C 241.938 226.920,260.888 246.025,270.656 276.083 C 271.551 278.836,271.192 278.885,274.629 275.538 C 291.103 259.497,308.692 250.903,331.667 247.667 C 338.766 246.668,351.378 246.900,361.236 248.212 L 365.306 248.754 365.442 250.960 C 365.516 252.174,365.516 250.542,365.442 247.333 C 364.643 212.959,356.315 181.377,341.375 156.069 C 340.023 153.778,340.038 153.565,341.985 147.579 C 346.923 132.400,355.667 100.811,355.667 98.152 C 355.667 97.885,355.834 97.667,356.038 97.667 C 356.261 97.667,356.350 97.267,356.262 96.667 C 356.182 96.117,356.248 95.667,356.411 95.667 C 356.573 95.667,356.609 95.510,356.491 95.319 C 356.373 95.127,356.452 94.759,356.667 94.500 C 356.882 94.241,356.957 93.866,356.833 93.667 C 356.710 93.467,356.785 93.092,357.000 92.833 C 357.215 92.574,357.294 92.206,357.176 92.015 C 357.057 91.823,357.103 91.667,357.278 91.667 C 357.805 91.667,358.054 90.573,357.595 90.277 C 357.246 90.051,357.246 89.949,357.595 89.723 C 357.830 89.571,357.932 89.211,357.822 88.924 C 357.712 88.636,357.761 88.314,357.932 88.208 C 358.103 88.103,358.202 87.638,358.151 87.175 C 358.100 86.712,358.191 86.333,358.352 86.333 C 358.514 86.333,358.559 86.108,358.454 85.833 C 358.348 85.558,358.438 85.333,358.653 85.333 C 358.893 85.333,358.963 85.075,358.833 84.667 C 358.703 84.257,358.773 84.000,359.015 84.000 C 359.283 84.000,359.338 83.631,359.189 82.833 C 359.055 82.123,359.102 81.667,359.308 81.667 C 359.494 81.667,359.562 81.449,359.460 81.183 C 359.358 80.916,359.396 80.504,359.545 80.266 C 359.693 80.028,359.819 79.219,359.824 78.468 C 359.829 77.717,360.058 76.830,360.333 76.497 C 360.686 76.070,360.719 75.853,360.445 75.761 C 360.174 75.670,360.146 75.319,360.352 74.601 C 360.515 74.035,360.567 73.442,360.469 73.283 C 360.371 73.125,360.536 72.749,360.837 72.449 C 361.236 72.050,361.277 71.838,360.989 71.660 C 360.697 71.479,360.693 71.356,360.976 71.182 C 361.185 71.052,361.349 70.246,361.341 69.390 C 361.312 66.447,361.361 66.000,361.715 66.000 C 361.944 66.000,361.998 65.420,361.868 64.353 C 361.743 63.321,361.802 62.622,362.027 62.483 C 362.231 62.357,362.295 61.892,362.174 61.412 C 362.053 60.927,362.118 60.467,362.326 60.338 C 362.649 60.138,362.720 59.384,362.702 56.333 C 362.681 52.702,362.748 51.469,362.982 51.174 C 363.355 50.706,363.327 38.333,362.953 38.333 C 362.789 38.333,362.670 37.546,362.688 36.583 C 362.707 35.621,362.716 34.533,362.707 34.167 C 362.699 33.800,362.710 32.999,362.732 32.386 C 362.754 31.773,362.583 31.154,362.350 31.011 C 362.095 30.852,362.017 30.472,362.153 30.045 C 362.276 29.657,362.261 29.153,362.120 28.924 C 361.979 28.696,361.906 28.020,361.957 27.421 C 362.013 26.777,361.897 26.333,361.673 26.333 C 361.464 26.333,361.387 26.183,361.500 26.000 C 361.613 25.817,361.590 25.479,361.449 25.250 C 361.307 25.021,361.235 24.421,361.287 23.916 C 361.346 23.354,361.198 22.927,360.904 22.814 C 360.597 22.696,360.466 22.278,360.539 21.649 C 360.604 21.093,360.496 20.667,360.291 20.667 C 360.092 20.667,360.015 20.442,360.121 20.167 C 360.226 19.892,360.155 19.667,359.962 19.667 C 359.769 19.667,359.673 19.481,359.749 19.253 C 359.825 19.025,359.676 18.628,359.418 18.370 C 359.159 18.112,359.021 17.623,359.110 17.283 C 359.207 16.911,359.134 16.751,358.926 16.879 C 358.732 16.999,358.648 16.891,358.734 16.633 C 358.818 16.380,358.679 15.964,358.424 15.710 C 358.170 15.456,358.044 15.034,358.144 14.773 C 358.244 14.512,358.193 14.381,358.031 14.481 C 357.869 14.581,357.648 14.431,357.539 14.147 C 357.413 13.818,357.476 13.716,357.716 13.864 C 357.922 13.991,357.752 13.638,357.339 13.079 C 356.926 12.521,356.690 11.899,356.814 11.698 C 356.938 11.498,356.830 11.333,356.573 11.333 C 356.011 11.333,355.235 9.763,355.547 9.257 C 355.671 9.056,355.615 8.992,355.421 9.112 C 355.230 9.231,354.828 8.954,354.529 8.497 C 353.918 7.565,352.142 7.393,349.100 7.970 C 348.220 8.137,346.375 8.459,345.000 8.685 C 343.625 8.912,342.050 9.292,341.500 9.530 C 340.376 10.017,336.679 11.146,336.167 11.158 C 335.983 11.163,335.758 11.251,335.667 11.354 C 335.575 11.457,334.600 11.896,333.500 12.329 C 332.400 12.762,330.460 13.607,329.188 14.206 C 327.916 14.806,326.754 15.220,326.605 15.128 C 326.455 15.036,326.333 15.101,326.333 15.273 C 326.333 15.444,325.475 16.016,324.426 16.542 C 323.378 17.069,322.312 17.692,322.058 17.928 C 321.805 18.163,320.975 18.670,320.215 19.056 C 319.455 19.441,318.758 19.865,318.667 19.998 C 318.488 20.258,316.453 21.351,316.170 21.340 C 316.077 21.336,315.700 21.633,315.333 22.000 C 314.967 22.367,314.433 22.667,314.147 22.667 C 313.861 22.667,313.720 22.817,313.833 23.000 C 313.947 23.183,313.893 23.333,313.715 23.333 C 313.536 23.333,313.040 23.631,312.612 23.995 C 311.854 24.639,306.737 28.500,305.758 29.167 C 305.488 29.350,304.501 30.212,303.563 31.083 C 302.626 31.954,301.590 32.667,301.263 32.667 C 300.935 32.667,300.704 32.796,300.750 32.955 C 300.859 33.333,294.452 39.427,293.609 39.747 C 293.250 39.883,293.050 40.144,293.163 40.327 C 293.281 40.519,293.150 40.575,292.851 40.461 C 292.550 40.345,292.333 40.440,292.333 40.686 C 292.333 40.919,291.471 42.024,290.417 43.141 C 289.362 44.258,286.988 46.767,285.140 48.717 C 281.558 52.496,272.992 62.525,269.809 66.667 C 268.752 68.042,267.084 70.176,266.102 71.409 L 264.317 73.651 262.575 73.007 C 226.948 59.824,180.084 59.169,143.952 71.351 C 136.998 73.695,137.355 73.662,135.981 72.083 C 134.921 70.864,132.878 68.638,123.685 58.686 C 118.742 53.334,97.806 32.333,97.414 32.333 C 97.278 32.333,96.052 31.283,94.690 30.000 C 93.328 28.717,92.150 27.667,92.071 27.667 C 91.992 27.667,91.606 27.369,91.214 27.005 C 89.818 25.710,88.496 24.667,88.250 24.667 C 88.112 24.667,88.000 24.433,88.000 24.147 C 88.000 23.861,87.860 23.714,87.688 23.820 C 87.517 23.926,86.999 23.635,86.537 23.173 C 86.075 22.711,85.540 22.333,85.348 22.333 C 85.157 22.333,85.000 22.099,85.000 21.814 C 85.000 21.528,84.865 21.377,84.701 21.479 C 84.536 21.581,83.928 21.223,83.351 20.683 C 82.773 20.143,82.232 19.696,82.147 19.689 C 82.063 19.681,80.489 18.699,78.649 17.504 C 76.808 16.310,75.220 15.333,75.120 15.333 C 75.019 15.333,74.537 15.049,74.050 14.702 C 72.641 13.699,66.040 10.488,63.667 9.651 C 62.475 9.231,61.350 8.788,61.167 8.666 C 60.668 8.335,52.096 6.634,51.243 6.697 C 51.018 6.713,50.371 6.861,49.806 7.025 M130.356 138.195 C 142.369 141.702,151.168 158.100,144.416 164.398 C 139.367 169.106,112.933 170.348,108.831 166.070 C 97.731 154.492,114.002 133.421,130.356 138.195 M279.000 138.608 C 286.374 141.015,292.618 148.087,293.475 155.000 C 294.087 159.937,290.838 166.701,287.397 167.653 C 279.675 169.792,259.429 168.170,254.833 165.044 C 249.805 161.625,251.308 151.729,257.859 145.114 C 264.633 138.274,271.501 136.161,279.000 138.608 M302.119 177.833 C 304.397 180.112,305.674 195.441,303.874 198.921 C 298.249 209.799,252.060 224.729,241.000 219.244 L 239.500 218.500 239.548 216.718 C 239.682 211.786,245.361 204.953,254.066 199.253 C 274.440 185.910,286.871 179.650,297.167 177.547 C 298.887 177.195,301.640 177.355,302.119 177.833 M109.116 178.829 C 120.670 181.830,149.821 198.248,157.838 206.268 C 164.959 213.392,166.206 218.852,160.970 219.975 C 145.926 223.202,106.002 210.056,99.081 199.597 L 98.177 198.230 98.172 191.532 C 98.166 184.462,98.498 182.278,100.032 179.270 L 100.680 178.000 103.304 178.000 C 105.020 178.000,107.029 178.286,109.116 178.829 M36.047 264.333 C 36.047 264.608,36.176 265.133,36.333 265.500 C 36.514 265.920,36.620 265.982,36.620 265.667 C 36.620 265.392,36.491 264.867,36.333 264.500 C 36.153 264.080,36.047 264.018,36.047 264.333 M37.333 268.432 C 37.333 268.859,38.736 272.375,38.858 272.253 C 38.927 272.184,38.675 271.311,38.296 270.313 C 37.636 268.574,37.333 267.983,37.333 268.432 M39.030 272.833 C 39.030 273.017,39.392 273.842,39.833 274.667 C 40.275 275.492,40.637 276.017,40.637 275.833 C 40.637 275.650,40.275 274.825,39.833 274.000 C 39.392 273.175,39.030 272.650,39.030 272.833 M40.667 276.528 C 40.667 277.201,46.746 287.470,47.374 287.858 C 47.705 288.063,47.426 287.586,44.874 283.578 C 44.263 282.619,43.119 280.596,42.332 279.083 C 41.011 276.544,40.667 276.016,40.667 276.528 M49.497 291.000 C 51.008 293.161,54.302 297.333,54.498 297.333 C 54.662 297.333,49.106 289.976,48.582 289.500 C 48.380 289.317,48.792 289.992,49.497 291.000 M349.197 294.250 C 348.521 295.304,348.316 295.756,348.742 295.255 C 349.583 294.265,350.789 292.333,350.566 292.333 C 350.490 292.333,349.874 293.196,349.197 294.250 M346.333 298.333 C 345.942 298.883,345.696 299.333,345.788 299.333 C 345.880 299.333,346.275 298.883,346.667 298.333 C 347.058 297.783,347.304 297.333,347.212 297.333 C 347.120 297.333,346.725 297.783,346.333 298.333 M57.500 301.000 C 58.216 301.733,58.877 302.333,58.969 302.333 C 59.060 302.333,58.549 301.733,57.833 301.000 C 57.117 300.267,56.456 299.667,56.365 299.667 C 56.273 299.667,56.784 300.267,57.500 301.000 M60.667 304.500 C 61.662 305.508,62.552 306.333,62.644 306.333 C 62.736 306.333,61.996 305.508,61.000 304.500 C 60.004 303.492,59.114 302.667,59.023 302.667 C 58.931 302.667,59.671 303.492,60.667 304.500 M338.000 308.500 C 337.190 309.325,336.603 310.000,336.695 310.000 C 336.786 310.000,337.524 309.325,338.333 308.500 C 339.143 307.675,339.730 307.000,339.639 307.000 C 339.547 307.000,338.810 307.675,338.000 308.500 M68.833 312.667 C 69.922 313.767,70.887 314.667,70.979 314.667 C 71.071 314.667,70.255 313.767,69.167 312.667 C 68.078 311.567,67.113 310.667,67.021 310.667 C 66.929 310.667,67.745 311.567,68.833 312.667 M332.333 314.500 C 330.968 315.875,329.925 317.000,330.017 317.000 C 330.108 317.000,331.301 315.875,332.667 314.500 C 334.032 313.125,335.075 312.000,334.983 312.000 C 334.892 312.000,333.699 313.125,332.333 314.500 M73.333 316.833 C 73.955 317.475,74.539 318.000,74.631 318.000 C 74.722 318.000,74.289 317.475,73.667 316.833 C 73.045 316.192,72.461 315.667,72.369 315.667 C 72.278 315.667,72.711 316.192,73.333 316.833 M326.479 320.083 L 325.500 321.167 326.583 320.188 C 327.179 319.649,327.667 319.162,327.667 319.104 C 327.667 318.847,327.392 319.074,326.479 320.083 M323.479 322.750 L 322.500 323.833 323.583 322.854 C 324.179 322.316,324.667 321.828,324.667 321.771 C 324.667 321.513,324.392 321.740,323.479 322.750 M120.333 349.492 C 120.333 349.583,121.383 350.187,122.667 350.833 C 123.950 351.480,125.000 351.933,125.000 351.842 C 125.000 351.750,123.950 351.146,122.667 350.500 C 121.383 349.854,120.333 349.400,120.333 349.492 M133.667 356.333 C 134.675 356.866,135.650 357.302,135.833 357.302 C 136.017 357.302,135.342 356.866,134.333 356.333 C 133.325 355.801,132.350 355.365,132.167 355.365 C 131.983 355.365,132.658 355.801,133.667 356.333 M137.667 358.167 C 138.125 358.429,138.650 358.643,138.833 358.643 C 139.017 358.643,138.792 358.429,138.333 358.167 C 137.875 357.905,137.350 357.690,137.167 357.690 C 136.983 357.690,137.208 357.905,137.667 358.167 M140.333 359.333 C 140.975 359.685,141.650 359.972,141.833 359.972 C 142.017 359.972,141.642 359.685,141.000 359.333 C 140.358 358.982,139.683 358.695,139.500 358.695 C 139.317 358.695,139.692 358.982,140.333 359.333 M144.272 360.986 C 146.953 362.263,157.029 366.082,157.218 365.893 C 157.296 365.815,155.817 365.187,153.930 364.497 C 152.044 363.808,148.850 362.573,146.833 361.752 C 142.313 359.913,141.521 359.677,144.272 360.986 M159.815 366.858 C 161.088 367.303,162.288 367.656,162.482 367.642 C 162.675 367.628,161.792 367.253,160.518 366.809 C 159.245 366.364,158.045 366.011,157.852 366.025 C 157.658 366.038,158.542 366.413,159.815 366.858 M192.083 373.896 C 192.404 373.980,192.929 373.980,193.250 373.896 C 193.571 373.813,193.308 373.744,192.667 373.744 C 192.025 373.744,191.762 373.813,192.083 373.896 M209.254 373.902 C 209.669 373.982,210.269 373.979,210.587 373.896 C 210.906 373.812,210.567 373.747,209.833 373.751 C 209.100 373.754,208.839 373.823,209.254 373.902 M198.750 374.247 C 199.987 374.311,202.012 374.311,203.250 374.247 C 204.487 374.183,203.475 374.131,201.000 374.131 C 198.525 374.131,197.512 374.183,198.750 374.247 " stroke="none" fill="#fba00b" fill-rule="evenodd"></path><path id="path3" d="M49.925 6.571 C 49.425 6.647,48.614 7.136,48.122 7.657 C 47.630 8.178,47.024 8.527,46.776 8.432 C 46.477 8.317,46.392 8.432,46.522 8.771 C 46.647 9.095,46.404 9.490,45.862 9.845 C 45.391 10.154,45.084 10.532,45.179 10.686 C 45.274 10.840,45.044 11.132,44.667 11.333 C 44.290 11.535,44.069 11.843,44.177 12.017 C 44.285 12.191,44.224 12.333,44.042 12.333 C 43.711 12.333,43.143 13.614,43.267 14.083 C 43.304 14.221,43.158 14.333,42.944 14.333 C 42.731 14.333,42.654 14.432,42.775 14.553 C 42.896 14.673,42.838 14.960,42.648 15.190 C 42.457 15.419,42.431 15.688,42.590 15.786 C 42.880 15.965,44.815 12.371,44.564 12.119 C 43.608 11.164,50.370 6.337,52.049 6.776 C 52.389 6.865,52.584 6.802,52.481 6.636 C 52.293 6.332,51.612 6.315,49.925 6.571 M54.000 6.959 C 54.275 7.154,55.175 7.401,56.000 7.506 C 58.010 7.764,60.279 8.311,61.500 8.832 C 63.255 9.581,64.226 9.695,62.667 8.969 C 60.956 8.173,58.527 7.505,56.318 7.224 C 55.485 7.118,54.510 6.935,54.152 6.818 C 53.624 6.644,53.595 6.671,54.000 6.959 M348.833 7.669 C 348.100 7.815,346.375 8.121,345.000 8.349 C 343.625 8.577,342.050 8.947,341.500 9.172 C 340.950 9.397,339.862 9.774,339.082 10.011 C 338.302 10.247,337.724 10.502,337.799 10.577 C 337.969 10.747,340.710 9.975,341.180 9.626 C 341.571 9.335,345.635 8.489,348.183 8.168 C 349.108 8.051,350.083 7.818,350.349 7.650 C 350.904 7.299,350.686 7.302,348.833 7.669 M352.588 7.568 C 353.635 7.669,354.150 7.920,354.541 8.517 C 354.834 8.963,355.230 9.231,355.421 9.112 C 355.615 8.992,355.671 9.056,355.547 9.257 C 355.244 9.748,356.004 11.333,356.543 11.333 C 356.783 11.333,356.900 11.539,356.804 11.790 C 356.707 12.042,356.865 12.484,357.153 12.772 C 357.442 13.061,357.640 13.418,357.593 13.565 C 357.479 13.924,358.358 16.000,358.624 16.000 C 358.739 16.000,358.856 16.385,358.883 16.855 C 358.937 17.794,359.215 18.230,359.548 17.897 C 359.665 17.779,359.592 17.478,359.384 17.227 C 359.176 16.977,359.101 16.677,359.217 16.561 C 359.333 16.445,359.284 16.158,359.108 15.925 C 358.931 15.691,358.588 14.870,358.346 14.101 C 358.103 13.331,357.692 12.620,357.431 12.520 C 357.171 12.420,357.058 12.175,357.181 11.977 C 357.304 11.778,357.088 11.321,356.702 10.961 C 356.316 10.602,356.000 10.022,356.000 9.673 C 356.000 9.323,355.720 8.842,355.378 8.602 C 355.036 8.363,354.774 8.017,354.795 7.833 C 354.816 7.650,354.008 7.484,353.000 7.465 C 351.589 7.438,351.494 7.461,352.588 7.568 M69.833 12.384 C 71.667 13.314,73.565 14.359,74.051 14.705 C 74.538 15.050,75.026 15.333,75.135 15.333 C 75.244 15.333,76.909 16.370,78.834 17.636 C 80.758 18.903,82.333 19.813,82.333 19.659 C 82.333 19.365,80.558 18.000,80.176 18.000 C 80.055 18.000,79.464 17.625,78.863 17.167 C 78.262 16.708,77.597 16.333,77.385 16.333 C 77.173 16.333,77.000 16.176,77.000 15.983 C 77.000 15.790,76.475 15.413,75.833 15.145 C 75.192 14.877,74.667 14.510,74.667 14.329 C 74.667 14.148,74.509 14.000,74.315 14.000 C 74.122 14.000,72.405 13.250,70.500 12.333 C 65.997 10.167,65.536 10.202,69.833 12.384 M333.500 12.015 C 331.276 13.107,331.360 13.141,333.926 12.184 C 334.883 11.827,335.667 11.415,335.667 11.267 C 335.667 10.927,335.829 10.871,333.500 12.015 M329.664 13.504 C 329.437 13.777,328.970 14.000,328.626 14.000 C 328.282 14.000,328.000 14.152,328.000 14.338 C 328.000 14.534,328.517 14.460,329.233 14.160 C 330.702 13.547,330.807 13.460,330.393 13.204 C 330.219 13.096,329.890 13.231,329.664 13.504 M325.667 15.500 C 325.438 15.775,325.062 16.000,324.829 16.000 C 324.597 16.000,324.053 16.311,323.620 16.691 C 322.991 17.243,323.184 17.199,324.583 16.471 C 325.546 15.970,326.333 15.435,326.333 15.280 C 326.333 14.870,326.135 14.936,325.667 15.500 M42.005 16.564 C 42.002 16.965,41.850 17.387,41.667 17.500 C 41.215 17.779,41.242 18.667,41.702 18.667 C 41.905 18.667,41.985 18.442,41.879 18.167 C 41.774 17.892,41.817 17.667,41.975 17.667 C 42.428 17.667,42.635 16.820,42.308 16.303 C 42.081 15.944,42.009 16.006,42.005 16.564 M322.006 17.492 C 321.782 17.763,320.751 18.396,319.716 18.899 C 318.680 19.402,317.469 20.147,317.023 20.556 C 316.577 20.964,316.109 21.234,315.984 21.157 C 315.858 21.079,315.487 21.312,315.160 21.675 C 314.832 22.037,314.377 22.333,314.150 22.333 C 313.923 22.333,313.383 22.706,312.952 23.161 C 312.520 23.616,312.012 23.991,311.824 23.994 C 311.635 23.997,311.264 24.300,311.000 24.667 C 310.736 25.033,310.328 25.333,310.093 25.333 C 309.859 25.333,309.667 25.487,309.667 25.675 C 309.667 25.863,309.292 26.159,308.833 26.333 C 308.375 26.508,308.000 26.804,308.000 26.992 C 308.000 27.180,307.811 27.333,307.580 27.333 C 307.349 27.333,306.964 27.648,306.724 28.032 C 306.484 28.417,306.200 28.644,306.093 28.538 C 305.987 28.431,305.554 28.717,305.132 29.172 C 304.710 29.627,304.283 30.000,304.182 30.000 C 304.081 30.000,303.511 30.510,302.916 31.133 C 302.321 31.757,301.533 32.339,301.167 32.428 C 300.511 32.587,300.511 32.590,301.179 32.628 C 301.566 32.650,302.594 31.984,303.563 31.083 C 304.501 30.212,305.488 29.350,305.758 29.167 C 306.737 28.500,311.854 24.639,312.612 23.995 C 313.040 23.631,313.536 23.333,313.715 23.333 C 313.893 23.333,313.947 23.183,313.833 23.000 C 313.720 22.817,313.861 22.667,314.147 22.667 C 314.433 22.667,314.967 22.367,315.333 22.000 C 315.700 21.633,316.077 21.336,316.170 21.340 C 316.441 21.351,318.483 20.264,318.667 20.011 C 318.758 19.884,319.612 19.361,320.564 18.848 C 321.516 18.335,322.374 17.709,322.470 17.458 C 322.698 16.863,322.518 16.876,322.006 17.492 M196.583 18.249 C 199.196 18.306,203.471 18.306,206.083 18.249 C 208.696 18.193,206.558 18.147,201.333 18.147 C 196.108 18.147,193.971 18.193,196.583 18.249 M187.755 18.573 C 188.261 18.649,189.011 18.647,189.421 18.568 C 189.831 18.489,189.417 18.426,188.500 18.429 C 187.583 18.431,187.248 18.496,187.755 18.573 M211.923 18.575 C 212.522 18.649,213.422 18.648,213.923 18.572 C 214.424 18.495,213.933 18.435,212.833 18.437 C 211.733 18.438,211.324 18.501,211.923 18.575 M182.576 18.907 C 183.168 18.981,184.218 18.982,184.909 18.910 C 185.601 18.838,185.117 18.778,183.833 18.776 C 182.550 18.775,181.984 18.834,182.576 18.907 M217.083 18.905 C 217.588 18.982,218.412 18.982,218.917 18.905 C 219.421 18.829,219.008 18.767,218.000 18.767 C 216.992 18.767,216.579 18.829,217.083 18.905 M40.909 19.645 C 40.792 20.092,40.881 20.230,41.204 20.106 C 41.729 19.905,41.810 19.461,41.371 19.190 C 41.209 19.090,41.001 19.295,40.909 19.645 M179.750 19.230 C 180.071 19.314,180.596 19.314,180.917 19.230 C 181.237 19.146,180.975 19.077,180.333 19.077 C 179.692 19.077,179.429 19.146,179.750 19.230 M220.417 19.230 C 220.737 19.314,221.262 19.314,221.583 19.230 C 221.904 19.146,221.642 19.077,221.000 19.077 C 220.358 19.077,220.096 19.146,220.417 19.230 M359.667 19.293 C 359.667 19.498,359.812 19.667,359.990 19.667 C 360.167 19.667,360.226 19.892,360.121 20.167 C 360.015 20.442,360.092 20.667,360.291 20.667 C 360.496 20.667,360.604 21.093,360.539 21.649 C 360.466 22.278,360.597 22.696,360.904 22.814 C 361.198 22.927,361.346 23.354,361.287 23.916 C 361.235 24.421,361.307 25.021,361.449 25.250 C 361.590 25.479,361.613 25.817,361.500 26.000 C 361.387 26.183,361.464 26.333,361.673 26.333 C 361.897 26.333,362.013 26.777,361.957 27.421 C 361.906 28.020,361.974 28.688,362.109 28.906 C 362.243 29.124,362.258 29.685,362.141 30.151 C 362.015 30.651,362.070 31.000,362.273 31.000 C 362.463 31.000,362.686 31.262,362.770 31.583 C 362.885 32.022,362.932 31.981,362.961 31.417 C 362.983 31.004,362.834 30.667,362.631 30.667 C 362.428 30.667,362.354 30.428,362.466 30.136 C 362.712 29.494,362.070 25.204,361.708 25.075 C 361.567 25.025,361.514 24.555,361.591 24.031 C 361.668 23.508,361.566 22.977,361.365 22.853 C 361.164 22.729,361.000 22.195,361.000 21.667 C 361.000 21.138,360.848 20.612,360.661 20.497 C 360.475 20.381,360.398 20.165,360.491 20.015 C 360.584 19.865,360.436 19.557,360.163 19.330 C 359.818 19.044,359.667 19.033,359.667 19.293 M176.254 19.569 C 176.669 19.649,177.269 19.646,177.587 19.562 C 177.906 19.479,177.567 19.414,176.833 19.417 C 176.100 19.421,175.839 19.489,176.254 19.569 M82.677 19.894 C 82.664 20.385,84.498 21.724,84.788 21.435 C 84.904 21.318,85.000 21.472,85.000 21.778 C 85.000 22.083,85.157 22.333,85.348 22.333 C 85.540 22.333,86.075 22.711,86.537 23.173 C 86.999 23.635,87.544 23.909,87.749 23.782 C 87.998 23.628,87.945 23.488,87.589 23.359 C 87.296 23.253,86.556 22.718,85.945 22.169 C 85.333 21.621,84.721 21.208,84.583 21.252 C 84.446 21.297,84.333 21.183,84.333 21.000 C 84.333 20.817,84.162 20.667,83.953 20.667 C 83.744 20.667,83.374 20.404,83.131 20.083 C 82.887 19.762,82.683 19.677,82.677 19.894 M229.017 20.351 C 229.463 20.633,231.952 20.818,231.639 20.546 C 231.563 20.479,230.833 20.340,230.017 20.235 C 229.058 20.113,228.705 20.154,229.017 20.351 M164.833 21.336 C 164.404 21.522,164.761 21.556,165.833 21.432 C 166.750 21.326,167.563 21.186,167.639 21.120 C 167.928 20.871,165.470 21.060,164.833 21.336 M88.000 24.306 C 88.000 24.504,88.112 24.667,88.250 24.667 C 88.496 24.667,89.818 25.710,91.214 27.005 C 91.606 27.369,91.992 27.667,92.071 27.667 C 92.150 27.667,93.328 28.717,94.690 30.000 C 96.052 31.283,97.260 32.333,97.373 32.333 C 97.487 32.333,98.575 33.328,99.790 34.543 C 101.006 35.759,102.000 36.537,102.000 36.272 C 102.000 35.728,100.544 34.275,99.417 33.696 C 99.004 33.483,98.667 33.152,98.667 32.958 C 98.667 32.488,97.287 31.358,96.694 31.344 C 96.435 31.338,96.315 31.240,96.429 31.127 C 96.672 30.884,95.859 30.000,95.393 30.000 C 95.216 30.000,94.984 29.774,94.878 29.497 C 94.772 29.221,94.306 28.821,93.843 28.610 C 93.379 28.399,93.000 28.025,93.000 27.780 C 93.000 27.534,92.855 27.333,92.678 27.333 C 92.501 27.333,91.921 26.908,91.389 26.388 C 90.124 25.151,88.000 23.847,88.000 24.306 M39.556 25.556 C 39.433 25.678,39.343 26.090,39.354 26.472 C 39.374 27.111,39.401 27.102,39.695 26.368 C 40.021 25.552,39.954 25.157,39.556 25.556 M39.036 28.667 C 39.024 29.861,39.091 30.045,39.367 29.571 C 39.601 29.170,39.606 28.680,39.383 28.071 C 39.078 27.236,39.051 27.282,39.036 28.667 M140.333 27.682 C 139.968 27.929,140.103 27.960,140.833 27.797 C 142.059 27.522,142.325 27.332,141.472 27.338 C 141.121 27.341,140.608 27.496,140.333 27.682 M38.910 30.535 C 38.776 30.668,38.671 31.090,38.677 31.472 C 38.686 32.113,38.714 32.121,39.034 31.571 C 39.407 30.930,39.311 30.133,38.910 30.535 M38.833 32.667 C 38.947 32.850,38.870 33.000,38.663 33.000 C 38.415 33.000,38.314 33.734,38.366 35.167 C 38.409 36.358,38.344 37.433,38.222 37.556 C 38.100 37.678,38.018 38.615,38.039 39.639 L 38.078 41.500 38.395 39.833 C 38.569 38.917,38.727 37.079,38.746 35.750 C 38.765 34.421,38.905 33.333,39.057 33.333 C 39.209 33.333,39.333 33.108,39.333 32.833 C 39.333 32.558,39.174 32.333,38.980 32.333 C 38.786 32.333,38.720 32.483,38.833 32.667 M126.750 32.677 C 125.634 33.126,125.842 33.354,127.000 32.950 C 127.550 32.758,128.000 32.541,128.000 32.467 C 128.000 32.270,127.594 32.338,126.750 32.677 M273.667 32.571 C 273.942 32.673,274.467 32.895,274.833 33.063 C 275.489 33.365,275.490 33.362,274.853 32.852 C 274.497 32.567,273.972 32.345,273.686 32.360 C 273.237 32.382,273.235 32.411,273.667 32.571 M299.925 33.520 C 299.425 33.791,298.858 34.310,298.663 34.673 C 298.469 35.036,298.168 35.333,297.995 35.333 C 297.312 35.333,292.585 40.243,293.013 40.508 C 293.290 40.679,293.354 40.636,293.197 40.382 C 293.056 40.155,293.225 39.892,293.606 39.747 C 294.174 39.531,301.345 32.979,300.975 33.013 C 300.897 33.021,300.425 33.249,299.925 33.520 M124.033 33.851 C 123.409 34.122,122.971 34.416,123.059 34.504 C 123.148 34.592,123.808 34.371,124.526 34.012 C 126.053 33.251,125.690 33.132,124.033 33.851 M362.652 34.640 C 362.842 34.995,362.902 35.959,362.785 36.806 C 362.636 37.894,362.692 38.333,362.979 38.333 C 363.271 38.333,363.353 39.114,363.274 41.167 C 363.215 42.726,363.297 44.001,363.455 44.001 C 363.703 44.000,363.565 39.352,363.223 36.167 C 363.164 35.617,363.090 34.904,363.058 34.583 C 363.026 34.262,362.845 34.000,362.655 34.000 C 362.418 34.000,362.417 34.200,362.652 34.640 M121.074 35.220 C 120.473 35.517,120.035 35.813,120.100 35.878 C 120.166 35.944,120.808 35.704,121.526 35.345 C 122.245 34.987,122.683 34.691,122.500 34.688 C 122.317 34.684,121.675 34.924,121.074 35.220 M102.391 36.923 C 103.037 38.366,107.942 42.278,108.522 41.813 C 109.155 41.306,109.154 41.302,108.500 41.613 C 108.025 41.838,107.710 41.795,107.404 41.464 C 107.167 41.209,107.078 41.000,107.205 41.000 C 107.332 41.000,107.165 40.700,106.833 40.333 C 106.502 39.967,106.003 39.667,105.726 39.667 C 105.449 39.667,105.313 39.576,105.424 39.465 C 105.680 39.209,104.119 37.633,103.073 37.090 C 102.638 36.864,102.331 36.789,102.391 36.923 M289.000 39.717 C 289.642 40.105,290.571 40.701,291.066 41.041 C 291.868 41.594,292.803 41.359,292.200 40.756 C 292.090 40.646,292.000 40.754,292.000 40.996 C 292.000 41.341,291.873 41.329,291.417 40.942 C 290.705 40.339,288.383 38.998,288.064 39.006 C 287.937 39.009,288.358 39.329,289.000 39.717 M38.167 47.532 C 38.167 50.539,38.279 53.000,38.417 53.000 C 38.554 53.000,38.667 50.609,38.667 47.686 C 38.667 44.764,38.554 42.303,38.417 42.218 C 38.279 42.133,38.167 44.524,38.167 47.532 M363.273 47.520 C 363.337 49.425,363.239 50.879,363.029 51.132 C 362.836 51.364,362.713 52.367,362.756 53.361 C 362.798 54.354,362.720 55.475,362.582 55.851 C 362.431 56.260,362.498 56.764,362.748 57.104 C 363.099 57.581,363.181 57.254,363.252 55.087 C 363.299 53.664,363.430 50.663,363.543 48.417 C 363.657 46.155,363.619 44.333,363.458 44.333 C 363.298 44.332,363.215 45.767,363.273 47.520 M37.785 48.167 C 37.784 49.817,37.840 50.534,37.910 49.760 C 37.980 48.986,37.981 47.636,37.912 46.760 C 37.843 45.884,37.786 46.517,37.785 48.167 M38.042 55.528 C 38.019 56.826,38.104 57.993,38.231 58.120 C 38.359 58.248,38.422 59.757,38.372 61.473 C 38.314 63.454,38.413 64.677,38.643 64.819 C 39.087 65.093,39.553 64.018,39.120 63.716 C 38.950 63.597,38.787 62.150,38.758 60.500 C 38.729 58.850,38.566 56.525,38.395 55.333 L 38.085 53.167 38.042 55.528 M362.667 59.444 C 362.667 59.933,362.505 60.333,362.307 60.333 C 362.083 60.333,362.027 60.699,362.160 61.302 C 362.282 61.857,362.222 62.363,362.020 62.488 C 361.825 62.608,361.671 62.960,361.677 63.270 C 361.687 63.783,361.728 63.780,362.141 63.237 C 362.622 62.602,363.188 59.077,362.861 58.750 C 362.754 58.643,362.667 58.956,362.667 59.444 M361.931 65.018 C 362.015 65.585,361.924 66.000,361.718 66.000 C 361.363 66.000,361.307 66.483,361.339 69.286 C 361.347 70.085,361.182 70.948,360.970 71.203 C 360.666 71.569,360.707 71.667,361.159 71.667 C 361.636 71.667,361.713 71.410,361.614 70.167 C 361.549 69.342,361.584 68.667,361.692 68.667 C 361.800 68.667,361.903 68.479,361.919 68.250 C 361.936 68.021,362.055 67.066,362.183 66.128 C 362.317 65.147,362.282 64.341,362.101 64.229 C 361.921 64.118,361.849 64.453,361.931 65.018 M38.667 66.278 C 38.667 66.858,38.826 67.333,39.020 67.333 C 39.214 67.333,39.266 67.507,39.135 67.718 C 38.992 67.949,39.043 68.013,39.262 67.877 C 39.526 67.714,39.526 67.354,39.264 66.576 C 38.767 65.101,38.667 65.052,38.667 66.278 M39.010 70.073 C 39.002 71.633,39.091 71.944,39.500 71.787 C 40.064 71.571,40.180 71.000,39.660 71.000 C 39.467 71.000,39.408 70.651,39.524 70.191 C 39.635 69.746,39.568 69.108,39.374 68.774 C 39.095 68.294,39.018 68.567,39.010 70.073 M360.733 72.537 C 360.494 72.796,360.378 73.135,360.473 73.290 C 360.569 73.445,360.512 74.043,360.347 74.619 C 360.103 75.469,360.143 75.667,360.558 75.667 C 360.954 75.667,361.041 75.365,360.943 74.336 C 360.873 73.604,360.955 72.959,361.125 72.903 C 361.294 72.846,361.373 72.635,361.300 72.433 C 361.212 72.190,361.020 72.225,360.733 72.537 M39.333 73.294 C 39.333 73.661,39.483 74.053,39.667 74.167 C 39.850 74.280,40.000 74.073,40.000 73.706 C 40.000 73.339,39.850 72.947,39.667 72.833 C 39.483 72.720,39.333 72.927,39.333 73.294 M39.672 75.230 C 39.675 75.562,39.822 76.058,40.000 76.333 C 40.253 76.724,40.324 76.638,40.328 75.936 C 40.331 75.443,40.183 74.947,40.000 74.833 C 39.817 74.720,39.669 74.899,39.672 75.230 M360.164 76.671 C 360.004 76.930,359.833 77.673,359.784 78.321 L 359.695 79.500 360.186 78.183 C 360.694 76.825,360.679 75.838,360.164 76.671 M40.338 80.397 C 40.348 81.234,40.989 81.923,40.995 81.103 C 40.998 80.701,40.850 80.280,40.667 80.167 C 40.483 80.053,40.336 80.157,40.338 80.397 M40.672 84.083 C 40.676 84.690,40.739 84.738,41.000 84.333 C 41.418 83.687,41.418 83.333,41.000 83.333 C 40.817 83.333,40.669 83.671,40.672 84.083 M358.175 87.333 C 358.245 87.883,358.149 88.333,357.962 88.333 C 357.773 88.333,357.716 88.631,357.833 89.000 C 357.955 89.382,357.893 89.667,357.689 89.667 C 357.191 89.667,357.244 90.228,357.762 90.426 C 357.998 90.517,358.205 90.346,358.223 90.045 C 358.241 89.745,358.369 88.787,358.507 87.917 C 358.673 86.864,358.639 86.333,358.403 86.333 C 358.203 86.333,358.104 86.770,358.175 87.333 M41.510 88.417 C 41.575 88.829,41.701 89.467,41.789 89.833 C 41.877 90.200,41.960 90.837,41.974 91.250 C 41.989 91.662,42.160 92.000,42.356 92.000 C 42.576 92.000,42.617 91.714,42.465 91.250 C 42.329 90.837,42.242 90.162,42.272 89.750 C 42.302 89.337,42.192 89.000,42.027 89.000 C 41.863 89.000,41.808 88.700,41.903 88.333 C 41.999 87.967,41.923 87.667,41.735 87.667 C 41.546 87.667,41.445 88.004,41.510 88.417 M357.437 91.477 C 357.219 91.726,357.127 92.016,357.234 92.123 C 357.341 92.230,357.244 92.539,357.019 92.811 C 356.794 93.082,356.710 93.467,356.833 93.667 C 356.957 93.866,356.882 94.241,356.667 94.500 C 356.452 94.759,356.373 95.127,356.491 95.319 C 356.609 95.510,356.568 95.667,356.399 95.667 C 356.230 95.667,356.167 96.058,356.259 96.535 C 356.350 97.016,356.249 97.513,356.033 97.646 C 355.766 97.811,356.021 98.303,356.832 99.188 C 357.487 99.903,358.635 101.429,359.384 102.578 C 360.132 103.727,360.811 104.667,360.892 104.667 C 360.973 104.667,360.929 104.479,360.795 104.250 C 360.299 103.404,357.877 99.828,357.691 99.667 C 356.795 98.890,356.309 95.002,357.107 95.000 C 357.258 95.000,357.337 94.662,357.284 94.250 C 357.231 93.837,357.274 93.350,357.381 93.167 C 357.606 92.779,358.055 90.994,357.923 91.013 C 357.874 91.020,357.655 91.229,357.437 91.477 M42.000 92.606 C 42.000 92.801,42.152 93.055,42.339 93.170 C 42.525 93.285,42.604 93.498,42.515 93.642 C 42.280 94.022,42.927 97.727,43.292 98.092 C 43.481 98.281,43.581 98.064,43.550 97.534 C 43.523 97.057,43.376 96.667,43.225 96.667 C 43.074 96.667,42.993 96.254,43.046 95.750 C 43.099 95.246,43.035 94.659,42.903 94.447 C 42.772 94.234,42.747 93.846,42.847 93.583 C 42.948 93.321,42.799 92.914,42.515 92.679 C 42.197 92.415,42.000 92.387,42.000 92.606 M43.333 99.520 C 43.333 100.016,42.390 101.791,41.075 103.770 C 38.188 108.112,38.020 108.383,37.785 109.083 C 37.677 109.404,37.472 109.667,37.330 109.667 C 37.188 109.667,36.977 109.913,36.861 110.214 C 36.553 111.017,37.629 110.088,38.058 109.180 C 38.910 107.379,40.383 105.044,41.853 103.167 C 42.427 102.433,42.990 101.571,43.105 101.250 C 43.219 100.929,43.446 100.667,43.608 100.667 C 43.771 100.667,43.888 100.217,43.869 99.667 C 43.826 98.453,43.333 98.318,43.333 99.520 M361.717 106.167 C 362.133 106.900,363.042 108.386,363.737 109.468 C 364.432 110.551,365.000 111.563,365.000 111.718 C 365.000 111.873,365.150 112.000,365.333 112.000 C 365.517 112.000,364.879 110.746,363.917 109.214 C 361.885 105.979,360.608 104.210,361.717 106.167 M365.667 112.468 C 365.667 112.812,367.360 115.667,367.563 115.667 C 367.655 115.667,367.319 114.954,366.816 114.083 C 365.775 112.280,365.667 112.127,365.667 112.468 M33.899 115.312 C 33.588 115.838,33.340 116.471,33.348 116.718 C 33.356 116.965,33.667 116.590,34.039 115.885 C 34.834 114.378,34.722 113.919,33.899 115.312 M32.062 118.698 C 31.170 120.369,31.134 120.679,31.954 119.628 C 32.543 118.874,33.190 117.333,32.918 117.333 C 32.848 117.333,32.463 117.948,32.062 118.698 M368.674 118.250 C 368.678 118.388,368.987 118.875,369.361 119.333 L 370.040 120.167 369.512 119.083 C 369.009 118.054,368.658 117.704,368.674 118.250 M371.098 122.500 C 371.732 123.783,372.476 125.358,372.753 126.000 C 374.212 129.380,375.464 131.981,375.577 131.868 C 375.699 131.745,375.242 130.645,373.412 126.667 C 371.780 123.117,370.620 120.830,370.285 120.500 C 370.099 120.317,370.465 121.217,371.098 122.500 M28.873 124.925 C 28.039 126.575,27.215 128.547,27.456 128.314 C 27.872 127.914,29.960 123.667,29.737 123.675 C 29.607 123.679,29.218 124.242,28.873 124.925 M26.688 129.807 C 26.472 130.068,26.008 131.081,25.658 132.057 C 25.204 133.324,25.161 133.648,25.510 133.186 C 25.780 132.830,26.000 132.351,26.000 132.122 C 26.000 131.893,26.315 131.171,26.700 130.519 C 27.410 129.315,27.404 128.945,26.688 129.807 M376.022 133.250 C 376.540 134.729,377.978 137.537,377.990 137.092 C 378.002 136.615,376.081 132.333,375.854 132.333 C 375.770 132.333,375.846 132.746,376.022 133.250 M24.194 135.361 C 23.867 136.103,23.671 136.782,23.758 136.869 C 23.845 136.956,24.167 136.403,24.472 135.639 C 25.195 133.833,24.968 133.607,24.194 135.361 M23.107 137.917 C 22.994 138.237,22.540 139.379,22.098 140.453 C 21.656 141.527,21.361 142.472,21.442 142.553 C 21.523 142.634,21.746 142.281,21.938 141.767 C 22.130 141.253,22.597 140.046,22.975 139.083 C 23.354 138.121,23.585 137.333,23.488 137.333 C 23.392 137.333,23.220 137.596,23.107 137.917 M378.694 139.667 C 378.695 140.245,379.965 142.679,379.986 142.143 C 379.994 141.946,379.706 141.196,379.347 140.476 C 378.987 139.756,378.694 139.392,378.694 139.667 M380.000 142.773 C 380.000 143.260,381.082 146.362,381.208 146.236 C 381.379 146.066,380.351 142.667,380.128 142.667 C 380.058 142.667,380.000 142.714,380.000 142.773 M20.576 144.743 C 19.290 148.265,18.617 150.394,18.748 150.526 C 18.827 150.605,19.437 149.065,20.103 147.103 C 21.272 143.665,21.639 141.832,20.576 144.743 M381.345 146.878 C 381.339 147.087,381.552 147.762,381.820 148.378 C 382.157 149.153,382.308 149.294,382.308 148.833 C 382.310 148.135,381.366 146.220,381.345 146.878 M383.034 152.020 C 383.015 152.489,383.236 153.164,383.525 153.520 C 383.813 153.875,383.939 153.955,383.805 153.696 C 383.670 153.437,383.450 152.762,383.314 152.196 C 383.088 151.250,383.065 151.235,383.034 152.020 M17.364 154.364 C 17.138 155.116,17.015 155.793,17.090 155.868 C 17.165 155.943,17.411 155.389,17.636 154.636 C 17.862 153.884,17.985 153.207,17.910 153.132 C 17.835 153.057,17.589 153.611,17.364 154.364 M384.672 157.528 C 384.675 157.879,384.829 158.392,385.015 158.667 C 385.262 159.032,385.293 158.897,385.130 158.167 C 384.856 156.941,384.665 156.675,384.672 157.528 M385.354 159.667 C 385.353 159.942,385.649 161.217,386.012 162.500 C 386.374 163.783,386.926 166.092,387.237 167.630 C 387.548 169.168,387.855 170.267,387.920 170.073 C 388.058 169.660,387.152 165.111,386.691 163.898 C 386.518 163.442,386.430 163.014,386.497 162.947 C 386.564 162.881,386.334 162.003,385.987 160.996 C 385.639 159.990,385.355 159.392,385.354 159.667 M15.190 162.190 C 15.068 162.679,15.043 163.154,15.134 163.245 C 15.226 163.337,15.401 163.012,15.524 162.524 C 15.646 162.035,15.672 161.561,15.580 161.469 C 15.488 161.377,15.313 161.702,15.190 162.190 M14.215 166.392 C 13.884 167.735,13.564 169.159,13.505 169.557 C 13.446 169.955,13.305 170.705,13.191 171.224 C 13.078 171.742,12.907 172.617,12.813 173.167 C 12.718 173.717,12.562 174.467,12.465 174.833 C 12.325 175.364,12.359 175.399,12.628 175.007 C 12.815 174.736,13.066 173.911,13.187 173.173 C 13.307 172.436,13.771 170.202,14.217 168.208 C 15.136 164.100,15.135 162.665,14.215 166.392 M388.204 172.735 C 388.270 173.682,388.465 174.598,388.636 174.770 C 388.830 174.963,388.836 174.592,388.651 173.791 C 388.488 173.081,388.430 172.250,388.524 171.945 C 388.617 171.639,388.556 171.304,388.388 171.201 C 388.213 171.092,388.134 171.745,388.204 172.735 M388.867 176.222 C 389.174 177.499,389.333 177.620,389.333 176.575 C 389.333 176.097,389.177 175.610,388.987 175.492 C 388.759 175.351,388.718 175.603,388.867 176.222 M299.658 177.641 C 301.757 177.828,301.837 177.870,302.569 179.167 C 303.436 180.700,303.604 180.495,302.787 178.900 C 302.043 177.448,301.798 177.336,299.500 177.396 L 297.500 177.448 299.658 177.641 M389.148 177.933 C 389.283 178.172,389.524 179.072,389.684 179.933 L 389.974 181.500 389.858 179.888 C 389.794 179.001,389.553 178.101,389.322 177.888 C 388.999 177.589,388.959 177.600,389.148 177.933 M100.007 179.320 C 99.094 181.110,99.161 181.491,100.098 179.833 L 100.851 178.500 103.676 178.312 L 106.500 178.124 103.590 178.062 L 100.680 178.000 100.007 179.320 M293.500 178.333 C 292.651 178.698,293.527 178.698,294.667 178.333 C 295.337 178.119,295.369 178.065,294.833 178.057 C 294.467 178.051,293.867 178.176,293.500 178.333 M108.833 179.000 C 109.200 179.158,109.725 179.286,110.000 179.286 C 110.315 179.286,110.254 179.181,109.833 179.000 C 109.467 178.842,108.942 178.714,108.667 178.714 C 108.352 178.714,108.413 178.819,108.833 179.000 M290.833 179.155 C 289.546 179.744,290.145 179.753,291.667 179.167 C 292.308 178.920,292.608 178.713,292.333 178.707 C 292.058 178.701,291.383 178.903,290.833 179.155 M11.795 179.814 C 11.693 180.078,11.669 180.566,11.741 180.897 C 11.822 181.274,11.936 181.093,12.045 180.417 C 12.226 179.281,12.108 178.997,11.795 179.814 M112.307 180.023 C 113.300 180.376,114.171 180.607,114.241 180.536 C 114.397 180.381,111.361 179.323,110.857 179.358 C 110.661 179.371,111.313 179.671,112.307 180.023 M117.000 181.833 C 117.458 182.095,117.983 182.310,118.167 182.310 C 118.350 182.310,118.125 182.095,117.667 181.833 C 117.208 181.571,116.683 181.357,116.500 181.357 C 116.317 181.357,116.542 181.571,117.000 181.833 M11.382 182.667 C 11.350 183.125,11.241 183.875,11.139 184.333 C 10.980 185.051,11.006 185.085,11.331 184.576 C 11.538 184.251,11.648 183.501,11.574 182.909 C 11.470 182.072,11.427 182.018,11.382 182.667 M280.583 183.521 C 279.346 184.156,278.333 184.751,278.333 184.842 C 278.333 184.991,282.967 182.772,283.306 182.461 C 283.761 182.042,282.531 182.521,280.583 183.521 M121.000 183.667 C 122.008 184.199,122.983 184.635,123.167 184.635 C 123.350 184.635,122.675 184.199,121.667 183.667 C 120.658 183.134,119.683 182.698,119.500 182.698 C 119.317 182.698,119.992 183.134,121.000 183.667 M390.057 183.333 C 390.051 183.792,390.176 184.467,390.333 184.833 L 390.620 185.500 390.610 184.833 C 390.605 184.467,390.480 183.792,390.333 183.333 L 390.066 182.500 390.057 183.333 M98.411 185.000 C 98.411 185.642,98.479 185.904,98.563 185.583 C 98.647 185.262,98.647 184.737,98.563 184.417 C 98.479 184.096,98.411 184.358,98.411 185.000 M123.667 184.825 C 123.667 184.917,124.717 185.520,126.000 186.167 C 127.283 186.813,128.333 187.267,128.333 187.175 C 128.333 187.083,127.283 186.480,126.000 185.833 C 124.717 185.187,123.667 184.733,123.667 184.825 M275.750 186.035 C 274.787 186.596,274.000 187.129,274.000 187.219 C 274.000 187.352,277.491 185.501,277.972 185.112 C 278.577 184.623,277.167 185.209,275.750 186.035 M10.757 186.667 C 10.757 187.492,10.822 187.829,10.902 187.417 C 10.981 187.004,10.981 186.329,10.902 185.917 C 10.822 185.504,10.757 185.842,10.757 186.667 M304.466 190.667 C 304.466 193.325,304.518 194.412,304.581 193.083 C 304.644 191.754,304.644 189.579,304.581 188.250 C 304.518 186.921,304.466 188.008,304.466 190.667 M98.132 190.833 C 98.132 193.400,98.184 194.406,98.248 193.069 C 98.311 191.732,98.311 189.632,98.247 188.402 C 98.183 187.173,98.131 188.267,98.132 190.833 M390.518 188.000 C 390.961 190.983,391.320 192.281,391.124 190.196 C 391.022 189.112,390.805 187.912,390.641 187.529 C 390.419 187.008,390.388 187.126,390.518 188.000 M272.250 188.023 C 271.563 188.386,271.000 188.757,271.000 188.848 C 271.000 188.939,271.600 188.707,272.333 188.333 C 273.067 187.959,273.667 187.581,273.667 187.493 C 273.667 187.275,273.664 187.276,272.250 188.023 M130.000 188.150 C 130.000 188.241,130.450 188.549,131.000 188.833 C 131.550 189.118,132.000 189.275,132.000 189.184 C 132.000 189.092,131.550 188.784,131.000 188.500 C 130.450 188.216,130.000 188.058,130.000 188.150 M10.517 189.750 C 10.223 190.706,9.988 193.123,10.212 192.899 C 10.461 192.650,10.974 189.333,10.763 189.333 C 10.699 189.333,10.588 189.521,10.517 189.750 M132.333 189.483 C 132.333 189.575,132.783 189.882,133.333 190.167 C 133.883 190.451,134.333 190.609,134.333 190.517 C 134.333 190.425,133.883 190.118,133.333 189.833 C 132.783 189.549,132.333 189.391,132.333 189.483 M391.077 193.667 C 391.077 194.308,391.146 194.571,391.230 194.250 C 391.314 193.929,391.314 193.404,391.230 193.083 C 391.146 192.762,391.077 193.025,391.077 193.667 M260.827 194.880 C 259.126 196.008,258.527 196.603,259.855 195.845 C 261.025 195.178,262.585 194.018,262.327 194.007 C 262.232 194.003,261.557 194.396,260.827 194.880 M142.000 195.113 C 142.000 195.197,143.387 196.128,145.083 197.181 C 146.779 198.235,148.504 199.317,148.917 199.587 C 149.329 199.856,149.667 199.997,149.667 199.899 C 149.667 199.801,148.129 198.760,146.250 197.587 C 141.946 194.899,142.000 194.931,142.000 195.113 M98.424 197.333 C 98.424 198.158,98.489 198.496,98.569 198.083 C 98.648 197.671,98.648 196.996,98.569 196.583 C 98.489 196.171,98.424 196.508,98.424 197.333 M257.417 197.038 C 256.280 197.766,255.913 198.255,256.917 197.703 C 257.681 197.282,258.880 196.356,258.667 196.350 C 258.575 196.347,258.012 196.657,257.417 197.038 M304.077 197.333 C 304.077 197.975,304.146 198.237,304.230 197.917 C 304.314 197.596,304.314 197.071,304.230 196.750 C 304.146 196.429,304.077 196.692,304.077 197.333 M9.880 198.070 C 9.768 198.490,9.695 199.583,9.719 200.500 C 9.758 202.024,9.782 201.967,10.005 199.833 C 10.261 197.377,10.220 196.800,9.880 198.070 M391.380 198.000 C 391.380 198.275,391.509 198.800,391.667 199.167 C 391.847 199.587,391.953 199.648,391.953 199.333 C 391.953 199.058,391.824 198.533,391.667 198.167 C 391.486 197.746,391.380 197.685,391.380 198.000 M302.025 200.758 L 300.216 202.833 301.800 201.333 C 303.135 200.070,304.274 198.646,303.928 198.674 C 303.876 198.679,303.019 199.616,302.025 200.758 M99.361 200.007 C 100.298 201.268,104.921 205.116,106.717 206.131 C 108.281 207.014,107.570 206.396,104.833 204.493 C 103.550 203.600,101.600 201.965,100.500 200.859 C 99.342 199.695,98.863 199.336,99.361 200.007 M251.215 201.182 C 250.363 201.832,249.667 202.445,249.667 202.543 C 249.667 202.695,251.773 201.177,252.817 200.274 C 253.705 199.505,252.562 200.153,251.215 201.182 M151.531 201.223 C 152.205 201.813,155.317 204.311,157.457 205.980 C 158.031 206.428,157.609 205.978,156.520 204.980 C 155.432 203.983,153.707 202.592,152.687 201.890 C 151.668 201.188,151.147 200.888,151.531 201.223 M391.533 202.083 C 391.419 202.862,391.477 204.024,391.662 204.664 C 392.111 206.212,392.094 212.441,391.637 213.967 C 391.395 214.775,391.380 215.566,391.592 216.339 L 391.909 217.500 391.982 215.833 C 392.157 211.830,392.052 200.667,391.839 200.667 C 391.786 200.667,391.648 201.304,391.533 202.083 M9.541 203.180 C 9.427 203.477,9.351 204.346,9.372 205.111 C 9.411 206.487,9.414 206.483,9.710 204.699 C 10.010 202.892,9.930 202.167,9.541 203.180 M246.936 204.685 C 244.753 206.647,242.089 209.883,241.131 211.736 C 240.287 213.368,240.862 212.737,242.182 210.583 C 242.884 209.438,244.805 207.188,246.451 205.583 C 249.922 202.201,250.133 201.811,246.936 204.685 M299.497 203.005 C 299.084 203.672,294.100 206.844,290.500 208.730 C 288.483 209.787,286.949 210.655,287.090 210.659 C 287.674 210.677,293.376 207.598,296.167 205.759 C 298.825 204.006,300.440 202.667,299.894 202.667 C 299.791 202.667,299.612 202.819,299.497 203.005 M159.897 208.685 C 160.429 209.336,161.207 210.424,161.626 211.101 C 162.045 211.779,162.459 212.333,162.546 212.333 C 162.885 212.333,161.436 210.187,160.215 208.877 C 159.269 207.864,159.185 207.813,159.897 208.685 M110.333 208.163 C 110.333 208.392,112.374 209.403,112.527 209.251 C 112.599 209.179,112.135 208.870,111.496 208.565 C 110.856 208.260,110.333 208.080,110.333 208.163 M282.167 212.512 C 281.333 212.913,281.305 212.959,282.000 212.790 C 282.945 212.559,284.006 212.018,283.500 212.025 C 283.317 212.028,282.717 212.247,282.167 212.512 M162.690 212.833 C 162.690 213.017,162.905 213.542,163.167 214.000 C 163.429 214.458,163.643 214.683,163.643 214.500 C 163.643 214.317,163.429 213.792,163.167 213.333 C 162.905 212.875,162.690 212.650,162.690 212.833 M9.390 213.667 C 9.385 214.125,9.509 214.800,9.667 215.167 L 9.953 215.833 9.943 215.167 C 9.938 214.800,9.813 214.125,9.667 213.667 L 9.400 212.833 9.390 213.667 M275.333 214.833 C 274.692 215.080,274.392 215.283,274.667 215.283 C 274.942 215.283,275.692 215.080,276.333 214.833 C 276.975 214.586,277.275 214.384,277.000 214.384 C 276.725 214.384,275.975 214.586,275.333 214.833 M130.167 216.000 C 131.267 216.357,132.617 216.724,133.167 216.816 C 133.717 216.908,133.267 216.691,132.167 216.334 C 131.067 215.977,129.717 215.609,129.167 215.517 C 128.617 215.425,129.067 215.642,130.167 216.000 M271.500 216.000 C 271.080 216.181,271.018 216.286,271.333 216.286 C 271.608 216.286,272.133 216.158,272.500 216.000 C 272.920 215.819,272.982 215.714,272.667 215.714 C 272.392 215.714,271.867 215.842,271.500 216.000 M164.050 217.255 C 164.011 218.098,163.756 218.492,162.917 219.004 C 162.321 219.367,162.012 219.665,162.231 219.665 C 163.186 219.668,164.394 218.165,164.246 217.159 L 164.100 216.167 164.050 217.255 M239.414 218.000 C 239.573 218.664,242.253 220.010,243.321 219.961 C 243.986 219.931,244.024 219.892,243.500 219.780 C 241.923 219.442,239.976 218.571,239.649 218.056 C 239.384 217.640,239.325 217.626,239.414 218.000 M9.893 220.167 C 9.999 221.083,10.141 221.896,10.209 221.972 C 10.444 222.235,10.267 220.166,9.984 219.333 C 9.793 218.771,9.763 219.043,9.893 220.167 M146.417 219.563 C 146.737 219.647,147.262 219.647,147.583 219.563 C 147.904 219.479,147.642 219.411,147.000 219.411 C 146.358 219.411,146.096 219.479,146.417 219.563 M254.921 219.569 C 255.335 219.649,255.935 219.646,256.254 219.562 C 256.573 219.479,256.233 219.414,255.500 219.417 C 254.767 219.421,254.506 219.489,254.921 219.569 M149.083 219.896 C 149.404 219.980,149.929 219.980,150.250 219.896 C 150.571 219.813,150.308 219.744,149.667 219.744 C 149.025 219.744,148.762 219.813,149.083 219.896 M251.917 219.902 C 252.329 219.981,253.004 219.981,253.417 219.902 C 253.829 219.822,253.492 219.757,252.667 219.757 C 251.842 219.757,251.504 219.822,251.917 219.902 M153.917 220.247 C 155.063 220.312,156.938 220.312,158.083 220.247 C 159.229 220.182,158.292 220.128,156.000 220.128 C 153.708 220.128,152.771 220.182,153.917 220.247 M246.427 220.245 C 247.303 220.314,248.653 220.313,249.427 220.244 C 250.200 220.174,249.483 220.117,247.833 220.118 C 246.183 220.119,245.550 220.177,246.427 220.245 M390.956 224.750 C 390.818 227.062,390.861 228.584,391.058 228.463 C 391.277 228.329,391.326 224.000,391.109 224.000 C 391.049 224.000,390.980 224.338,390.956 224.750 M10.023 225.750 C 10.011 226.254,10.150 226.667,10.333 226.667 C 10.725 226.667,10.725 226.410,10.333 225.500 C 10.079 224.909,10.044 224.938,10.023 225.750 M10.333 227.814 C 10.333 228.261,10.456 228.703,10.606 228.796 C 10.757 228.889,10.814 228.523,10.735 227.982 C 10.560 226.791,10.333 226.696,10.333 227.814 M390.519 230.519 C 390.393 231.187,390.357 231.801,390.438 231.883 C 390.520 231.964,390.689 231.484,390.815 230.815 C 390.940 230.146,390.976 229.532,390.895 229.450 C 390.813 229.369,390.644 229.850,390.519 230.519 M10.715 231.667 C 10.697 232.849,10.789 233.322,10.975 233.000 C 11.134 232.725,11.146 231.900,11.003 231.167 C 10.745 229.843,10.743 229.847,10.715 231.667 M390.214 233.737 C 390.101 234.157,390.022 234.800,390.038 235.167 C 390.054 235.533,390.204 235.248,390.372 234.533 C 390.697 233.148,390.558 232.450,390.214 233.737 M389.757 237.333 C 389.757 238.158,389.822 238.496,389.902 238.083 C 389.981 237.671,389.981 236.996,389.902 236.583 C 389.822 236.171,389.757 236.508,389.757 237.333 M11.582 237.083 C 11.496 237.313,11.544 237.800,11.689 238.167 C 11.904 238.710,11.957 238.632,11.977 237.750 C 12.001 236.623,11.850 236.368,11.582 237.083 M389.184 240.083 C 389.113 240.313,388.971 241.100,388.867 241.833 C 388.764 242.567,388.599 243.617,388.500 244.167 C 388.328 245.116,388.337 245.125,388.673 244.351 C 389.032 243.524,389.659 239.667,389.434 239.667 C 389.367 239.667,389.254 239.854,389.184 240.083 M12.217 242.000 C 12.433 243.607,12.947 245.196,12.972 244.333 C 12.981 244.058,12.769 243.083,12.502 242.167 L 12.016 240.500 12.217 242.000 M12.947 245.164 C 12.836 245.275,12.894 245.996,13.077 246.766 C 13.260 247.537,13.453 248.497,13.507 248.901 C 13.561 249.305,13.752 250.130,13.933 250.734 C 14.113 251.339,14.519 252.996,14.836 254.417 C 15.152 255.838,15.487 257.000,15.581 257.000 C 15.759 257.000,15.683 256.578,14.823 252.833 C 14.528 251.550,14.031 249.254,13.718 247.731 C 13.405 246.208,13.058 245.053,12.947 245.164 M195.273 245.583 C 199.732 245.636,206.932 245.636,211.273 245.583 C 215.615 245.530,211.967 245.487,203.167 245.487 C 194.367 245.488,190.815 245.531,195.273 245.583 M388.077 246.333 C 388.077 246.975,388.146 247.237,388.230 246.917 C 388.314 246.596,388.314 246.071,388.230 245.750 C 388.146 245.429,388.077 245.692,388.077 246.333 M225.000 247.771 C 225.000 247.828,225.487 248.316,226.083 248.854 L 227.167 249.833 226.188 248.750 C 225.275 247.740,225.000 247.513,225.000 247.771 M387.744 249.000 C 387.744 249.642,387.813 249.904,387.896 249.583 C 387.980 249.262,387.980 248.737,387.896 248.417 C 387.813 248.096,387.744 248.358,387.744 249.000 M387.208 250.846 C 387.094 251.144,387.013 251.638,387.029 251.944 C 387.044 252.250,387.189 252.058,387.351 251.517 C 387.665 250.465,387.554 249.944,387.208 250.846 M386.667 252.877 C 386.667 252.993,386.134 255.111,385.484 257.583 C 384.834 260.056,384.361 262.139,384.434 262.212 C 384.507 262.284,384.971 260.879,385.465 259.089 C 386.916 253.834,387.173 252.667,386.875 252.667 C 386.760 252.667,386.667 252.761,386.667 252.877 M180.139 259.167 C 180.139 262.650,180.189 264.030,180.249 262.233 C 180.309 260.436,180.308 257.586,180.248 255.899 C 180.188 254.213,180.139 255.683,180.139 259.167 M228.801 260.667 C 228.801 263.508,228.852 264.671,228.914 263.250 C 228.977 261.829,228.977 259.504,228.914 258.083 C 228.852 256.662,228.801 257.825,228.801 260.667 M15.692 257.712 C 15.678 258.012,15.886 258.762,16.154 259.378 C 16.764 260.784,16.775 259.912,16.167 258.333 C 15.920 257.692,15.706 257.412,15.692 257.712 M17.026 262.422 C 16.967 262.996,18.129 266.667,18.370 266.667 C 18.513 266.667,18.362 265.879,18.033 264.917 C 17.211 262.509,17.057 262.127,17.026 262.422 M383.903 263.386 C 383.774 263.873,383.584 264.548,383.480 264.886 C 383.376 265.224,383.535 265.079,383.833 264.564 C 384.131 264.049,384.321 263.374,384.255 263.064 C 384.172 262.668,384.067 262.764,383.903 263.386 M382.039 269.373 C 381.128 272.072,381.349 272.293,382.314 269.647 C 382.722 268.527,382.985 267.541,382.898 267.454 C 382.811 267.367,382.425 268.230,382.039 269.373 M18.667 267.845 C 18.667 268.346,20.449 273.328,20.581 273.196 C 20.751 273.027,19.030 267.667,18.806 267.667 C 18.729 267.667,18.667 267.747,18.667 267.845 M185.833 275.667 C 186.922 276.767,187.887 277.667,187.979 277.667 C 188.071 277.667,187.255 276.767,186.167 275.667 C 185.078 274.567,184.113 273.667,184.021 273.667 C 183.929 273.667,184.745 274.567,185.833 275.667 M380.167 274.667 C 380.042 275.061,380.014 275.459,380.106 275.550 C 380.197 275.642,380.375 275.394,380.500 275.000 C 380.625 274.606,380.653 274.208,380.561 274.116 C 380.469 274.025,380.292 274.272,380.167 274.667 M21.380 275.667 C 21.380 275.942,21.509 276.467,21.667 276.833 C 21.847 277.254,21.953 277.315,21.953 277.000 C 21.953 276.725,21.824 276.200,21.667 275.833 C 21.486 275.413,21.380 275.352,21.380 275.667 M379.250 277.212 C 378.929 277.844,378.673 278.542,378.680 278.764 C 378.687 278.985,378.989 278.573,379.351 277.847 C 379.713 277.122,379.970 276.424,379.921 276.296 C 379.873 276.169,379.571 276.581,379.250 277.212 M22.506 278.900 C 23.006 280.095,23.333 280.635,23.333 280.263 C 23.333 279.903,22.321 277.667,22.158 277.667 C 22.066 277.667,22.223 278.221,22.506 278.900 M377.861 280.694 C 377.555 281.458,377.383 282.161,377.478 282.256 C 377.573 282.351,377.743 282.145,377.856 281.798 C 377.968 281.451,378.222 280.829,378.420 280.417 C 378.617 280.005,378.697 279.586,378.598 279.487 C 378.498 279.387,378.167 279.931,377.861 280.694 M376.048 285.048 C 375.467 286.362,375.065 287.509,375.154 287.598 C 375.242 287.687,375.477 287.326,375.675 286.796 C 375.873 286.267,376.344 285.188,376.722 284.399 C 377.100 283.611,377.341 282.896,377.256 282.812 C 377.172 282.727,376.628 283.734,376.048 285.048 M24.680 283.616 C 24.657 284.382,27.009 289.435,27.268 289.176 C 27.340 289.105,27.164 288.623,26.877 288.106 C 26.590 287.590,25.981 286.267,25.524 285.167 C 25.068 284.067,24.688 283.369,24.680 283.616 M202.999 292.099 L 203.165 298.500 203.257 292.358 C 203.308 288.980,203.233 286.099,203.091 285.957 C 202.949 285.815,202.908 288.579,202.999 292.099 M209.815 286.094 C 209.725 286.329,209.692 289.292,209.742 292.677 L 209.833 298.833 211.147 298.941 C 211.870 299.000,212.666 299.300,212.916 299.607 C 213.315 300.099,213.326 300.075,213.007 299.417 C 212.720 298.826,212.362 298.667,211.322 298.667 L 210.000 298.667 210.000 292.361 C 210.000 287.629,210.104 286.014,210.417 285.887 C 210.743 285.756,210.741 285.714,210.406 285.693 C 210.171 285.679,209.905 285.859,209.815 286.094 M374.555 288.245 C 374.044 289.071,373.040 292.015,373.330 291.836 C 373.515 291.721,373.667 291.479,373.667 291.298 C 373.667 291.116,373.966 290.349,374.331 289.593 C 374.905 288.406,375.069 287.412,374.555 288.245 M27.333 289.737 C 27.333 290.097,28.346 292.333,28.509 292.333 C 28.601 292.333,28.444 291.779,28.160 291.100 C 27.661 289.905,27.333 289.365,27.333 289.737 M371.736 294.511 C 371.151 295.696,370.744 296.667,370.832 296.667 C 371.055 296.667,373.070 292.626,372.921 292.477 C 372.854 292.410,372.321 293.325,371.736 294.511 M28.672 292.734 C 28.661 293.223,29.453 294.667,29.732 294.667 C 30.009 294.667,29.769 294.110,29.016 293.000 C 28.830 292.725,28.675 292.605,28.672 292.734 M369.530 298.540 C 369.045 299.406,368.716 300.277,368.798 300.474 C 368.888 300.690,368.958 300.664,368.974 300.410 C 368.988 300.177,369.386 299.376,369.857 298.629 C 370.329 297.882,370.646 297.202,370.562 297.118 C 370.478 297.034,370.014 297.674,369.530 298.540 M32.672 300.398 C 32.665 300.700,34.023 303.000,34.208 303.000 C 34.286 303.000,34.127 302.587,33.854 302.083 C 33.175 300.829,32.678 300.120,32.672 300.398 M161.556 302.556 C 161.045 303.066,161.409 303.939,162.583 305.018 L 163.833 306.167 162.750 304.984 C 160.715 302.763,160.862 302.694,167.917 302.583 L 174.167 302.484 167.972 302.409 C 164.565 302.367,161.678 302.433,161.556 302.556 M234.291 302.917 C 233.887 303.431,233.895 303.452,234.359 303.090 C 234.725 302.805,236.949 302.651,241.692 302.583 L 248.500 302.485 241.624 302.409 C 235.418 302.341,234.704 302.390,234.291 302.917 M34.333 303.461 C 34.333 303.819,35.325 305.667,35.517 305.667 C 35.609 305.667,35.436 305.179,35.133 304.583 C 34.514 303.367,34.333 303.113,34.333 303.461 M215.957 304.424 C 216.098 304.565,219.204 304.640,222.857 304.590 L 229.500 304.499 222.599 304.333 C 218.804 304.241,215.815 304.282,215.957 304.424 M182.583 304.581 C 183.912 304.644,186.088 304.644,187.417 304.581 C 188.746 304.518,187.658 304.466,185.000 304.466 C 182.342 304.466,181.254 304.518,182.583 304.581 M36.442 307.327 C 36.841 308.061,37.274 308.662,37.405 308.664 C 37.678 308.667,36.409 306.419,35.992 306.162 C 35.841 306.069,36.044 306.593,36.442 307.327 M362.396 310.997 C 361.445 312.454,360.667 313.763,360.667 313.906 C 360.667 314.049,361.492 312.904,362.501 311.362 C 363.510 309.820,364.288 308.511,364.231 308.453 C 364.173 308.395,363.348 309.540,362.396 310.997 M38.667 310.963 C 38.667 311.126,38.974 311.614,39.350 312.046 L 40.033 312.833 39.508 311.750 C 38.991 310.684,38.667 310.380,38.667 310.963 M187.750 310.896 C 188.071 310.980,188.596 310.980,188.917 310.896 C 189.237 310.813,188.975 310.744,188.333 310.744 C 187.692 310.744,187.429 310.813,187.750 310.896 M221.083 310.896 C 221.404 310.980,221.929 310.980,222.250 310.896 C 222.571 310.813,222.308 310.744,221.667 310.744 C 221.025 310.744,220.762 310.813,221.083 310.896 M191.083 311.230 C 191.404 311.314,191.929 311.314,192.250 311.230 C 192.571 311.146,192.308 311.077,191.667 311.077 C 191.025 311.077,190.762 311.146,191.083 311.230 M217.587 311.236 C 218.002 311.315,218.602 311.312,218.921 311.229 C 219.239 311.146,218.900 311.080,218.167 311.084 C 217.433 311.088,217.173 311.156,217.587 311.236 M195.256 311.575 C 195.855 311.649,196.755 311.648,197.256 311.572 C 197.757 311.495,197.267 311.435,196.167 311.437 C 195.067 311.438,194.657 311.501,195.256 311.575 M212.589 311.575 C 213.188 311.649,214.088 311.648,214.589 311.572 C 215.090 311.495,214.600 311.435,213.500 311.437 C 212.400 311.438,211.990 311.501,212.589 311.575 M178.136 317.333 C 178.136 320.358,178.186 321.596,178.248 320.083 C 178.310 318.571,178.310 316.096,178.248 314.583 C 178.186 313.071,178.136 314.308,178.136 317.333 M41.941 315.833 C 44.058 319.038,45.333 320.643,45.333 320.103 C 45.333 319.920,45.018 319.484,44.632 319.135 C 44.246 318.786,43.536 317.826,43.054 317.000 C 42.572 316.175,41.996 315.275,41.773 315.000 C 40.170 313.017,40.210 313.214,41.941 315.833 M245.000 315.095 C 245.000 315.522,244.566 315.660,242.917 315.753 L 240.833 315.872 242.927 315.936 C 244.924 315.997,245.926 315.482,245.208 314.763 C 245.094 314.649,245.000 314.798,245.000 315.095 M359.693 314.867 C 359.679 315.068,359.219 315.893,358.673 316.700 C 358.126 317.507,357.676 318.315,357.673 318.496 C 357.669 318.676,358.201 318.030,358.855 317.060 C 359.508 316.090,359.970 315.117,359.881 314.898 C 359.778 314.645,359.710 314.634,359.693 314.867 M187.723 316.417 L 187.779 317.833 187.909 316.587 L 188.040 315.340 203.603 315.250 L 219.167 315.160 203.417 315.080 L 187.667 315.000 187.723 316.417 M232.797 321.667 C 232.797 324.142,232.850 325.154,232.914 323.917 C 232.978 322.679,232.978 320.654,232.914 319.417 C 232.850 318.179,232.797 319.192,232.797 321.667 M196.500 318.169 C 197.262 318.434,199.274 318.507,199.124 318.264 C 199.034 318.119,198.332 318.012,197.564 318.026 C 196.795 318.041,196.317 318.105,196.500 318.169 M210.308 319.250 L 209.500 320.167 210.500 319.333 C 211.050 318.875,211.563 318.462,211.639 318.417 C 211.715 318.371,211.629 318.333,211.447 318.333 C 211.265 318.333,210.753 318.746,210.308 319.250 M357.026 319.083 C 357.012 319.404,356.886 319.667,356.747 319.667 C 356.608 319.667,356.292 320.004,356.045 320.417 C 355.652 321.073,355.710 321.056,356.504 320.286 C 357.004 319.802,357.332 319.202,357.233 318.953 C 357.108 318.639,357.045 318.679,357.026 319.083 M207.812 322.083 L 206.833 323.167 207.917 322.188 C 208.512 321.649,209.000 321.162,209.000 321.104 C 209.000 320.847,208.725 321.074,207.812 322.083 M354.523 322.500 C 354.033 323.142,353.753 323.665,353.900 323.663 C 354.047 323.660,354.506 323.135,354.920 322.496 C 355.890 320.998,355.667 321.000,354.523 322.500 M47.000 322.937 C 47.000 323.086,47.262 323.498,47.583 323.854 C 47.904 324.209,48.600 325.137,49.129 325.917 C 49.998 327.197,50.749 327.957,50.100 326.899 C 48.384 324.104,47.000 322.335,47.000 322.937 M350.693 327.507 C 349.183 329.440,347.632 331.317,347.245 331.678 C 346.858 332.038,346.694 332.333,346.881 332.333 C 347.067 332.333,348.554 330.646,350.184 328.583 C 351.814 326.521,353.298 324.729,353.481 324.601 C 353.664 324.474,353.729 324.285,353.625 324.181 C 353.521 324.077,352.202 325.574,350.693 327.507 M50.879 328.167 C 50.985 328.442,51.180 328.667,51.312 328.667 C 51.445 328.667,52.027 329.304,52.605 330.083 C 53.798 331.689,56.416 334.637,55.457 333.293 C 53.268 330.227,50.466 327.089,50.879 328.167 M344.755 334.583 C 342.867 336.842,342.548 337.184,337.043 342.833 C 333.613 346.354,333.414 346.604,335.980 344.167 C 341.434 338.988,347.245 332.667,346.553 332.667 C 346.446 332.667,345.637 333.529,344.755 334.583 M56.636 334.923 C 56.853 335.340,57.324 335.863,57.682 336.087 C 58.040 336.311,58.338 336.645,58.344 336.830 C 58.350 337.015,58.762 337.455,59.260 337.807 L 60.167 338.446 59.333 337.491 C 57.401 335.276,56.246 334.177,56.636 334.923 M65.167 344.000 C 65.883 344.733,66.522 345.333,66.586 345.333 C 66.868 345.333,64.468 342.678,64.182 342.673 C 64.008 342.669,64.451 343.267,65.167 344.000 M67.000 345.438 C 67.000 345.495,67.487 345.983,68.083 346.521 L 69.167 347.500 68.188 346.417 C 67.275 345.407,67.000 345.180,67.000 345.438 M70.672 349.364 C 71.683 350.356,72.808 351.392,73.172 351.667 C 74.609 352.753,72.917 350.994,70.869 349.272 L 68.833 347.562 70.672 349.364 M331.000 348.879 C 329.185 350.304,328.961 350.533,329.833 350.068 C 330.559 349.681,332.937 347.692,332.667 347.697 C 332.575 347.699,331.825 348.231,331.000 348.879 M327.667 352.000 C 326.842 352.722,326.273 353.318,326.402 353.323 C 326.532 353.329,327.282 352.735,328.069 352.004 C 329.914 350.291,329.622 350.288,327.667 352.000 M78.239 356.007 C 78.829 356.626,79.368 357.065,79.437 356.983 C 79.506 356.901,79.024 356.394,78.365 355.858 L 77.167 354.882 78.239 356.007 M323.117 355.756 C 322.723 356.165,321.564 357.166,320.541 357.979 C 319.518 358.793,318.739 359.517,318.810 359.587 C 318.926 359.704,319.868 358.989,321.336 357.667 C 321.642 357.392,322.166 357.008,322.501 356.815 C 323.048 356.499,324.262 354.991,323.957 355.006 C 323.889 355.009,323.511 355.347,323.117 355.756 M80.235 357.696 C 80.456 357.972,81.356 358.691,82.235 359.293 C 83.425 360.107,83.578 360.163,82.833 359.510 C 81.382 358.237,79.767 357.109,80.235 357.696 M317.118 360.608 C 316.562 361.116,315.333 362.100,314.387 362.794 C 313.441 363.489,312.667 364.127,312.667 364.213 C 312.667 364.407,315.814 362.164,317.312 360.903 C 317.920 360.391,318.352 359.908,318.273 359.829 C 318.194 359.749,317.674 360.100,317.118 360.608 M85.028 361.417 C 85.104 361.462,85.617 361.875,86.167 362.333 L 87.167 363.167 86.359 362.250 C 85.914 361.746,85.402 361.333,85.220 361.333 C 85.038 361.333,84.951 361.371,85.028 361.417 M310.236 365.663 C 308.154 367.076,305.850 368.895,306.667 368.480 C 307.215 368.202,311.642 365.087,312.150 364.623 C 312.826 364.004,312.085 364.407,310.236 365.663 M90.538 365.479 C 90.648 365.766,90.934 366.000,91.175 366.000 C 91.415 366.000,91.661 366.118,91.722 366.262 C 91.783 366.406,92.358 366.869,93.000 367.290 L 94.167 368.055 93.167 367.177 C 91.301 365.540,90.317 364.904,90.538 365.479 M304.500 369.529 L 303.500 370.388 304.667 369.635 C 306.163 368.670,306.167 368.666,305.806 368.668 C 305.637 368.669,305.050 369.057,304.500 369.529 M97.333 369.836 C 97.333 370.094,99.689 371.756,99.840 371.604 C 99.926 371.519,99.397 371.057,98.664 370.577 C 97.932 370.098,97.333 369.764,97.333 369.836 M100.833 372.088 C 102.094 373.017,106.073 375.371,106.188 375.256 C 106.251 375.193,105.074 374.397,103.573 373.487 C 100.772 371.790,99.653 371.219,100.833 372.088 M299.583 372.524 C 298.337 373.200,298.413 373.482,299.667 372.833 C 300.217 372.549,300.667 372.245,300.667 372.158 C 300.667 371.944,300.631 371.956,299.583 372.524 M288.500 378.825 C 287.767 379.276,287.360 379.651,287.597 379.656 C 287.834 379.662,288.209 379.512,288.431 379.322 C 288.652 379.132,289.133 378.762,289.500 378.499 C 290.574 377.729,289.948 377.933,288.500 378.825 M114.000 379.483 C 114.000 379.575,114.450 379.882,115.000 380.167 C 115.550 380.451,116.000 380.609,116.000 380.517 C 116.000 380.425,115.550 380.118,115.000 379.833 C 114.450 379.549,114.000 379.391,114.000 379.483 M279.167 383.333 C 278.433 383.673,277.951 383.962,278.094 383.975 C 278.489 384.013,280.667 383.060,280.667 382.850 C 280.667 382.625,280.769 382.592,279.167 383.333 M125.180 384.951 C 125.586 385.321,127.732 386.046,127.905 385.872 C 127.977 385.800,127.321 385.498,126.448 385.200 C 125.574 384.903,125.003 384.790,125.180 384.951 M134.265 388.523 C 134.676 388.811,135.272 388.978,135.590 388.895 C 136.028 388.780,135.991 388.735,135.436 388.705 C 135.035 388.684,134.613 388.517,134.500 388.333 C 134.387 388.150,134.119 388.000,133.906 388.000 C 133.693 388.000,133.854 388.235,134.265 388.523 M146.667 392.662 C 146.942 392.842,147.529 392.992,147.972 392.995 C 149.042 393.002,148.771 392.812,147.333 392.548 C 146.513 392.398,146.315 392.431,146.667 392.662 M250.333 393.667 C 249.647 393.887,249.617 393.939,250.167 393.962 C 250.533 393.977,251.058 393.844,251.333 393.667 C 251.917 393.289,251.512 393.289,250.333 393.667 M247.500 394.333 C 247.080 394.514,247.018 394.620,247.333 394.620 C 247.608 394.620,248.133 394.491,248.500 394.333 C 248.920 394.153,248.982 394.047,248.667 394.047 C 248.392 394.047,247.867 394.176,247.500 394.333 M244.667 395.000 C 243.997 395.215,243.964 395.269,244.500 395.277 C 244.867 395.282,245.467 395.158,245.833 395.000 C 246.683 394.635,245.806 394.635,244.667 395.000 M165.000 396.985 C 165.275 397.171,165.787 397.325,166.139 397.328 C 166.992 397.335,166.726 397.144,165.500 396.870 C 164.770 396.707,164.635 396.738,165.000 396.985 M226.667 398.333 C 225.546 398.692,226.757 398.692,228.167 398.333 C 229.065 398.105,229.082 398.078,228.333 398.073 C 227.875 398.069,227.125 398.187,226.667 398.333 M184.587 399.569 C 185.002 399.649,185.602 399.646,185.921 399.562 C 186.239 399.479,185.900 399.414,185.167 399.417 C 184.433 399.421,184.173 399.489,184.587 399.569 M216.083 399.563 C 216.404 399.647,216.929 399.647,217.250 399.563 C 217.571 399.479,217.308 399.411,216.667 399.411 C 216.025 399.411,215.762 399.479,216.083 399.563 M187.421 399.906 C 187.928 399.982,188.678 399.980,189.088 399.901 C 189.498 399.822,189.083 399.760,188.167 399.762 C 187.250 399.765,186.915 399.829,187.421 399.906 M212.417 399.905 C 212.921 399.982,213.746 399.982,214.250 399.905 C 214.754 399.829,214.342 399.767,213.333 399.767 C 212.325 399.767,211.912 399.829,212.417 399.905 M198.583 400.248 C 199.912 400.311,202.088 400.311,203.417 400.248 C 204.746 400.184,203.658 400.132,201.000 400.132 C 198.342 400.132,197.254 400.184,198.583 400.248 " stroke="none" fill="#997023" fill-rule="evenodd"></path></g></svg>