<svg id="svg" version="1.1" xmlns="http://www.w3.org/2000/svg" xmlns:xlink="http://www.w3.org/1999/xlink" width="400" height="400" viewBox="0, 0, 400,400"><g id="svgg"><path id="path0" d="M163.578 13.241 C 162.849 14.604,163.253 23.883,164.112 25.480 C 164.644 26.470,164.800 27.762,164.800 31.180 C 164.800 37.314,164.939 37.200,157.480 37.200 C 153.564 37.200,151.609 37.351,151.280 37.680 C 150.917 38.043,150.800 44.036,150.800 62.200 C 150.800 80.364,150.683 86.357,150.320 86.720 C 150.003 87.037,148.273 87.202,145.220 87.205 C 138.307 87.214,138.882 86.680,138.730 93.220 C 138.567 100.153,138.964 99.749,132.080 100.000 L 126.600 100.200 126.400 111.933 C 126.159 126.059,126.831 124.800,119.538 124.800 C 114.895 124.800,114.390 124.871,114.014 125.574 C 113.736 126.093,113.600 140.289,113.600 168.760 C 113.600 210.282,113.584 211.181,112.826 211.586 C 112.346 211.843,107.825 212.000,100.906 212.000 C 87.629 212.000,88.802 211.421,88.794 217.980 C 88.786 224.841,90.121 224.165,76.115 224.400 L 64.200 224.600 64.000 230.040 C 63.740 237.121,64.042 236.798,57.651 236.806 C 50.660 236.815,51.433 234.566,51.200 255.552 C 51.090 265.443,50.851 273.684,50.668 273.867 C 50.485 274.050,47.931 274.259,44.991 274.331 C 41.274 274.421,39.518 274.617,39.222 274.973 C 38.926 275.331,38.828 292.092,38.899 330.443 L 39.000 385.400 44.600 385.400 L 50.200 385.400 50.400 379.960 C 50.662 372.847,50.315 373.200,57.035 373.200 C 63.889 373.200,63.333 374.396,62.973 360.434 L 62.686 349.325 63.632 348.663 C 64.883 347.786,73.827 347.693,74.991 348.544 C 75.647 349.024,75.841 348.964,76.633 348.044 L 77.531 347.000 137.594 346.895 C 204.238 346.778,199.464 346.591,201.194 349.390 C 202.093 350.845,202.371 357.773,201.610 359.774 L 201.220 360.800 206.730 360.800 C 213.580 360.800,213.200 360.445,213.200 366.847 C 213.200 373.750,212.710 373.200,218.869 373.200 C 225.908 373.200,225.599 372.938,225.605 378.914 C 225.614 386.185,225.107 385.600,231.398 385.600 C 235.408 385.600,236.813 385.466,237.158 385.051 C 237.493 384.647,237.542 379.829,237.342 366.851 L 237.070 349.200 231.812 349.200 C 224.193 349.200,225.000 351.434,225.000 330.332 C 225.000 320.580,225.090 312.330,225.200 312.000 C 225.371 311.488,224.547 311.384,219.600 311.293 C 212.463 311.162,212.800 311.464,212.800 305.213 C 212.800 298.237,213.903 298.800,200.226 298.800 C 190.181 298.800,188.836 298.725,188.349 298.139 C 187.920 297.623,187.771 295.024,187.666 286.239 C 187.507 272.865,188.048 274.000,181.827 274.000 C 175.207 274.000,175.435 274.218,175.266 267.733 C 175.096 261.278,175.407 261.600,169.351 261.600 C 162.697 261.600,162.800 261.703,162.800 255.049 C 162.800 248.993,163.122 249.304,156.667 249.134 C 150.182 248.965,150.400 249.193,150.400 242.573 C 150.400 236.400,150.648 236.639,144.040 236.476 C 139.951 236.376,138.906 236.229,138.500 235.700 C 137.847 234.848,137.764 175.988,138.414 174.774 C 138.789 174.073,139.293 174.000,143.725 174.000 C 150.544 174.000,150.400 174.133,150.400 167.854 C 150.400 161.239,150.169 161.482,156.653 161.275 C 163.131 161.067,162.800 161.382,162.800 155.427 C 162.800 148.258,160.612 149.000,181.748 149.000 C 195.816 149.000,199.669 149.109,200.080 149.519 C 200.432 149.871,200.665 151.765,200.800 155.388 C 201.042 161.868,200.576 161.395,206.750 161.425 C 209.545 161.438,212.005 161.556,212.216 161.687 C 212.457 161.836,212.550 159.726,212.465 156.026 C 212.288 148.355,211.853 148.800,219.529 148.800 L 225.400 148.801 225.282 137.357 C 225.181 127.505,225.252 125.781,225.791 124.957 L 226.418 124.000 237.733 124.000 C 246.164 124.000,249.216 124.127,249.710 124.500 C 250.583 125.159,250.855 147.569,250.003 148.597 C 249.600 149.082,248.400 149.200,243.851 149.200 L 238.200 149.199 238.200 155.500 L 238.200 161.800 242.600 161.534 C 250.522 161.056,250.478 161.021,250.778 168.135 L 251.000 173.400 253.600 173.516 C 261.774 173.880,275.201 174.168,275.200 173.980 C 275.199 172.941,273.791 172.800,263.400 172.800 C 250.585 172.800,251.600 173.247,251.600 167.600 C 251.600 161.944,250.527 162.400,263.831 162.400 C 277.382 162.400,276.147 163.048,276.342 155.839 C 276.432 152.486,276.648 150.494,276.942 150.306 C 277.194 150.144,282.463 150.009,288.651 150.006 C 302.187 149.999,300.927 150.678,301.200 143.241 L 301.400 137.800 306.782 137.688 C 314.465 137.528,313.600 140.783,313.600 112.027 C 313.600 82.963,314.322 86.000,307.410 86.000 C 300.679 86.000,301.200 86.466,301.200 80.446 C 301.200 76.506,301.061 75.180,300.577 74.489 L 299.955 73.600 257.751 73.600 C 229.424 73.600,215.293 73.464,214.774 73.186 C 214.078 72.813,213.999 72.301,213.986 68.086 C 213.976 64.779,213.803 63.106,213.400 62.400 C 212.986 61.676,212.824 59.943,212.814 56.129 C 212.796 49.307,213.083 49.600,206.420 49.600 C 199.978 49.600,200.302 49.940,200.018 42.861 L 199.800 37.400 193.800 37.200 L 187.800 37.000 187.600 24.800 L 187.400 12.600 175.717 12.494 C 164.151 12.389,164.030 12.396,163.578 13.241 M326.797 13.900 C 326.796 14.065,326.751 19.279,326.697 25.486 C 326.578 39.346,327.241 38.125,319.687 38.400 L 314.200 38.600 314.083 42.400 C 313.898 48.398,313.508 48.000,319.563 48.000 C 326.748 48.000,326.473 47.709,326.770 55.640 L 327.000 61.800 331.267 61.800 C 333.614 61.800,335.684 61.650,335.867 61.467 C 336.277 61.057,336.570 21.471,336.197 16.900 L 335.928 13.600 331.364 13.600 C 328.854 13.600,326.799 13.735,326.797 13.900 M186.967 37.443 C 187.524 37.656,187.600 39.066,187.600 49.166 C 187.600 63.405,186.961 62.136,194.267 62.400 L 199.800 62.600 199.911 68.106 L 200.023 73.611 198.985 74.006 C 198.393 74.231,193.150 74.400,186.774 74.400 C 178.139 74.400,175.584 74.514,175.530 74.900 C 175.492 75.175,175.447 77.709,175.430 80.531 C 175.392 86.994,175.585 86.800,169.204 86.800 C 163.307 86.800,163.600 87.139,163.600 80.310 L 163.600 74.780 164.679 74.370 C 165.272 74.145,167.801 73.990,170.298 74.027 C 172.796 74.064,174.938 73.995,175.059 73.874 C 175.181 73.753,175.255 66.005,175.225 56.656 C 175.168 38.998,175.240 37.760,176.338 37.468 C 177.375 37.193,186.261 37.172,186.967 37.443 M325.600 123.063 C 324.066 123.649,324.000 124.219,324.000 136.814 C 324.000 151.760,323.314 150.400,330.853 150.400 L 336.243 150.400 337.522 149.081 L 338.800 147.762 338.800 136.157 C 338.800 126.775,338.691 124.404,338.233 123.776 C 337.664 122.997,327.306 122.412,325.600 123.063 M337.483 125.200 C 338.127 126.476,338.220 147.242,337.586 148.426 C 337.126 149.286,326.874 149.614,325.600 148.809 C 324.666 148.219,324.481 126.346,325.399 124.946 C 326.395 123.426,336.696 123.642,337.483 125.200 M325.289 161.423 C 324.453 162.008,324.400 162.335,324.400 166.943 C 324.400 173.072,324.669 172.800,318.600 172.800 C 314.137 172.800,312.802 173.071,312.799 173.980 C 312.798 174.369,323.958 173.803,324.350 173.394 C 324.558 173.177,324.789 170.733,324.864 167.961 C 325.043 161.319,324.760 161.600,331.273 161.600 C 334.620 161.600,336.360 161.459,336.200 161.200 C 335.768 160.502,326.329 160.694,325.289 161.423 M354.100 161.096 C 355.365 161.175,357.435 161.175,358.700 161.096 C 359.965 161.016,358.930 160.951,356.400 160.951 C 353.870 160.951,352.835 161.016,354.100 161.096 M212.581 174.573 C 211.921 175.580,211.816 175.600,207.162 175.600 C 201.583 175.600,201.895 175.269,202.082 181.000 L 202.200 184.600 219.200 184.600 L 236.200 184.600 236.414 180.000 C 236.531 177.470,236.758 175.130,236.918 174.800 C 237.174 174.273,235.825 174.214,225.760 174.312 C 217.884 174.389,214.146 174.287,213.782 173.985 C 213.378 173.650,213.095 173.789,212.581 174.573 M338.688 174.800 C 338.851 175.130,339.043 177.515,339.116 180.100 L 339.247 184.800 349.981 184.800 C 362.277 184.800,361.200 185.204,361.200 180.593 C 361.200 175.607,361.192 175.600,356.099 175.600 C 352.783 175.600,351.565 175.451,350.863 174.959 C 349.540 174.032,338.236 173.884,338.688 174.800 M25.510 198.873 C 25.381 199.262,23.876 199.452,19.768 199.600 L 14.200 199.800 14.094 211.361 C 13.960 225.961,13.417 224.800,20.381 224.800 C 27.078 224.800,26.800 225.076,26.800 218.420 C 26.800 211.691,25.631 212.248,38.889 212.660 L 49.800 213.000 49.914 217.594 C 50.072 223.954,50.800 224.353,50.800 218.080 C 50.800 211.508,50.893 211.600,44.249 211.600 C 38.045 211.600,38.323 211.889,38.081 205.184 C 37.855 198.933,38.204 199.281,31.988 199.117 C 29.245 199.045,26.704 198.842,26.342 198.666 C 25.918 198.461,25.622 198.534,25.510 198.873 M316.117 311.097 C 317.611 311.174,319.951 311.174,321.317 311.096 C 322.682 311.018,321.460 310.955,318.600 310.955 C 315.740 310.956,314.622 311.020,316.117 311.097 M301.778 374.913 C 301.664 375.209,301.623 377.420,301.686 379.826 L 301.800 384.200 306.512 384.313 L 311.225 384.426 311.112 379.513 L 311.000 374.600 306.493 374.487 C 303.002 374.399,301.938 374.495,301.778 374.913 " stroke="none" fill="#e5a536" fill-rule="evenodd"></path><path id="path1" d="M163.289 5.700 L 163.400 11.400 175.373 11.506 C 189.404 11.630,187.986 12.328,187.994 5.300 L 188.000 0.000 175.589 0.000 L 163.178 0.000 163.289 5.700 M325.289 5.900 L 325.400 11.800 330.973 11.912 C 334.248 11.977,336.764 12.204,337.073 12.461 C 337.500 12.815,337.600 18.563,337.600 42.849 C 337.600 78.551,336.705 74.476,344.512 74.312 L 349.800 74.200 349.902 37.100 L 350.004 0.000 337.591 0.000 L 325.179 0.000 325.289 5.900 M151.694 12.398 L 150.788 12.779 150.894 24.489 L 151.000 36.200 156.345 36.312 C 160.033 36.389,161.867 36.277,162.262 35.949 C 162.906 35.414,162.912 13.178,162.268 12.533 C 161.793 12.057,152.778 11.943,151.694 12.398 M189.100 12.415 C 188.149 12.992,188.013 35.181,188.955 35.963 C 189.329 36.273,191.256 36.387,194.855 36.312 L 200.200 36.200 200.297 24.800 C 200.355 18.062,200.238 13.155,200.013 12.800 C 199.539 12.056,190.233 11.727,189.100 12.415 M313.900 12.260 C 312.830 12.564,312.767 13.375,312.888 25.400 L 313.000 36.600 318.400 36.700 C 321.370 36.755,324.070 36.627,324.400 36.415 C 325.120 35.953,325.512 13.870,324.819 12.800 C 324.430 12.199,315.646 11.765,313.900 12.260 M138.584 37.700 C 138.479 37.975,138.439 49.000,138.496 62.200 L 138.600 86.200 143.744 86.312 C 147.196 86.388,149.071 86.273,149.444 85.963 C 149.907 85.579,150.000 81.477,150.000 61.351 L 150.000 37.200 144.387 37.200 C 140.266 37.200,138.724 37.333,138.584 37.700 M201.043 37.833 C 200.568 39.070,200.779 47.419,201.304 48.136 C 201.745 48.739,202.478 48.811,207.204 48.712 L 212.600 48.600 212.712 43.456 C 212.788 40.004,212.673 38.129,212.363 37.756 C 211.642 36.886,201.379 36.956,201.043 37.833 M300.667 37.467 C 300.520 37.613,300.400 40.023,300.400 42.822 C 300.400 47.079,300.286 48.050,299.700 48.760 L 299.000 49.609 256.400 49.704 L 213.800 49.800 213.689 55.506 L 213.578 61.211 214.630 61.611 C 216.354 62.267,323.817 61.943,324.480 61.280 C 325.283 60.476,325.213 50.505,324.400 49.992 C 324.070 49.783,321.527 49.609,318.749 49.606 C 312.331 49.598,312.641 49.937,312.462 42.739 L 312.323 37.200 306.628 37.200 C 303.496 37.200,300.813 37.320,300.667 37.467 M350.243 75.033 C 349.906 75.912,350.015 121.567,350.357 122.800 L 350.635 123.800 356.518 123.911 L 362.400 124.021 362.400 99.691 C 362.400 81.300,362.283 75.243,361.920 74.880 C 361.121 74.081,350.555 74.220,350.243 75.033 M126.576 87.367 C 125.662 88.035,125.203 95.721,125.960 97.700 L 126.380 98.800 131.357 98.800 C 134.095 98.800,136.619 98.691,136.967 98.557 C 137.913 98.194,137.913 87.406,136.967 87.043 C 135.619 86.526,127.376 86.783,126.576 87.367 M114.800 99.478 C 113.285 100.019,113.200 100.677,113.206 111.776 C 113.209 117.729,113.358 122.830,113.537 123.112 C 113.781 123.496,115.244 123.596,119.431 123.512 L 125.000 123.400 125.106 111.548 L 125.212 99.696 124.306 99.454 C 123.205 99.159,115.639 99.178,114.800 99.478 M101.220 125.163 C 100.936 125.694,100.798 137.556,100.794 161.874 C 100.790 183.787,100.640 198.034,100.409 198.400 C 100.091 198.904,98.120 199.032,88.115 199.200 L 76.200 199.400 76.088 204.973 C 75.948 211.974,76.284 211.600,70.125 211.600 C 63.263 211.600,63.600 211.281,63.600 217.771 C 63.600 224.278,62.181 223.600,75.804 223.600 C 89.136 223.600,88.000 224.191,88.000 217.251 C 88.000 210.615,86.854 211.200,99.854 211.200 C 105.977 211.200,111.198 211.029,111.776 210.809 L 112.804 210.418 112.702 167.509 L 112.600 124.600 107.120 124.489 C 102.023 124.385,101.611 124.433,101.220 125.163 M362.896 142.700 L 363.000 161.000 368.900 161.111 L 374.800 161.221 374.800 143.053 C 374.800 126.856,374.731 124.859,374.167 124.643 C 373.819 124.509,371.117 124.400,368.163 124.400 L 362.792 124.400 362.896 142.700 M338.157 150.209 C 337.391 151.378,337.692 172.125,338.489 173.100 C 339.145 173.902,348.552 173.791,349.371 172.971 C 350.440 171.903,350.305 150.191,349.226 149.614 C 347.415 148.645,338.881 149.104,338.157 150.209 M214.000 149.994 C 213.262 150.464,213.333 172.196,214.075 173.091 C 214.548 173.660,235.794 173.846,236.670 173.289 C 237.542 172.734,237.879 151.136,237.029 150.286 C 236.244 149.502,215.193 149.235,214.000 149.994 M375.680 162.080 C 374.870 162.890,375.027 172.559,375.861 173.251 C 376.607 173.869,386.472 174.060,387.067 173.468 C 387.903 172.634,387.705 163.305,386.832 162.432 C 385.843 161.443,376.609 161.151,375.680 162.080 M27.200 174.292 C 26.137 174.696,26.012 175.317,26.006 180.251 C 26.002 183.868,26.139 185.217,26.546 185.555 C 26.939 185.881,32.123 185.979,45.046 185.904 L 63.000 185.800 63.111 180.294 L 63.223 174.789 62.185 174.394 C 61.089 173.978,28.278 173.881,27.200 174.292 M276.700 174.432 C 275.697 175.016,275.635 185.374,276.633 185.757 C 276.981 185.891,279.376 186.000,281.956 186.000 C 288.458 186.000,288.200 185.719,288.200 192.800 C 288.200 200.263,289.469 199.600,275.186 199.600 C 261.220 199.600,262.400 200.195,262.400 193.149 C 262.400 189.802,262.242 188.002,261.920 187.680 C 261.256 187.016,251.944 187.016,251.280 187.680 C 250.590 188.370,250.590 222.030,251.280 222.720 C 251.597 223.037,253.327 223.202,256.380 223.206 C 259.297 223.210,261.369 223.398,262.000 223.717 L 263.000 224.223 263.200 235.926 C 263.434 249.644,262.830 248.388,269.200 248.388 C 275.662 248.388,274.967 250.517,275.200 230.000 C 275.371 214.913,275.487 212.316,276.000 211.991 C 276.354 211.768,283.859 211.610,294.310 211.606 L 312.020 211.600 312.410 212.626 C 312.641 213.233,312.800 220.434,312.800 230.252 C 312.800 250.266,312.213 248.402,318.514 248.394 C 325.215 248.385,324.565 249.675,324.800 235.926 L 325.000 224.223 326.000 223.717 C 326.640 223.394,328.749 223.210,331.857 223.206 C 335.914 223.201,336.754 223.096,336.957 222.567 C 337.453 221.274,337.228 188.188,336.720 187.680 C 336.400 187.360,334.631 187.200,331.400 187.200 C 325.317 187.200,325.600 186.906,325.600 193.218 C 325.600 200.181,326.778 199.600,312.669 199.600 C 298.470 199.600,299.600 200.180,299.600 192.889 C 299.600 185.819,299.437 186.000,305.790 186.000 C 312.540 186.000,312.000 186.507,312.000 180.171 C 312.000 175.298,311.932 174.792,311.226 174.414 C 310.177 173.853,277.666 173.870,276.700 174.432 M388.300 174.432 C 387.342 174.990,387.200 235.170,388.155 235.963 C 388.530 236.274,390.507 236.387,394.255 236.312 L 399.800 236.200 399.903 205.425 C 399.984 181.070,399.900 174.584,399.503 174.331 C 398.769 173.866,389.124 173.952,388.300 174.432 M13.792 187.700 C 13.669 188.195,13.620 190.760,13.684 193.400 L 13.800 198.200 19.306 198.311 L 24.811 198.423 25.206 197.385 C 25.634 196.258,25.739 189.158,25.348 187.700 C 25.112 186.822,24.974 186.800,19.561 186.800 C 14.143 186.800,14.010 186.821,13.792 187.700 M64.000 192.581 C 64.000 199.451,63.396 198.890,70.600 198.716 L 75.400 198.600 75.400 192.800 L 75.400 187.000 69.700 186.889 L 64.000 186.778 64.000 192.581 M1.183 200.246 C 0.466 202.129,0.868 260.346,1.600 260.809 C 1.930 261.017,4.672 261.191,7.692 261.194 L 13.185 261.200 13.453 260.133 C 13.759 258.912,13.251 200.599,12.927 199.754 C 12.760 199.319,11.521 199.200,7.147 199.200 L 1.580 199.200 1.183 200.246 M52.400 224.278 C 51.068 224.754,50.800 225.728,50.800 230.103 C 50.800 236.235,50.563 236.000,56.734 236.000 C 63.139 236.000,62.800 236.348,62.800 229.767 C 62.800 224.636,62.776 224.487,61.900 224.252 C 60.804 223.958,53.236 223.979,52.400 224.278 M39.289 237.023 L 38.400 237.645 38.400 254.790 C 38.400 264.219,38.509 272.219,38.643 272.567 C 39.006 273.513,49.794 273.513,50.157 272.567 C 50.784 270.933,50.415 236.891,49.767 236.643 C 48.330 236.091,40.198 236.386,39.289 237.023 M375.637 237.355 C 375.327 237.729,375.213 239.656,375.288 243.255 L 375.400 248.600 380.842 248.711 C 385.535 248.807,386.361 248.729,386.842 248.151 C 387.461 247.406,387.860 240.513,387.420 238.168 L 387.164 236.800 381.631 236.800 C 377.398 236.800,375.990 236.931,375.637 237.355 M282.000 249.157 L 276.200 249.400 276.200 255.000 L 276.200 260.600 294.000 260.600 L 311.800 260.600 311.912 255.232 C 311.974 252.280,311.884 249.730,311.712 249.566 C 311.287 249.160,289.190 248.856,282.000 249.157 M363.237 249.755 C 362.927 250.129,362.813 252.056,362.888 255.655 L 363.000 261.000 368.345 261.112 C 375.203 261.256,374.800 261.653,374.800 254.751 L 374.800 249.200 369.249 249.200 C 365.001 249.200,363.590 249.330,363.237 249.755 M13.600 267.151 C 13.600 274.067,13.168 273.654,20.255 273.512 L 25.800 273.400 25.912 268.296 C 26.067 261.211,26.447 261.600,19.386 261.600 L 13.600 261.600 13.600 267.151 M350.846 262.144 C 350.525 262.532,350.412 264.399,350.488 268.055 L 350.600 273.400 356.042 273.511 C 362.840 273.649,362.456 274.039,362.312 267.145 L 362.200 261.800 356.758 261.689 C 352.451 261.601,351.218 261.696,350.846 262.144 M26.000 335.561 C 26.000 391.011,26.063 397.205,26.629 397.771 C 27.170 398.313,28.803 398.400,38.400 398.400 C 51.938 398.400,50.800 398.964,50.800 392.251 C 50.800 386.097,51.121 386.402,44.620 386.394 C 41.749 386.391,39.130 386.217,38.800 386.008 C 38.273 385.675,38.176 378.857,38.000 329.915 L 37.800 274.200 31.900 274.089 L 26.000 273.979 26.000 335.561 M338.491 274.469 C 338.125 274.835,338.000 277.952,338.000 286.662 L 338.000 298.364 339.363 298.619 C 341.930 299.101,349.191 298.662,349.612 298.000 C 349.839 297.645,349.955 292.667,349.897 285.800 L 349.800 274.200 344.391 274.089 C 340.523 274.010,338.842 274.118,338.491 274.469 M326.677 299.080 C 325.257 299.448,325.200 300.925,325.200 337.179 L 325.200 373.107 326.100 373.348 C 328.111 373.887,335.796 373.618,336.711 372.977 L 337.600 372.355 337.600 335.991 C 337.600 300.449,337.583 299.619,336.826 299.214 C 336.073 298.811,328.121 298.706,326.677 299.080 M226.671 312.100 C 226.044 312.560,225.998 314.009,226.095 330.200 L 226.200 347.800 231.700 347.911 L 237.200 348.023 237.200 330.225 C 237.200 313.039,237.173 312.414,236.426 312.014 C 235.303 311.413,227.514 311.481,226.671 312.100 M300.845 312.146 C 300.519 312.539,300.421 317.671,300.496 330.446 L 300.600 348.200 306.197 348.312 C 311.110 348.410,311.855 348.340,312.297 347.735 C 312.948 346.845,313.032 313.580,312.386 312.374 C 311.853 311.378,301.649 311.177,300.845 312.146 M288.700 349.232 C 288.092 349.586,288.000 350.300,288.000 354.646 C 288.000 361.504,288.270 361.200,282.160 361.200 C 275.234 361.200,275.600 360.842,275.600 367.614 C 275.600 370.686,275.645 373.223,275.700 373.250 C 275.755 373.278,278.410 373.413,281.600 373.550 L 287.400 373.800 287.600 385.439 C 287.755 394.486,287.922 397.226,288.349 397.739 C 289.165 398.721,323.591 398.752,324.571 397.771 C 325.114 397.228,325.200 395.539,325.200 385.371 L 325.200 373.600 319.480 373.600 C 312.404 373.600,312.800 373.250,312.800 379.506 C 312.800 386.357,313.152 386.000,306.400 386.000 C 301.310 386.000,300.792 385.933,300.416 385.230 C 300.140 384.714,300.091 378.871,300.266 367.523 C 300.463 354.730,300.411 350.367,300.050 349.693 C 299.520 348.704,290.253 348.328,288.700 349.232 M64.002 349.996 C 63.268 351.368,63.634 372.725,64.400 373.209 C 64.754 373.432,72.156 373.590,82.420 373.594 C 95.429 373.598,99.962 373.722,100.320 374.080 C 100.671 374.431,100.800 377.603,100.800 385.851 C 100.800 395.583,100.887 397.230,101.429 397.771 C 102.248 398.591,124.310 398.730,125.120 397.920 C 125.447 397.593,125.600 395.687,125.600 391.950 L 125.600 386.459 119.785 386.330 C 112.750 386.173,113.214 386.653,113.206 379.514 C 113.199 372.857,112.843 373.200,119.751 373.200 C 126.188 373.200,126.000 372.988,126.000 380.246 C 126.000 386.475,125.516 386.000,131.859 386.000 C 138.254 386.000,138.000 386.242,138.000 380.160 C 138.000 377.403,138.186 374.799,138.414 374.374 C 138.819 373.618,139.647 373.600,174.714 373.595 C 194.451 373.592,211.010 373.479,211.511 373.345 C 212.411 373.104,212.420 373.035,212.311 367.451 L 212.200 361.800 144.320 361.600 C 89.437 361.438,76.340 361.301,75.920 360.881 C 75.566 360.528,75.336 358.613,75.200 354.881 L 75.000 349.400 69.720 349.289 C 64.750 349.184,64.415 349.225,64.002 349.996 M238.667 349.467 C 238.520 349.613,238.400 357.583,238.400 367.178 C 238.400 388.454,239.083 386.400,232.010 386.400 C 225.036 386.400,225.600 385.893,225.600 392.163 C 225.600 399.024,224.374 398.400,237.851 398.400 C 251.589 398.400,250.400 399.002,250.400 392.051 C 250.400 385.406,249.197 386.000,262.651 386.000 C 276.420 386.000,275.200 386.640,275.200 379.418 C 275.200 372.935,276.724 373.613,262.124 373.605 C 253.547 373.601,250.770 373.480,250.524 373.100 C 250.346 372.825,250.110 367.560,250.000 361.400 C 249.890 355.240,249.654 349.975,249.476 349.700 C 249.130 349.165,239.183 348.950,238.667 349.467 M51.620 374.763 C 51.021 375.882,51.071 384.911,51.680 385.520 C 52.358 386.198,61.603 386.178,62.536 385.496 C 63.139 385.055,63.211 384.322,63.112 379.596 L 63.000 374.200 57.520 374.089 C 52.423 373.985,52.011 374.033,51.620 374.763 M213.467 374.267 C 212.734 374.999,213.189 385.166,213.974 385.586 C 214.942 386.104,223.587 386.123,224.400 385.608 C 225.047 385.200,225.306 376.146,224.713 374.700 C 224.418 373.982,214.147 373.586,213.467 374.267 " stroke="none" fill="#080809" fill-rule="evenodd"></path><path id="path2" d="M225.823 124.889 C 224.992 126.075,224.879 147.345,225.700 147.876 C 226.183 148.189,232.685 148.599,244.034 149.033 C 248.640 149.209,249.547 149.146,249.986 148.617 C 250.854 147.571,250.598 125.170,249.710 124.500 C 248.334 123.462,226.574 123.817,225.823 124.889 M325.877 125.056 C 325.359 125.574,325.552 147.792,326.080 148.320 C 326.800 149.040,336.152 148.980,336.757 148.251 C 337.080 147.863,337.182 144.392,337.106 136.351 L 337.000 125.000 331.577 124.889 C 328.595 124.828,326.030 124.903,325.877 125.056 M164.400 149.071 C 163.037 149.573,162.800 150.513,162.800 155.427 C 162.800 161.382,163.131 161.067,156.653 161.275 C 150.169 161.482,150.400 161.239,150.400 167.854 C 150.400 174.133,150.544 174.000,143.725 174.000 C 139.293 174.000,138.789 174.073,138.414 174.774 C 137.764 175.988,137.847 234.848,138.500 235.700 C 138.906 236.229,139.951 236.376,144.040 236.476 C 150.648 236.639,150.400 236.400,150.400 242.573 C 150.400 249.193,150.182 248.965,156.667 249.134 C 163.122 249.304,162.800 248.993,162.800 255.049 C 162.800 261.703,162.697 261.600,169.351 261.600 C 175.407 261.600,175.096 261.278,175.266 267.733 C 175.435 274.218,175.207 274.000,181.827 274.000 C 188.048 274.000,187.507 272.865,187.666 286.239 C 187.771 295.024,187.920 297.623,188.349 298.139 C 188.836 298.725,190.181 298.800,200.226 298.800 C 213.903 298.800,212.800 298.237,212.800 305.213 C 212.800 311.589,212.458 311.297,219.611 311.019 C 237.666 310.317,237.433 310.317,238.035 311.042 C 238.496 311.597,238.637 315.007,238.800 329.561 L 239.000 347.400 244.533 347.600 C 251.505 347.852,251.200 347.537,251.200 354.503 C 251.200 361.877,250.030 361.200,262.770 361.200 C 276.347 361.200,275.322 361.748,275.600 354.336 L 275.800 349.000 281.137 348.800 C 288.729 348.515,288.000 350.572,288.000 329.436 C 288.000 316.532,288.121 312.039,288.480 311.680 C 288.801 311.359,290.583 311.200,293.864 311.200 C 300.397 311.200,300.400 311.197,300.400 304.898 C 300.400 298.081,302.563 298.800,282.062 298.800 C 260.892 298.800,263.068 299.552,262.800 292.150 C 262.556 285.421,263.985 286.092,249.780 286.040 C 241.944 286.011,238.828 285.868,238.480 285.520 C 237.769 284.809,237.817 275.050,238.535 274.454 C 238.920 274.135,252.799 273.980,287.768 273.905 C 335.448 273.802,336.476 273.784,337.032 273.024 C 337.439 272.467,337.600 271.030,337.600 267.950 C 337.600 261.401,337.331 261.690,343.565 261.532 C 350.389 261.359,350.161 261.583,350.324 254.887 C 350.478 248.537,350.205 248.800,356.654 248.800 C 362.933 248.800,362.800 248.944,362.800 242.125 C 362.800 236.173,362.556 236.400,368.974 236.400 C 375.974 236.400,375.200 240.270,375.200 205.275 C 375.200 175.893,375.196 175.747,374.365 174.855 C 373.443 173.865,375.107 173.888,357.100 174.620 C 350.508 174.888,349.715 175.600,356.010 175.600 C 361.206 175.600,361.200 175.595,361.200 180.593 C 361.200 185.204,362.281 184.800,349.957 184.800 L 339.200 184.800 339.197 180.300 L 339.194 175.800 337.542 174.856 L 335.889 173.912 325.245 174.201 C 319.142 174.367,314.387 174.663,314.100 174.894 C 313.747 175.179,313.600 176.801,313.600 180.405 C 313.600 187.482,313.738 187.338,306.736 187.600 L 301.400 187.800 301.400 192.800 L 301.400 197.800 312.572 197.906 C 325.648 198.031,324.386 198.651,324.394 192.100 C 324.402 185.413,324.191 185.600,331.720 185.600 C 335.636 185.600,337.591 185.751,337.920 186.080 C 338.279 186.439,338.400 191.195,338.400 205.018 C 338.400 227.064,339.138 224.800,331.949 224.800 C 325.428 224.800,326.000 223.647,326.000 236.791 C 326.000 250.627,326.485 249.600,319.951 249.600 C 313.329 249.600,313.600 249.354,313.600 255.370 C 313.600 259.639,313.496 260.440,312.835 261.256 L 312.071 262.200 294.000 262.200 L 275.929 262.200 275.165 261.256 C 274.504 260.440,274.400 259.639,274.400 255.370 C 274.400 249.357,274.666 249.600,268.088 249.600 C 261.476 249.600,262.000 250.688,262.000 236.949 C 262.000 223.616,262.587 224.800,255.982 224.800 C 248.884 224.800,249.600 227.010,249.600 205.091 L 249.600 186.845 250.489 186.223 C 251.183 185.736,252.521 185.600,256.600 185.600 C 263.814 185.600,263.598 185.405,263.606 191.923 C 263.614 198.679,262.334 198.031,275.428 197.906 L 286.600 197.800 286.600 192.800 L 286.600 187.800 281.264 187.600 C 274.266 187.338,274.400 187.477,274.400 180.436 C 274.400 173.814,275.568 174.400,262.382 174.400 C 248.821 174.400,250.000 175.058,250.000 167.492 C 250.000 160.964,250.389 161.365,244.213 161.521 C 238.404 161.667,239.039 160.899,238.800 168.070 C 238.602 174.021,238.590 174.085,237.515 174.942 C 236.467 175.776,236.425 175.962,236.315 180.203 L 236.200 184.600 219.200 184.600 L 202.200 184.600 202.082 181.000 C 201.896 175.295,201.565 175.644,207.295 175.512 L 212.181 175.400 212.058 168.800 C 211.910 160.909,212.292 161.409,206.418 161.404 C 200.622 161.399,201.042 161.848,200.800 155.388 C 200.665 151.767,200.432 149.871,200.080 149.519 C 199.548 148.988,165.780 148.564,164.400 149.071 M26.977 188.117 C 26.866 188.406,26.826 190.973,26.887 193.821 L 27.000 199.000 31.975 199.113 C 38.193 199.254,37.855 198.916,38.082 205.206 C 38.309 211.498,37.784 210.972,44.000 211.131 C 51.011 211.310,50.687 211.585,50.861 205.308 C 51.041 198.778,50.647 199.200,56.575 199.200 C 62.747 199.200,62.456 199.518,62.312 192.944 L 62.200 187.800 44.689 187.696 C 30.525 187.611,27.140 187.692,26.977 188.117 M78.000 347.158 L 77.000 347.436 77.000 353.618 L 77.000 359.800 138.724 359.901 C 180.816 359.970,200.695 359.870,201.224 359.587 C 203.619 358.305,201.906 348.806,199.033 347.443 C 197.606 346.765,80.403 346.489,78.000 347.158 " stroke="none" fill="#faf4e8" fill-rule="evenodd"></path><path id="path3" d="M162.800 11.320 C 162.800 11.745,162.462 12.017,161.900 12.046 C 161.290 12.078,161.212 12.149,161.659 12.268 C 162.698 12.544,162.789 13.549,162.795 24.820 C 162.799 32.553,162.670 35.570,162.320 35.920 C 161.654 36.586,151.546 36.586,150.880 35.920 C 150.507 35.547,150.400 35.591,150.400 36.120 C 150.400 36.545,150.062 36.817,149.500 36.846 C 148.823 36.881,148.773 36.938,149.300 37.076 C 150.258 37.326,150.400 85.170,149.444 85.963 C 149.071 86.273,147.196 86.388,143.744 86.312 L 138.600 86.200 138.395 62.600 L 138.190 39.000 138.095 62.680 C 138.006 84.752,137.952 86.388,137.300 86.768 C 136.912 86.994,136.823 87.181,137.100 87.188 C 137.932 87.208,137.803 98.236,136.967 98.557 C 134.981 99.320,126.376 98.803,126.012 97.900 L 125.651 97.000 125.625 97.913 C 125.610 98.471,125.250 98.966,124.700 99.188 C 124.001 99.468,123.958 99.555,124.506 99.575 C 125.167 99.598,125.205 100.363,125.106 111.500 L 125.000 123.400 119.300 123.511 C 114.888 123.597,113.597 123.506,113.588 123.111 C 113.581 122.812,113.406 122.891,113.168 123.300 C 112.944 123.685,112.454 124.005,112.080 124.012 C 111.452 124.023,111.454 124.056,112.100 124.432 C 112.760 124.816,112.800 127.299,112.800 167.630 L 112.800 210.420 111.774 210.810 C 111.198 211.029,105.964 211.200,99.854 211.200 C 86.854 211.200,88.000 210.615,88.000 217.251 C 88.000 224.191,89.136 223.600,75.804 223.600 C 62.181 223.600,63.600 224.278,63.600 217.771 C 63.600 211.283,63.267 211.600,70.094 211.600 C 76.334 211.600,76.000 211.965,76.000 205.140 C 76.000 200.324,76.087 199.589,76.700 199.232 C 77.367 198.844,77.367 198.824,76.700 198.812 C 76.077 198.801,75.991 198.264,75.920 193.900 L 75.839 189.000 75.620 193.800 L 75.400 198.600 70.600 198.716 C 63.397 198.890,64.000 199.448,64.000 192.604 L 64.000 186.824 69.001 186.693 L 74.001 186.563 68.901 186.581 L 63.800 186.600 63.689 192.345 C 63.548 199.607,63.137 199.151,69.940 199.289 L 75.400 199.400 75.512 204.745 C 75.654 211.551,75.969 211.200,69.725 211.200 C 62.900 211.200,63.200 210.931,63.200 217.040 C 63.200 223.941,63.521 223.600,57.030 223.600 C 49.901 223.600,50.043 223.720,49.904 217.600 L 49.800 213.000 38.889 212.660 C 25.631 212.248,26.800 211.691,26.800 218.420 C 26.800 225.076,27.078 224.800,20.381 224.800 C 13.417 224.800,13.960 225.961,14.094 211.361 L 14.200 199.800 19.716 199.600 C 26.400 199.358,25.986 199.809,25.994 192.749 C 26.001 185.989,26.339 186.338,19.944 186.501 L 15.000 186.627 20.053 186.714 C 24.922 186.797,25.116 186.833,25.348 187.700 C 25.737 189.151,25.635 196.255,25.210 197.374 L 24.820 198.400 19.490 198.400 C 15.878 198.400,14.005 198.245,13.680 197.920 C 13.307 197.547,13.200 197.591,13.200 198.120 C 13.200 198.545,12.862 198.817,12.300 198.846 C 11.678 198.878,11.606 198.947,12.066 199.069 C 13.145 199.355,13.133 199.080,13.433 230.271 C 13.704 258.315,13.678 260.265,13.032 260.910 C 12.653 261.290,12.523 261.600,12.742 261.600 C 12.962 261.600,13.224 261.915,13.324 262.300 C 13.498 262.967,13.509 262.967,13.554 262.300 C 13.628 261.173,24.980 261.242,25.586 262.374 C 26.497 264.077,26.103 273.185,25.100 273.588 C 24.410 273.865,24.364 273.955,24.900 273.975 C 25.285 273.989,25.603 274.225,25.606 274.500 C 25.611 274.891,25.683 274.888,25.937 274.489 C 26.181 274.103,27.683 274.005,32.031 274.089 L 37.800 274.200 38.000 329.915 C 38.176 378.857,38.273 385.675,38.800 386.008 C 39.130 386.217,41.749 386.391,44.620 386.394 C 47.516 386.397,50.016 386.576,50.235 386.795 C 50.495 387.055,50.859 386.924,51.299 386.409 C 51.685 385.959,51.806 385.527,51.584 385.390 C 50.980 385.017,51.099 375.492,51.718 374.645 C 52.180 374.013,52.851 373.951,57.918 374.068 C 61.044 374.141,63.601 374.065,63.601 373.900 C 63.600 373.735,63.915 373.597,64.300 373.594 C 64.897 373.589,64.911 373.532,64.400 373.209 C 63.634 372.725,63.268 351.368,64.002 349.996 C 64.415 349.225,64.750 349.184,69.720 349.289 L 75.000 349.400 75.200 354.881 C 75.336 358.613,75.566 360.528,75.920 360.881 C 76.340 361.301,89.437 361.438,144.320 361.600 L 212.200 361.800 212.311 367.500 C 212.413 372.729,212.363 373.202,211.711 373.225 C 211.153 373.245,211.194 373.329,211.900 373.612 C 212.755 373.956,212.804 374.209,212.880 378.687 L 212.960 383.400 213.180 378.800 L 213.400 374.200 218.908 374.089 C 223.873 373.988,224.445 374.047,224.708 374.689 C 225.305 376.144,225.049 385.198,224.400 385.608 C 223.889 385.932,223.903 385.989,224.500 385.994 C 224.885 385.997,225.200 386.276,225.200 386.614 C 225.200 387.097,225.365 387.140,225.974 386.814 C 226.399 386.586,229.077 386.400,231.925 386.400 C 238.888 386.400,238.161 388.552,238.400 367.239 L 238.600 349.400 243.905 349.288 L 249.211 349.177 249.605 350.214 C 249.823 350.786,250.018 355.780,250.040 361.326 C 250.062 366.867,250.205 371.850,250.357 372.400 L 250.635 373.400 263.018 373.600 C 269.828 373.710,275.850 373.680,276.400 373.534 C 277.343 373.284,277.349 373.267,276.500 373.234 C 275.611 373.200,275.600 373.130,275.600 367.614 C 275.600 360.842,275.234 361.200,282.160 361.200 C 288.271 361.200,288.000 361.504,288.000 354.640 C 288.000 348.529,287.696 348.800,294.560 348.800 C 301.183 348.800,300.585 346.838,300.266 367.523 C 300.091 378.871,300.140 384.714,300.416 385.230 C 300.792 385.933,301.310 386.000,306.400 386.000 C 313.152 386.000,312.800 386.357,312.800 379.506 C 312.800 376.193,312.958 374.402,313.280 374.080 C 313.924 373.436,325.067 373.402,325.281 374.044 C 325.374 374.322,325.629 374.247,325.964 373.844 C 326.418 373.297,326.400 373.200,325.843 373.200 C 324.956 373.200,325.031 300.409,325.919 299.520 C 326.547 298.890,335.545 298.541,336.665 299.103 C 337.155 299.349,337.734 299.295,338.400 298.942 C 339.142 298.549,339.219 298.410,338.700 298.406 C 337.731 298.398,337.609 275.223,338.574 274.422 C 338.970 274.093,340.907 273.973,344.835 274.034 L 350.522 274.122 350.434 268.435 C 350.373 264.507,350.493 262.570,350.822 262.174 C 351.599 261.238,361.814 261.349,362.368 262.300 C 362.881 263.181,362.877 263.232,362.802 255.874 C 362.730 248.777,362.321 249.200,369.249 249.200 L 374.800 249.200 374.800 254.067 C 374.800 256.743,374.896 258.837,375.013 258.720 C 375.130 258.603,375.224 253.862,375.222 248.184 C 375.220 241.261,375.363 237.685,375.658 237.330 C 376.412 236.421,387.198 236.580,387.206 237.500 C 387.210 238.020,387.349 237.943,387.744 237.200 C 388.040 236.644,388.126 236.031,387.938 235.820 C 387.179 234.967,387.534 174.878,388.300 174.432 C 388.967 174.044,388.967 174.024,388.300 174.012 C 387.859 174.004,387.583 173.668,387.554 173.100 C 387.520 172.444,387.458 172.386,387.327 172.887 C 386.987 174.181,377.347 174.487,375.860 173.251 C 375.027 172.558,374.871 162.889,375.680 162.080 C 376.053 161.707,376.053 161.600,375.680 161.600 C 375.315 161.600,375.177 157.391,375.104 144.100 L 375.009 126.600 374.900 143.911 L 374.791 161.221 368.896 161.111 L 363.000 161.000 362.896 142.700 C 362.799 125.697,362.840 124.400,363.472 124.400 C 364.093 124.400,364.096 124.356,363.510 123.900 C 363.157 123.625,362.783 123.040,362.680 122.600 C 362.541 122.007,362.481 122.087,362.446 122.911 L 362.400 124.021 356.518 123.911 L 350.635 123.800 350.357 122.800 C 349.708 120.463,349.963 75.294,350.629 74.629 C 350.974 74.283,351.064 74.000,350.829 74.000 C 350.593 74.000,350.389 73.685,350.375 73.300 C 350.355 72.764,350.265 72.810,349.988 73.500 C 349.638 74.369,349.445 74.400,344.413 74.400 C 336.719 74.400,337.600 78.474,337.600 42.880 C 337.600 20.142,337.485 12.845,337.120 12.480 C 336.794 12.154,334.898 12.000,331.200 12.000 C 328.208 12.000,325.589 11.832,325.380 11.627 C 325.144 11.395,324.705 11.471,324.224 11.827 C 323.556 12.320,323.541 12.400,324.116 12.400 C 325.160 12.400,325.246 13.482,325.119 25.117 C 325.019 34.293,324.904 36.090,324.400 36.409 C 323.491 36.983,313.465 36.905,312.880 36.320 C 312.538 35.978,312.400 35.970,312.400 36.293 C 312.400 36.543,311.905 36.822,311.300 36.913 L 310.200 37.080 311.262 37.140 L 312.323 37.200 312.462 42.739 C 312.641 49.937,312.331 49.598,318.749 49.606 C 321.527 49.609,324.070 49.783,324.400 49.992 C 325.213 50.505,325.283 60.476,324.480 61.280 C 323.811 61.949,216.353 62.266,214.612 61.605 L 213.542 61.198 213.671 55.198 C 213.742 51.899,213.665 49.199,213.500 49.199 C 213.335 49.200,213.200 48.894,213.200 48.520 C 213.200 47.991,213.093 47.947,212.720 48.320 C 212.395 48.645,210.528 48.800,206.934 48.800 C 200.519 48.800,200.798 49.076,200.806 42.726 C 200.812 38.112,200.943 37.494,202.000 37.092 C 202.401 36.939,202.301 36.853,201.700 36.832 C 201.205 36.814,200.800 36.665,200.801 36.500 C 200.801 36.335,198.271 36.259,195.178 36.331 C 191.224 36.422,189.384 36.319,188.978 35.982 C 188.015 35.183,188.130 12.997,189.100 12.432 C 189.746 12.056,189.748 12.023,189.120 12.012 C 188.746 12.005,188.256 11.685,188.032 11.300 C 187.806 10.912,187.619 10.823,187.612 11.100 C 187.595 11.808,163.987 11.827,163.280 11.120 C 162.907 10.747,162.800 10.791,162.800 11.320 M187.600 24.800 L 187.800 37.000 193.800 37.200 L 199.800 37.400 200.018 42.861 C 200.302 49.940,199.978 49.600,206.420 49.600 C 213.083 49.600,212.796 49.307,212.814 56.129 C 212.824 59.943,212.986 61.676,213.400 62.400 C 213.803 63.106,213.976 64.779,213.986 68.086 C 213.999 72.301,214.078 72.813,214.774 73.186 C 215.293 73.464,229.424 73.600,257.751 73.600 L 299.955 73.600 300.577 74.489 C 301.061 75.180,301.200 76.506,301.200 80.446 C 301.200 86.466,300.679 86.000,307.410 86.000 C 314.322 86.000,313.600 82.963,313.600 112.027 C 313.600 140.783,314.465 137.528,306.782 137.688 L 301.400 137.800 301.200 143.241 C 300.927 150.678,302.187 149.999,288.651 150.006 C 282.463 150.009,277.194 150.144,276.942 150.306 C 276.648 150.494,276.432 152.486,276.342 155.839 C 276.147 163.048,277.382 162.400,263.831 162.400 C 250.527 162.400,251.600 161.944,251.600 167.600 C 251.600 173.248,250.581 172.800,263.431 172.800 C 276.301 172.800,275.082 172.116,275.262 179.439 C 275.441 186.759,275.115 186.400,281.600 186.400 C 288.083 186.400,287.800 186.104,287.800 192.894 C 287.800 199.770,288.943 199.200,275.152 199.200 C 261.683 199.200,262.800 199.748,262.800 193.145 C 262.800 186.482,263.111 186.800,256.600 186.800 C 251.698 186.800,251.192 186.868,250.814 187.574 C 250.115 188.880,250.258 222.053,250.967 223.024 C 251.467 223.709,252.138 223.816,256.667 223.934 C 263.410 224.111,262.800 222.916,262.800 235.960 C 262.800 249.879,262.268 248.798,269.123 248.806 C 275.543 248.814,275.076 248.349,275.265 254.922 C 275.389 259.217,275.555 260.527,276.012 260.816 C 276.972 261.423,311.411 261.312,311.907 260.700 C 312.129 260.425,312.383 257.804,312.471 254.876 C 312.664 248.442,312.271 248.814,318.877 248.806 C 325.732 248.798,325.200 249.879,325.200 235.960 C 325.200 222.916,324.590 224.111,331.333 223.934 C 335.862 223.816,336.533 223.709,337.033 223.024 C 337.620 222.219,337.924 188.909,337.357 187.433 C 337.152 186.898,336.257 186.800,331.571 186.800 C 324.863 186.800,325.200 186.465,325.200 193.145 C 325.200 199.750,326.329 199.200,312.771 199.200 C 298.983 199.200,300.000 199.702,300.000 192.889 C 300.000 186.252,299.854 186.400,306.374 186.400 C 312.638 186.400,312.233 186.843,312.526 179.666 C 312.820 172.430,312.494 172.800,318.569 172.800 C 324.673 172.800,324.400 173.075,324.400 166.943 C 324.400 160.672,324.261 160.800,331.040 160.800 C 337.226 160.800,336.941 160.481,337.200 167.692 C 337.451 174.690,337.161 174.400,343.903 174.400 C 350.733 174.400,350.400 174.715,350.400 168.240 C 350.400 160.912,350.488 160.800,356.255 160.800 C 358.785 160.800,360.800 160.992,361.326 161.283 C 361.846 161.570,364.715 161.854,368.400 161.983 L 374.600 162.200 374.703 167.600 C 374.838 174.643,374.583 174.400,381.844 174.400 L 387.200 174.400 387.200 205.170 L 387.200 235.940 381.567 236.070 C 374.465 236.234,374.800 235.889,374.800 243.034 C 374.800 249.308,375.365 248.800,368.391 248.800 C 362.192 248.800,362.654 248.291,362.400 255.400 L 362.200 261.000 356.627 261.112 C 349.601 261.253,350.001 260.876,349.994 267.349 C 349.986 274.041,350.462 273.554,343.795 273.688 C 336.616 273.832,337.213 272.615,337.206 287.100 L 337.200 298.400 331.800 298.400 C 324.627 298.400,324.800 298.238,324.800 304.971 C 324.800 311.897,325.882 311.357,312.728 310.998 C 303.144 310.737,301.897 310.775,301.002 311.362 L 300.000 312.018 300.000 329.581 C 300.000 350.497,300.683 348.398,293.871 348.406 C 287.474 348.414,287.841 348.051,287.600 354.599 C 287.359 361.148,287.726 360.786,281.329 360.794 C 274.972 360.802,275.202 360.565,275.194 367.129 C 275.186 373.888,276.553 373.230,262.773 373.106 L 251.000 373.000 250.600 361.400 C 250.380 355.020,250.054 349.575,249.876 349.300 C 249.644 348.941,248.048 348.800,244.225 348.800 C 240.334 348.800,238.781 348.659,238.465 348.278 C 238.173 347.926,237.994 341.999,237.916 330.046 C 237.778 309.026,238.539 311.200,231.324 311.200 C 224.063 311.200,224.752 309.137,224.888 330.445 C 225.021 351.411,224.205 349.200,231.812 349.200 L 237.070 349.200 237.342 366.851 C 237.542 379.829,237.493 384.647,237.158 385.051 C 236.813 385.466,235.408 385.600,231.398 385.600 C 225.107 385.600,225.614 386.185,225.605 378.914 C 225.599 372.938,225.908 373.200,218.869 373.200 C 212.707 373.200,213.200 373.758,213.200 366.791 C 213.200 363.268,213.051 361.555,212.728 361.355 C 212.468 361.195,181.798 361.108,144.572 361.163 L 76.889 361.263 76.245 360.342 C 75.731 359.608,75.600 358.349,75.600 354.125 C 75.600 349.298,75.531 348.791,74.826 348.414 C 73.481 347.694,64.737 347.888,63.632 348.663 L 62.686 349.325 62.973 360.434 C 63.333 374.396,63.889 373.200,57.035 373.200 C 50.315 373.200,50.662 372.847,50.400 379.960 L 50.200 385.400 44.600 385.400 L 39.000 385.400 38.899 330.443 C 38.828 292.092,38.926 275.331,39.222 274.973 C 39.518 274.617,41.274 274.421,44.991 274.331 C 47.931 274.259,50.485 274.050,50.668 273.867 C 50.851 273.684,51.090 265.443,51.200 255.552 C 51.433 234.566,50.660 236.815,57.651 236.806 C 64.042 236.798,63.740 237.121,64.000 230.040 L 64.200 224.600 76.115 224.400 C 90.121 224.165,88.786 224.841,88.794 217.980 C 88.802 211.421,87.629 212.000,100.906 212.000 C 107.825 212.000,112.346 211.843,112.826 211.586 C 113.584 211.181,113.600 210.282,113.600 168.760 C 113.600 140.289,113.736 126.093,114.014 125.574 C 114.390 124.871,114.895 124.800,119.538 124.800 C 126.831 124.800,126.159 126.059,126.400 111.933 L 126.600 100.200 132.080 100.000 C 138.964 99.749,138.567 100.153,138.730 93.220 C 138.882 86.680,138.307 87.214,145.220 87.205 C 148.273 87.202,150.003 87.037,150.320 86.720 C 150.683 86.357,150.800 80.364,150.800 62.200 C 150.800 44.036,150.917 38.043,151.280 37.680 C 151.609 37.351,153.564 37.200,157.480 37.200 C 164.939 37.200,164.800 37.314,164.800 31.180 C 164.800 27.762,164.644 26.470,164.112 25.480 C 163.253 23.883,162.849 14.604,163.578 13.241 C 164.030 12.396,164.151 12.389,175.717 12.494 L 187.400 12.600 187.600 24.800 M336.197 16.900 C 336.570 21.471,336.277 61.057,335.867 61.467 C 335.684 61.650,333.614 61.800,331.267 61.800 L 327.000 61.800 326.770 55.640 C 326.473 47.709,326.748 48.000,319.563 48.000 C 313.508 48.000,313.898 48.398,314.083 42.400 L 314.200 38.600 319.687 38.400 C 327.241 38.125,326.578 39.346,326.697 25.486 C 326.751 19.279,326.796 14.065,326.797 13.900 C 326.799 13.735,328.854 13.600,331.364 13.600 L 335.928 13.600 336.197 16.900 M176.338 37.468 C 175.240 37.760,175.168 38.998,175.225 56.656 C 175.255 66.005,175.181 73.753,175.059 73.874 C 174.938 73.995,172.796 74.064,170.298 74.027 C 167.801 73.990,165.272 74.145,164.679 74.370 L 163.600 74.780 163.600 80.310 C 163.600 87.139,163.307 86.800,169.204 86.800 C 175.585 86.800,175.392 86.994,175.430 80.531 C 175.447 77.709,175.492 75.175,175.530 74.900 C 175.584 74.514,178.139 74.400,186.774 74.400 C 193.150 74.400,198.393 74.231,198.985 74.006 L 200.023 73.611 199.911 68.106 L 199.800 62.600 194.267 62.400 C 186.961 62.136,187.600 63.405,187.600 49.166 C 187.600 39.066,187.524 37.656,186.967 37.443 C 186.261 37.172,177.375 37.193,176.338 37.468 M338.233 123.776 C 338.691 124.404,338.800 126.775,338.800 136.157 L 338.800 147.762 337.522 149.081 L 336.243 150.400 330.853 150.400 C 323.314 150.400,324.000 151.760,324.000 136.814 C 324.000 124.219,324.066 123.649,325.600 123.063 C 327.306 122.412,337.664 122.997,338.233 123.776 M213.046 149.411 C 212.397 150.060,212.352 150.698,212.575 156.164 C 212.710 159.484,212.920 164.719,213.042 167.797 C 213.164 170.876,213.452 173.621,213.681 173.897 C 214.394 174.757,236.529 174.608,237.250 173.739 C 237.857 173.008,238.748 152.643,238.259 150.693 C 237.901 149.266,238.018 149.281,225.182 148.970 C 214.524 148.713,213.715 148.742,213.046 149.411 M349.226 149.614 C 350.305 150.191,350.440 171.903,349.371 172.971 C 348.552 173.791,339.145 173.902,338.489 173.100 C 337.692 172.125,337.391 151.378,338.157 150.209 C 338.881 149.104,347.415 148.645,349.226 149.614 M237.029 150.286 C 237.879 151.136,237.542 172.734,236.670 173.289 C 235.794 173.846,214.548 173.660,214.075 173.091 C 213.333 172.196,213.262 150.464,214.000 149.994 C 215.193 149.235,236.244 149.502,237.029 150.286 M311.226 174.414 C 311.932 174.792,312.000 175.298,312.000 180.171 C 312.000 186.507,312.540 186.000,305.790 186.000 C 299.437 186.000,299.600 185.819,299.600 192.889 C 299.600 200.180,298.470 199.600,312.669 199.600 C 326.778 199.600,325.600 200.181,325.600 193.218 C 325.600 186.906,325.317 187.200,331.400 187.200 C 334.631 187.200,336.400 187.360,336.720 187.680 C 337.228 188.188,337.453 221.274,336.957 222.567 C 336.754 223.096,335.914 223.201,331.857 223.206 C 328.749 223.210,326.640 223.394,326.000 223.717 L 325.000 224.223 324.800 235.926 C 324.565 249.675,325.215 248.385,318.514 248.394 C 312.213 248.402,312.800 250.266,312.800 230.252 C 312.800 220.434,312.641 213.233,312.410 212.626 L 312.020 211.600 294.310 211.606 C 283.859 211.610,276.354 211.768,276.000 211.991 C 275.487 212.316,275.371 214.913,275.200 230.000 C 274.967 250.517,275.662 248.388,269.200 248.388 C 262.830 248.388,263.434 249.644,263.200 235.926 L 263.000 224.223 262.000 223.717 C 261.369 223.398,259.297 223.210,256.380 223.206 C 253.327 223.202,251.597 223.037,251.280 222.720 C 250.590 222.030,250.590 188.370,251.280 187.680 C 251.944 187.016,261.256 187.016,261.920 187.680 C 262.242 188.002,262.400 189.802,262.400 193.149 C 262.400 200.195,261.220 199.600,275.186 199.600 C 289.469 199.600,288.200 200.263,288.200 192.800 C 288.200 185.719,288.458 186.000,281.956 186.000 C 279.376 186.000,276.981 185.891,276.633 185.757 C 275.635 185.374,275.697 175.016,276.700 174.432 C 277.666 173.870,310.177 173.853,311.226 174.414 M26.068 185.600 C 26.284 186.253,63.200 186.754,63.200 186.104 C 63.200 185.937,55.078 185.849,45.151 185.908 C 31.019 185.993,26.968 185.906,26.486 185.508 C 25.976 185.087,25.904 185.103,26.068 185.600 M61.900 224.252 C 62.956 224.535,63.327 234.513,62.320 235.520 C 61.418 236.422,51.717 236.165,51.214 235.226 C 50.610 234.097,50.680 225.905,51.300 225.122 C 52.129 224.078,59.110 223.505,61.900 224.252 M49.767 236.643 C 50.415 236.891,50.784 270.933,50.157 272.567 C 49.794 273.513,39.006 273.513,38.643 272.567 C 38.509 272.219,38.400 264.219,38.400 254.790 L 38.400 237.645 39.289 237.023 C 40.198 236.386,48.330 236.091,49.767 236.643 M311.712 249.566 C 311.884 249.730,311.974 252.280,311.912 255.232 L 311.800 260.600 294.000 260.600 L 276.200 260.600 276.200 255.000 L 276.200 249.400 282.000 249.157 C 289.190 248.856,311.287 249.160,311.712 249.566 M236.426 312.014 C 237.173 312.414,237.200 313.039,237.200 330.225 L 237.200 348.023 231.700 347.911 L 226.200 347.800 226.095 330.200 C 225.998 314.009,226.044 312.560,226.671 312.100 C 227.514 311.481,235.303 311.413,236.426 312.014 M312.386 312.374 C 313.032 313.580,312.948 346.845,312.297 347.735 C 311.855 348.340,311.110 348.410,306.197 348.312 L 300.600 348.200 300.496 330.446 C 300.421 317.671,300.519 312.539,300.845 312.146 C 301.649 311.177,311.853 311.378,312.386 312.374 M113.900 373.632 C 113.108 374.093,112.842 384.412,113.591 385.600 C 114.060 386.343,125.104 386.727,126.283 386.041 C 126.677 385.812,126.775 385.619,126.500 385.612 C 126.126 385.603,126.000 384.265,126.000 380.289 C 126.000 372.968,126.204 373.197,119.677 373.212 C 116.885 373.219,114.285 373.408,113.900 373.632 M124.812 374.412 C 125.556 375.156,125.614 375.649,125.512 380.312 L 125.400 385.400 119.600 385.400 L 113.800 385.400 113.688 380.004 C 113.549 373.329,113.304 373.600,119.476 373.600 C 123.489 373.600,124.092 373.692,124.812 374.412 M311.112 379.513 L 311.225 384.426 306.512 384.313 L 301.800 384.200 301.686 379.826 C 301.532 373.946,301.165 374.353,306.493 374.487 L 311.000 374.600 311.112 379.513 " stroke="none" fill="#b3441c" fill-rule="evenodd"></path><path id="path4" d="M162.705 0.800 C 162.543 1.350,162.408 3.803,162.405 6.251 C 162.399 11.775,162.660 11.546,156.185 11.687 C 149.499 11.833,150.013 10.756,150.006 24.620 C 149.999 37.513,150.555 36.400,144.120 36.400 C 136.820 36.400,137.600 33.364,137.600 61.786 C 137.600 89.579,138.419 86.400,131.255 86.400 C 124.995 86.400,125.200 86.190,125.200 92.600 C 125.200 99.027,125.427 98.800,119.000 98.800 C 112.231 98.800,112.800 97.676,112.800 111.055 C 112.800 124.697,113.301 123.600,107.075 123.600 C 103.290 123.600,101.976 123.741,101.289 124.223 L 100.400 124.845 100.400 160.849 C 100.400 184.902,100.263 197.109,99.986 197.626 C 99.477 198.578,77.813 198.853,76.880 197.920 C 76.559 197.599,76.400 195.813,76.400 192.520 C 76.400 185.911,76.491 186.002,69.900 185.994 C 63.686 185.986,64.111 186.402,63.942 180.161 C 63.842 176.485,63.636 174.725,63.251 174.261 C 62.617 173.498,27.589 173.241,26.400 173.990 C 25.932 174.285,25.756 175.566,25.600 179.799 C 25.359 186.345,25.719 185.986,19.376 185.994 C 12.817 186.002,13.037 185.790,12.860 192.268 C 12.683 198.728,13.000 198.400,6.951 198.400 C -0.435 198.400,0.400 194.354,0.400 230.124 C 0.400 255.489,0.490 260.370,0.967 261.024 C 1.467 261.709,2.186 261.824,7.067 262.000 L 12.600 262.200 12.800 267.487 C 13.062 274.401,12.799 274.138,19.710 274.400 L 24.994 274.600 25.250 275.800 C 25.390 276.460,25.527 304.203,25.553 337.451 C 25.592 388.086,25.689 397.976,26.148 398.357 C 26.982 399.049,49.662 399.173,50.489 398.490 C 50.971 398.092,51.142 396.831,51.269 392.746 C 51.474 386.160,51.226 386.400,57.827 386.400 C 63.996 386.400,63.758 386.648,63.934 380.040 C 64.008 377.268,64.255 374.775,64.483 374.500 C 64.996 373.882,98.628 373.778,99.600 374.391 C 100.106 374.711,100.218 376.580,100.317 386.350 C 100.409 395.395,100.551 398.027,100.967 398.373 C 101.324 398.669,105.355 398.846,113.134 398.908 C 127.369 399.021,126.148 399.615,126.331 392.486 C 126.494 386.139,126.223 386.400,132.627 386.400 C 138.796 386.400,138.558 386.648,138.734 380.040 C 138.808 377.268,139.055 374.775,139.283 374.500 C 139.875 373.786,211.206 373.766,211.920 374.480 C 212.240 374.800,212.400 376.567,212.400 379.791 C 212.400 386.535,212.275 386.400,218.546 386.400 C 224.995 386.400,224.722 386.137,224.876 392.487 C 225.045 399.426,223.798 398.810,237.907 398.914 C 251.852 399.017,250.537 399.664,250.800 392.567 C 250.956 388.363,251.133 387.086,251.600 386.791 C 251.940 386.576,257.071 386.410,263.451 386.406 C 276.978 386.399,275.747 387.046,275.942 379.839 C 276.110 373.617,275.724 374.014,281.620 374.006 C 287.718 373.998,287.200 372.861,287.200 386.251 C 287.200 395.608,287.300 397.643,287.783 398.126 C 288.953 399.296,323.732 399.629,324.881 398.481 C 325.273 398.089,325.449 395.119,325.600 386.366 C 325.835 372.751,325.200 374.017,331.800 374.000 C 334.440 373.993,336.870 373.817,337.200 373.609 C 337.724 373.278,337.825 368.577,338.000 336.600 C 338.175 304.623,338.276 299.922,338.800 299.591 C 339.130 299.383,341.571 299.209,344.224 299.206 C 351.184 299.197,350.560 300.418,350.800 286.333 L 351.000 274.600 356.481 274.400 C 363.341 274.150,362.950 274.541,363.200 267.681 L 363.400 262.200 368.881 262.000 C 375.741 261.750,375.350 262.141,375.600 255.282 L 375.800 249.800 381.333 249.600 C 388.268 249.348,387.998 249.615,388.006 243.024 C 388.014 236.676,387.668 237.027,394.085 236.871 C 397.008 236.800,399.527 236.620,399.681 236.471 C 399.836 236.322,397.226 236.290,393.881 236.400 L 387.800 236.600 387.600 242.041 C 387.340 249.120,387.704 248.750,380.860 248.889 L 375.400 249.000 375.200 254.439 C 374.938 261.555,375.288 261.200,368.541 261.200 L 363.180 261.200 362.790 262.226 C 362.576 262.790,362.400 265.364,362.400 267.946 C 362.400 273.878,362.705 273.600,356.200 273.600 C 349.380 273.600,350.001 272.360,349.994 285.980 C 349.990 292.461,349.824 297.659,349.609 298.000 C 349.312 298.471,348.003 298.643,343.515 298.800 L 337.800 299.000 337.704 335.600 L 337.608 372.200 336.760 372.900 C 336.054 373.482,335.089 373.600,331.036 373.600 C 324.641 373.600,325.200 372.426,325.200 385.851 C 325.200 395.583,325.113 397.230,324.571 397.771 C 323.591 398.752,289.165 398.721,288.349 397.739 C 287.919 397.221,287.775 394.633,287.683 385.774 C 287.543 372.286,288.243 373.542,280.945 373.688 L 275.400 373.800 275.200 379.516 C 275.043 384.003,274.871 385.313,274.400 385.610 C 274.061 385.824,268.928 385.990,262.580 385.994 C 249.208 386.001,250.400 385.408,250.400 392.051 C 250.400 399.002,251.589 398.400,237.851 398.400 C 224.435 398.400,225.602 398.950,225.595 392.620 C 225.586 385.427,226.086 386.000,219.830 386.000 C 212.754 386.000,213.100 386.328,212.821 379.348 L 212.600 373.800 175.691 373.698 L 138.782 373.596 138.391 374.624 C 138.176 375.189,138.000 377.790,138.000 380.402 C 138.000 386.151,138.475 385.747,131.400 386.000 L 125.800 386.200 125.688 391.773 C 125.623 395.048,125.396 397.564,125.139 397.873 C 124.431 398.727,102.289 398.632,101.429 397.771 C 100.887 397.230,100.800 395.583,100.800 385.851 C 100.800 377.603,100.671 374.431,100.320 374.080 C 99.495 373.255,63.761 373.403,63.443 374.233 C 63.309 374.581,63.200 377.184,63.200 380.019 C 63.200 386.303,63.541 386.000,56.469 386.000 C 50.326 386.000,50.800 385.493,50.800 392.059 C 50.800 399.042,52.034 398.400,38.614 398.400 C 28.823 398.400,27.170 398.313,26.629 397.771 C 26.063 397.206,25.999 391.052,25.994 336.071 C 25.990 298.370,25.843 274.770,25.609 274.400 C 25.311 273.927,24.094 273.772,19.839 273.669 C 13.303 273.511,13.701 273.914,13.534 267.284 C 13.372 260.851,13.755 261.214,7.129 261.206 C 3.057 261.201,1.933 261.076,1.429 260.571 C 0.583 259.726,0.459 200.995,1.300 199.905 C 1.708 199.377,2.807 199.234,7.267 199.129 C 13.892 198.973,13.358 199.506,13.600 192.799 C 13.842 186.109,13.345 186.629,19.652 186.468 C 26.374 186.297,26.000 185.922,26.000 192.825 C 26.000 200.226,26.741 200.636,26.889 193.317 L 27.000 187.800 44.600 187.800 L 62.200 187.800 62.312 192.944 C 62.456 199.518,62.747 199.200,56.575 199.200 C 50.647 199.200,51.041 198.778,50.861 205.308 C 50.687 211.585,51.010 211.310,44.005 211.131 C 41.184 211.059,38.959 211.135,39.061 211.300 C 39.163 211.465,41.487 211.600,44.224 211.600 C 50.907 211.600,50.800 211.493,50.800 218.157 C 50.800 224.060,50.258 223.600,57.219 223.600 C 63.492 223.600,63.200 223.921,63.200 217.040 C 63.200 210.931,62.900 211.200,69.725 211.200 C 75.969 211.200,75.654 211.551,75.512 204.745 L 75.400 199.400 69.940 199.289 C 63.137 199.151,63.548 199.607,63.689 192.345 L 63.800 186.600 69.281 186.600 C 76.158 186.600,75.744 186.190,75.937 193.202 L 76.090 198.781 77.345 199.013 C 80.022 199.508,99.443 199.030,100.139 198.451 C 100.745 197.948,100.800 194.863,100.800 161.631 C 100.800 133.954,100.914 125.246,101.280 124.880 C 101.599 124.561,103.336 124.400,106.454 124.400 C 109.036 124.400,111.610 124.224,112.174 124.010 L 113.200 123.620 113.200 112.286 C 113.200 98.217,112.565 99.464,119.867 99.200 L 125.400 99.000 125.600 93.559 C 125.860 86.480,125.496 86.850,132.340 86.711 L 137.800 86.600 138.000 62.320 C 138.127 46.924,138.346 37.898,138.600 37.654 C 138.820 37.442,141.460 37.208,144.467 37.134 C 147.474 37.060,150.084 36.850,150.267 36.667 C 150.450 36.484,150.650 31.084,150.711 24.667 C 150.844 10.703,150.154 12.000,157.458 12.000 L 162.764 12.000 163.001 10.700 C 163.344 8.829,163.067 -0.427,162.705 0.800 M188.168 5.800 L 188.200 11.800 193.916 12.000 C 198.403 12.157,199.713 12.329,200.010 12.800 C 200.223 13.139,200.393 18.277,200.400 24.600 C 200.407 30.939,200.577 36.060,200.791 36.400 C 201.091 36.875,202.338 37.029,206.787 37.138 C 213.380 37.301,212.727 36.576,212.890 43.915 C 212.976 47.761,213.131 48.914,213.600 49.212 C 214.605 49.851,299.035 49.525,299.680 48.880 C 300.034 48.526,300.264 46.610,300.400 42.880 L 300.600 37.400 306.325 37.183 C 310.727 37.016,312.136 36.831,312.419 36.383 C 312.622 36.062,312.791 30.728,312.794 24.529 C 312.801 10.814,312.200 12.000,319.149 12.000 C 325.582 12.000,325.219 12.400,325.123 5.420 L 325.046 -0.200 324.823 5.041 C 324.532 11.873,324.790 11.600,318.627 11.600 C 311.605 11.600,312.225 10.401,312.077 24.258 C 311.933 37.678,312.561 36.386,306.176 36.394 C 299.604 36.402,299.834 36.178,299.669 42.744 C 299.578 46.350,299.380 48.085,299.025 48.379 C 298.670 48.674,285.598 48.773,256.157 48.702 L 213.800 48.600 213.600 43.067 C 213.349 36.132,213.616 36.402,207.024 36.394 C 200.650 36.386,201.278 37.678,201.129 24.261 C 200.974 10.410,201.587 11.603,194.624 11.594 C 188.279 11.586,188.647 11.955,188.368 5.315 L 188.135 -0.200 188.168 5.800 M350.137 36.715 C 350.192 69.046,350.274 73.676,350.800 74.009 C 351.130 74.217,353.673 74.391,356.451 74.394 C 360.132 74.398,361.621 74.543,361.939 74.926 C 362.241 75.290,362.410 82.810,362.488 99.306 C 362.577 118.188,362.708 123.269,363.118 123.680 C 363.471 124.034,365.387 124.264,369.116 124.400 L 374.594 124.600 374.850 125.800 C 374.990 126.460,375.127 134.785,375.153 144.300 L 375.200 161.600 380.777 161.600 C 387.880 161.600,387.600 161.310,387.600 168.669 L 387.600 173.961 393.763 174.080 C 397.152 174.146,399.841 174.065,399.739 173.900 C 399.637 173.735,397.302 173.600,394.550 173.600 C 387.680 173.600,388.000 173.892,388.000 167.614 C 388.000 160.959,388.228 161.200,381.945 161.200 C 374.840 161.200,375.600 163.407,375.600 142.786 C 375.600 121.542,376.299 123.600,369.080 123.600 C 365.787 123.600,364.001 123.441,363.680 123.120 C 363.318 122.758,363.200 116.900,363.200 99.209 C 363.200 71.162,363.940 74.134,356.906 73.939 C 354.097 73.862,351.575 73.653,351.300 73.475 C 350.907 73.222,350.791 65.543,350.760 37.476 C 350.738 17.854,350.575 1.350,350.397 0.800 C 350.219 0.250,350.102 16.412,350.137 36.715 M325.399 124.946 C 324.481 126.346,324.666 148.219,325.600 148.809 C 326.874 149.614,337.126 149.286,337.586 148.426 C 338.220 147.242,338.127 126.476,337.483 125.200 C 336.696 123.642,326.395 123.426,325.399 124.946 M337.106 136.351 C 337.182 144.392,337.080 147.863,336.757 148.251 C 336.152 148.980,326.800 149.040,326.080 148.320 C 325.552 147.792,325.359 125.574,325.877 125.056 C 326.030 124.903,328.595 124.828,331.577 124.889 L 337.000 125.000 337.106 136.351 M225.592 148.385 C 225.986 149.120,236.361 149.820,238.334 149.244 C 239.894 148.789,237.279 148.412,232.526 148.406 C 229.625 148.403,226.785 148.223,226.215 148.006 C 225.266 147.645,225.213 147.677,225.592 148.385 M351.062 162.056 C 350.365 163.130,349.995 174.214,350.639 174.724 C 350.838 174.880,353.610 174.867,356.800 174.693 C 372.141 173.860,373.450 173.872,374.365 174.855 C 375.196 175.747,375.200 175.893,375.200 205.275 C 375.200 240.270,375.974 236.400,368.974 236.400 C 362.556 236.400,362.800 236.173,362.800 242.125 C 362.800 248.944,362.933 248.800,356.654 248.800 C 350.205 248.800,350.478 248.537,350.324 254.887 C 350.161 261.583,350.389 261.359,343.565 261.532 C 337.331 261.690,337.600 261.401,337.600 267.950 C 337.600 271.030,337.439 272.467,337.032 273.024 C 336.476 273.784,335.448 273.802,287.768 273.905 C 252.799 273.980,238.920 274.135,238.535 274.454 C 237.817 275.050,237.769 284.809,238.480 285.520 C 238.828 285.868,241.944 286.011,249.780 286.040 C 263.985 286.092,262.556 285.421,262.800 292.150 C 263.068 299.552,260.892 298.800,282.062 298.800 C 302.563 298.800,300.400 298.081,300.400 304.898 C 300.400 311.197,300.397 311.200,293.864 311.200 C 290.583 311.200,288.801 311.359,288.480 311.680 C 288.121 312.039,288.000 316.532,288.000 329.436 C 288.000 350.572,288.729 348.515,281.137 348.800 L 275.800 349.000 275.600 354.336 C 275.322 361.748,276.347 361.200,262.770 361.200 C 250.030 361.200,251.200 361.877,251.200 354.503 C 251.200 347.537,251.505 347.852,244.533 347.600 L 239.000 347.400 238.800 329.561 C 238.640 315.254,238.491 311.591,238.051 311.061 C 237.419 310.300,226.322 310.075,225.200 310.800 C 224.437 311.293,224.384 311.289,230.800 311.212 C 238.620 311.119,237.777 308.889,237.916 330.046 C 237.994 341.999,238.173 347.926,238.465 348.278 C 238.781 348.659,240.334 348.800,244.225 348.800 C 248.048 348.800,249.644 348.941,249.876 349.300 C 250.054 349.575,250.380 355.020,250.600 361.400 L 251.000 373.000 262.773 373.106 C 276.553 373.230,275.186 373.888,275.194 367.129 C 275.202 360.565,274.972 360.802,281.329 360.794 C 287.726 360.786,287.359 361.148,287.600 354.599 C 287.841 348.051,287.474 348.414,293.871 348.406 C 300.683 348.398,300.000 350.495,300.000 329.594 L 300.000 312.045 300.876 311.432 C 301.613 310.916,303.531 310.819,312.945 310.820 C 326.043 310.823,324.786 311.451,324.794 304.900 C 324.802 298.249,324.639 298.400,331.800 298.400 L 337.200 298.400 337.206 287.100 C 337.213 272.615,336.616 273.832,343.795 273.688 C 350.462 273.554,349.986 274.041,349.994 267.349 C 350.001 260.876,349.601 261.253,356.627 261.112 L 362.200 261.000 362.400 255.400 C 362.654 248.291,362.192 248.800,368.391 248.800 C 375.365 248.800,374.800 249.308,374.800 243.034 C 374.800 235.889,374.465 236.234,381.567 236.070 L 387.200 235.940 387.200 205.170 L 387.200 174.400 381.844 174.400 C 374.583 174.400,374.838 174.643,374.703 167.600 L 374.600 162.200 369.000 161.928 C 350.310 161.019,351.743 161.008,351.062 162.056 M212.031 167.899 C 212.286 174.875,212.245 174.543,212.800 174.200 C 213.335 173.869,213.322 163.376,212.786 162.374 C 211.938 160.789,211.806 161.754,212.031 167.899 M238.267 161.867 C 238.120 162.013,238.000 164.235,238.000 166.803 C 238.000 169.683,237.782 172.196,237.432 173.359 C 237.024 174.714,236.996 175.202,237.332 175.093 C 238.361 174.758,238.746 172.810,238.871 167.299 C 238.993 161.925,238.914 161.219,238.267 161.867 M325.549 162.261 C 325.173 162.714,324.938 164.562,324.800 168.144 C 324.563 174.339,325.083 173.899,317.924 173.960 C 312.340 174.008,312.756 173.534,312.501 180.140 C 312.244 186.779,312.615 186.400,306.374 186.400 C 299.854 186.400,300.000 186.252,300.000 192.889 C 300.000 199.702,298.983 199.200,312.771 199.200 C 326.329 199.200,325.200 199.750,325.200 193.145 C 325.200 186.465,324.863 186.800,331.571 186.800 C 336.257 186.800,337.152 186.898,337.357 187.433 C 337.924 188.909,337.620 222.219,337.033 223.024 C 336.533 223.709,335.862 223.816,331.333 223.934 C 324.590 224.111,325.200 222.916,325.200 235.960 C 325.200 249.879,325.732 248.798,318.877 248.806 C 312.271 248.814,312.664 248.442,312.471 254.876 C 312.383 257.804,312.129 260.425,311.907 260.700 C 311.411 261.312,276.972 261.423,276.012 260.816 C 275.555 260.527,275.389 259.217,275.265 254.922 C 275.076 248.349,275.543 248.814,269.123 248.806 C 262.268 248.798,262.800 249.879,262.800 235.960 C 262.800 222.916,263.410 224.111,256.667 223.934 C 252.138 223.816,251.467 223.709,250.967 223.024 C 250.258 222.053,250.115 188.880,250.814 187.574 C 251.192 186.868,251.698 186.800,256.600 186.800 C 263.111 186.800,262.800 186.482,262.800 193.145 C 262.800 199.748,261.683 199.200,275.152 199.200 C 288.943 199.200,287.800 199.770,287.800 192.894 C 287.800 186.104,288.083 186.400,281.600 186.400 C 275.151 186.400,275.461 186.728,275.200 179.639 L 275.000 174.200 263.400 173.883 C 257.020 173.709,251.575 173.490,251.300 173.396 C 250.946 173.275,250.786 171.970,250.753 168.913 C 250.680 162.301,250.103 161.258,250.047 167.638 C 249.983 175.030,248.828 174.400,262.451 174.400 C 275.558 174.400,274.400 173.815,274.400 180.436 C 274.400 187.477,274.266 187.338,281.264 187.600 L 286.600 187.800 286.600 192.800 L 286.600 197.800 275.428 197.906 C 262.334 198.031,263.614 198.679,263.606 191.923 C 263.598 185.405,263.814 185.600,256.600 185.600 C 252.521 185.600,251.183 185.736,250.489 186.223 L 249.600 186.845 249.600 205.161 C 249.600 227.042,248.864 224.800,256.051 224.800 C 262.577 224.800,262.000 223.615,262.000 237.018 C 262.000 250.704,261.460 249.600,268.158 249.600 C 274.658 249.600,274.400 249.362,274.400 255.370 C 274.400 259.639,274.504 260.440,275.165 261.256 L 275.929 262.200 294.000 262.200 L 312.071 262.200 312.835 261.256 C 313.496 260.440,313.600 259.639,313.600 255.370 C 313.600 249.354,313.329 249.600,319.951 249.600 C 326.485 249.600,326.000 250.627,326.000 236.791 C 326.000 223.638,325.417 224.800,332.018 224.800 C 336.410 224.800,337.163 224.704,337.738 224.069 C 338.593 223.124,338.766 186.926,337.920 186.080 C 337.591 185.751,335.636 185.600,331.720 185.600 C 324.191 185.600,324.402 185.413,324.394 192.100 C 324.386 198.651,325.648 198.031,312.572 197.906 L 301.400 197.800 301.400 192.800 L 301.400 187.800 306.736 187.600 C 313.738 187.338,313.600 187.482,313.600 180.405 C 313.600 176.801,313.747 175.179,314.100 174.894 C 315.301 173.924,335.831 173.830,337.380 174.788 C 339.026 175.805,339.078 175.715,338.000 173.704 C 337.331 172.456,337.200 171.448,337.200 167.539 C 337.200 164.968,337.091 162.581,336.957 162.233 C 336.588 161.271,326.350 161.296,325.549 162.261 M62.426 174.414 C 63.137 174.794,63.200 175.303,63.200 180.618 L 63.200 186.408 44.700 186.304 L 26.200 186.200 26.089 180.740 C 25.996 176.168,26.082 175.175,26.618 174.640 C 27.393 173.864,61.003 173.652,62.426 174.414 M76.100 348.674 C 75.323 350.031,75.420 359.165,76.223 360.311 L 76.845 361.200 138.197 361.200 C 196.545 361.200,201.600 361.113,201.600 360.110 C 201.600 359.939,173.565 359.800,139.300 359.800 L 77.000 359.800 76.800 353.800 C 76.631 348.736,76.522 347.936,76.100 348.674 M114.264 374.104 C 113.661 374.545,113.589 375.278,113.688 380.004 L 113.800 385.400 119.600 385.400 L 125.400 385.400 125.512 380.312 C 125.661 373.551,125.705 373.600,119.476 373.600 C 116.472 373.600,114.722 373.769,114.264 374.104 " stroke="none" fill="#786d80" fill-rule="evenodd"></path></g></svg>