<svg id="svg" version="1.1" xmlns="http://www.w3.org/2000/svg" xmlns:xlink="http://www.w3.org/1999/xlink" width="400" height="251.2396694214876" viewBox="0, 0, 400,251.2396694214876"><g id="svgg"><path id="path1" d="M30.462 7.941 C 27.797 8.738,26.899 12.050,29.098 12.976 C 29.608 13.190,30.360 13.533,30.769 13.737 C 31.432 14.067,31.544 14.065,31.801 13.712 C 31.960 13.495,32.191 13.315,32.314 13.314 C 33.089 13.305,34.211 11.574,33.811 11.005 C 33.587 10.687,33.292 10.009,33.153 9.498 C 32.771 8.083,31.822 7.534,30.462 7.941 M49.873 29.243 C 47.842 29.882,47.765 29.925,47.294 30.705 C 46.371 32.228,48.149 34.478,50.722 35.043 C 51.496 35.213,51.524 35.186,52.263 33.540 C 53.194 31.464,53.194 31.473,52.197 29.988 L 51.380 28.769 49.873 29.243 M9.382 29.077 C 6.793 29.313,6.971 33.371,9.605 34.155 C 10.195 34.331,10.918 34.567,11.212 34.680 C 11.630 34.841,11.799 34.767,11.993 34.339 C 12.129 34.039,12.480 33.307,12.773 32.713 L 13.306 31.631 12.533 30.263 C 11.702 28.790,11.866 28.851,9.382 29.077 M285.176 37.435 C 284.830 37.550,284.253 37.709,283.892 37.788 C 283.329 37.911,283.214 38.100,283.078 39.129 C 282.990 39.788,282.799 41.175,282.652 42.211 C 282.353 44.330,282.563 48.241,282.975 48.241 C 283.121 48.241,283.841 48.545,284.573 48.916 L 285.905 49.590 286.797 49.110 C 287.287 48.846,287.688 48.542,287.688 48.435 C 287.688 48.329,287.842 48.241,288.030 48.241 C 288.287 48.241,288.449 47.379,288.682 44.786 L 288.993 41.332 288.343 39.950 C 287.986 39.190,287.692 38.435,287.691 38.272 C 287.690 38.110,287.332 37.799,286.896 37.581 C 286.014 37.141,286.049 37.144,285.176 37.435 M30.600 47.877 C 30.226 48.081,29.616 48.528,29.245 48.872 C 28.873 49.216,28.485 49.497,28.382 49.497 C 27.872 49.497,27.443 51.360,27.820 51.936 C 28.600 53.126,31.665 53.400,32.869 52.387 C 33.279 52.041,33.734 51.759,33.878 51.759 C 34.489 51.759,34.410 51.183,33.688 50.361 C 33.263 49.876,32.915 49.320,32.915 49.125 C 32.915 48.721,31.841 47.482,31.504 47.497 C 31.382 47.503,30.975 47.674,30.600 47.877 M264.984 57.570 C 263.172 57.986,261.443 61.220,262.626 61.982 C 264.246 63.026,272.369 63.149,273.875 62.153 C 275.016 61.397,275.067 61.162,274.372 59.865 C 274.095 59.349,273.869 58.741,273.869 58.514 C 273.869 57.625,267.634 56.962,264.984 57.570 M283.766 58.314 C 281.303 60.270,281.609 62.141,284.435 62.404 C 287.361 62.676,288.077 62.062,287.680 59.620 C 287.308 57.327,285.688 56.786,283.766 58.314 M296.821 57.902 C 296.161 58.189,295.957 58.492,295.600 59.714 C 294.786 62.504,295.349 62.767,302.136 62.774 C 307.563 62.779,308.369 62.135,306.915 58.956 L 306.267 57.538 301.940 57.548 C 298.845 57.555,297.388 57.655,296.821 57.902 M284.434 70.748 C 283.306 71.237,283.362 71.157,283.100 72.680 C 282.318 77.240,282.683 80.872,283.994 81.555 C 284.368 81.750,284.982 82.070,285.358 82.267 C 286.077 82.642,286.754 82.422,287.989 81.414 C 288.484 81.010,288.622 77.079,288.283 73.062 C 288.064 70.478,286.803 69.720,284.434 70.748 M373.876 169.394 L 372.752 170.647 372.655 173.970 L 372.558 177.293 373.353 178.783 C 374.814 181.521,375.956 181.439,377.614 178.474 C 379.427 175.231,379.473 170.171,377.696 169.428 C 377.185 169.214,376.496 168.826,376.164 168.565 C 375.328 167.908,375.153 167.971,373.876 169.394 M354.881 188.890 C 351.836 189.336,351.332 190.013,351.906 192.883 C 352.194 194.326,360.487 195.215,362.904 194.062 C 364.173 193.457,364.409 190.747,363.294 189.588 L 362.584 188.850 358.975 188.835 C 356.990 188.826,355.148 188.851,354.881 188.890 M388.693 188.956 C 387.242 189.054,385.917 189.148,385.747 189.165 C 384.956 189.244,384.639 190.340,384.928 192.000 L 385.207 193.599 386.688 194.036 C 388.694 194.627,395.244 194.670,395.818 194.095 C 396.026 193.888,396.301 193.719,396.430 193.719 C 396.559 193.719,396.726 192.960,396.800 192.033 C 397.063 188.753,396.252 188.445,388.693 188.956 M373.661 189.620 C 372.785 190.148,372.603 190.378,372.725 190.803 C 372.808 191.094,373.004 191.859,373.160 192.503 C 373.787 195.099,377.161 194.691,377.917 191.928 C 378.157 191.050,378.334 190.318,378.310 190.303 C 375.939 188.786,375.220 188.680,373.661 189.620 M374.131 202.503 C 373.672 202.913,373.204 203.280,373.089 203.320 C 372.975 203.359,372.805 204.919,372.712 206.786 L 372.543 210.179 373.206 210.968 C 373.571 211.401,373.869 211.881,373.869 212.034 C 373.869 212.187,373.963 212.312,374.078 212.312 C 374.193 212.312,374.438 212.594,374.623 212.940 C 374.982 213.610,375.724 213.772,376.055 213.252 C 376.166 213.079,376.709 212.603,377.261 212.195 C 378.919 210.970,378.934 210.934,378.773 208.319 C 378.548 204.651,378.340 203.015,378.100 203.015 C 377.979 203.015,377.432 202.732,376.884 202.387 C 375.601 201.577,375.148 201.596,374.131 202.503 M98.181 205.456 C 97.057 205.627,96.748 206.338,96.907 208.386 C 97.081 210.616,97.212 210.752,99.373 210.949 C 101.620 211.154,102.229 210.644,102.551 208.288 C 102.889 205.817,101.544 204.946,98.181 205.456 M77.269 226.018 C 76.553 226.560,76.375 229.700,77.020 230.413 C 77.783 231.256,81.582 231.138,81.916 230.260 C 82.353 229.109,82.221 226.515,81.701 226.044 C 81.091 225.492,77.989 225.474,77.269 226.018 M116.817 226.026 C 116.333 226.609,116.205 229.207,116.615 230.133 L 116.957 230.905 119.163 230.905 C 121.300 230.905,121.377 230.884,121.614 230.260 C 122.052 229.109,121.920 226.515,121.400 226.044 C 120.757 225.462,117.296 225.449,116.817 226.026 M98.575 245.158 C 97.069 245.295,96.841 245.802,96.939 248.807 L 97.019 251.256 99.602 251.256 L 102.186 251.256 102.346 248.815 L 102.506 246.374 101.740 245.675 C 100.969 244.971,100.850 244.951,98.575 245.158 " stroke="none" fill="#fcfeff" fill-rule="evenodd"></path></g></svg>