<svg id="svg" version="1.1" xmlns="http://www.w3.org/2000/svg" xmlns:xlink="http://www.w3.org/1999/xlink" width="400" height="411.2977099236641" viewBox="0, 0, 400,411.2977099236641"><g id="svgg"><path id="path0" d="M164.717 12.298 C 164.634 12.513,164.604 15.501,164.650 18.940 L 164.733 25.191 171.069 25.273 L 177.405 25.356 177.405 31.725 L 177.405 38.094 164.580 38.321 L 151.756 38.547 151.756 64.159 L 151.756 89.771 145.044 89.771 L 138.333 89.771 138.250 96.260 L 138.168 102.748 132.483 102.831 L 126.798 102.914 126.782 114.587 C 126.773 121.007,126.755 126.569,126.742 126.947 L 126.718 127.634 120.458 127.634 L 114.198 127.634 114.198 173.588 L 114.198 219.542 101.374 219.542 L 88.550 219.542 88.550 224.733 L 88.550 229.924 76.361 229.924 L 64.173 229.924 64.174 235.649 C 64.175 238.798,64.164 241.752,64.149 242.214 L 64.122 243.053 57.863 243.053 L 51.603 243.053 51.603 261.985 L 51.603 280.916 45.191 280.916 L 38.779 280.916 38.779 318.925 L 38.779 356.933 33.053 357.016 L 27.328 357.099 27.276 362.901 C 27.247 366.092,27.213 369.080,27.200 369.542 L 27.176 370.382 20.813 370.382 L 14.450 370.382 14.477 383.435 L 14.504 396.489 20.840 396.571 L 27.176 396.654 27.176 389.930 L 27.176 383.206 33.588 383.206 L 40.000 383.206 40.000 376.641 L 40.000 370.076 52.061 370.076 L 64.122 370.076 64.122 364.275 L 64.122 358.473 71.985 358.458 C 80.240 358.441,199.957 358.447,201.145 358.463 L 201.832 358.473 201.832 377.557 L 201.832 396.641 208.092 396.641 L 214.351 396.641 214.351 389.924 L 214.351 383.206 221.527 383.206 L 228.702 383.206 228.702 351.908 L 228.702 320.611 221.527 320.611 L 214.351 320.611 214.351 314.046 L 214.351 307.481 200.916 307.481 L 187.481 307.481 187.481 294.198 L 187.481 280.916 182.443 280.916 L 177.405 280.916 177.405 274.351 L 177.405 267.786 170.992 267.786 L 164.580 267.786 164.580 261.985 L 164.580 256.183 158.168 256.183 L 151.756 256.183 151.756 249.618 L 151.756 243.053 146.870 243.053 L 141.985 243.053 141.985 210.840 L 141.985 178.626 146.870 178.626 L 151.756 178.626 151.756 172.061 L 151.756 165.496 158.168 165.496 L 164.580 165.496 164.580 159.695 L 164.580 153.893 183.206 153.893 L 201.832 153.893 201.832 159.695 L 201.832 165.496 208.092 165.496 L 214.351 165.496 214.351 159.695 L 214.351 153.893 215.802 153.877 C 216.599 153.869,219.828 153.865,222.977 153.869 L 228.702 153.876 228.702 140.755 L 228.702 127.634 240.156 127.634 L 251.610 127.634 251.530 140.687 L 251.450 153.740 245.115 153.823 L 238.779 153.906 238.779 160.464 L 238.779 167.023 257.557 167.023 L 276.336 167.023 276.336 160.458 L 276.336 153.893 288.397 153.893 L 300.458 153.893 300.458 147.328 L 300.458 140.763 307.634 140.763 L 314.809 140.763 314.809 115.115 L 314.809 89.466 307.634 89.466 L 300.458 89.466 300.458 82.901 L 300.458 76.336 257.557 76.336 L 214.656 76.336 214.656 72.721 C 214.656 70.733,214.566 65.171,214.455 60.361 L 214.253 51.615 207.966 51.533 L 201.679 51.450 201.597 44.962 L 201.515 38.473 195.872 38.473 L 190.229 38.473 190.229 50.840 L 190.229 63.206 195.878 63.206 L 201.527 63.206 201.527 69.771 L 201.527 76.336 189.466 76.336 L 177.405 76.336 177.405 57.412 L 177.405 38.488 182.366 38.405 L 187.328 38.321 187.408 25.115 L 187.487 11.908 176.177 11.908 C 167.283 11.908,164.834 11.992,164.717 12.298 M326.107 25.344 L 326.107 38.473 320.458 38.473 L 314.809 38.473 314.809 44.885 L 314.809 51.298 320.458 51.298 L 326.107 51.298 326.107 57.252 L 326.107 63.206 332.366 63.206 L 338.626 63.206 338.626 37.710 L 338.626 12.214 332.366 12.214 L 326.107 12.214 326.107 25.344 M177.405 82.901 L 177.405 89.466 173.893 89.481 C 171.962 89.489,169.351 89.496,168.092 89.496 C 166.832 89.496,165.527 89.489,165.191 89.481 C 164.574 89.465,164.186 77.137,164.784 76.539 C 164.896 76.427,167.781 76.336,171.196 76.336 L 177.405 76.336 177.405 82.901 M328.931 166.945 C 330.737 166.999,333.691 166.999,335.496 166.945 C 337.302 166.891,335.824 166.847,332.214 166.847 C 328.603 166.847,327.126 166.891,328.931 166.945 M353.375 166.946 C 355.190 167.000,358.075 166.999,359.788 166.945 C 361.500 166.891,360.015 166.847,356.489 166.847 C 352.962 166.847,351.561 166.892,353.375 166.946 M201.832 185.191 L 201.832 191.756 220.153 191.756 L 238.473 191.756 238.473 185.191 L 238.473 178.626 220.153 178.626 L 201.832 178.626 201.832 185.191 M338.931 185.191 L 338.931 191.756 350.840 191.756 L 362.748 191.756 362.748 185.191 L 362.748 178.626 350.840 178.626 L 338.931 178.626 338.931 185.191 M14.512 205.267 C 14.443 205.477,14.413 211.076,14.446 217.710 L 14.504 229.771 20.992 229.853 L 27.481 229.936 27.481 223.365 L 27.481 216.794 33.053 216.794 L 38.626 216.795 38.537 210.840 L 38.448 204.885 26.543 204.885 C 17.289 204.885,14.609 204.970,14.512 205.267 M325.933 326.260 C 325.933 330.290,325.977 331.897,326.030 329.830 C 326.083 327.763,326.082 324.465,326.029 322.502 C 325.976 320.538,325.933 322.229,325.933 326.260 M326.107 389.924 L 326.107 396.336 332.366 396.336 L 338.626 396.336 338.626 389.924 L 338.626 383.511 332.366 383.511 L 326.107 383.511 326.107 389.924 " stroke="none" fill="#e6a534" fill-rule="evenodd"></path><path id="path1" d="M164.580 5.948 L 164.580 11.896 158.244 11.979 L 151.908 12.061 151.829 25.115 L 151.749 38.168 158.165 38.168 L 164.580 38.168 164.580 25.038 L 164.580 11.908 176.031 11.908 L 187.481 11.908 187.481 25.143 L 187.481 38.378 194.427 38.235 C 198.248 38.157,201.418 38.054,201.472 38.007 C 201.548 37.940,201.607 15.872,201.541 12.595 L 201.527 11.908 194.504 11.908 L 187.481 11.908 187.481 5.954 L 187.481 0.000 176.031 0.000 L 164.580 0.000 164.580 5.948 M326.043 5.954 L 326.132 11.908 332.532 11.908 L 338.931 11.908 338.931 44.122 L 338.931 76.336 344.580 76.336 L 350.229 76.336 350.229 101.985 L 350.229 127.634 356.641 127.634 L 363.053 127.634 363.053 147.328 L 363.053 167.023 369.466 167.023 L 375.878 167.023 375.878 172.824 L 375.878 178.626 382.290 178.626 L 388.702 178.626 388.702 210.840 L 388.702 243.053 394.351 243.053 L 400.000 243.053 400.000 210.846 L 400.000 178.639 394.275 178.556 L 388.550 178.473 388.498 174.962 C 388.470 173.031,388.436 170.454,388.422 169.237 L 388.397 167.023 382.137 167.023 L 375.878 167.023 375.878 147.328 L 375.878 127.634 369.466 127.634 L 363.053 127.634 363.053 101.985 L 363.053 76.336 356.641 76.336 L 350.229 76.336 350.229 38.168 L 350.229 0.000 338.092 -0.000 L 325.954 -0.001 326.043 5.954 M314.707 12.112 C 314.595 12.224,314.504 18.132,314.504 25.242 L 314.504 38.168 320.153 38.168 L 325.802 38.168 325.820 35.954 C 325.838 33.786,325.831 13.496,325.811 12.443 C 325.801 11.894,315.240 11.579,314.707 12.112 M140.840 38.409 L 138.321 38.498 138.321 63.982 L 138.321 89.466 145.038 89.466 L 151.756 89.466 151.756 63.969 L 151.756 38.473 149.847 38.459 C 148.798 38.451,146.908 38.417,145.649 38.383 C 144.389 38.349,142.225 38.361,140.840 38.409 M205.878 38.406 L 201.832 38.491 201.832 44.894 L 201.832 51.298 208.092 51.298 L 214.351 51.298 214.351 44.911 L 214.351 38.523 212.137 38.422 C 210.920 38.366,208.103 38.359,205.878 38.406 M301.151 38.417 C 300.474 38.514,300.470 38.553,300.388 44.982 L 300.305 51.450 265.038 51.519 C 245.641 51.556,226.298 51.590,222.054 51.595 L 214.338 51.603 214.421 57.328 L 214.504 63.053 270.153 63.131 L 325.802 63.208 325.802 57.412 L 325.802 51.617 320.229 51.534 L 314.656 51.450 314.574 44.962 L 314.492 38.473 312.589 38.465 C 311.543 38.460,308.695 38.426,306.260 38.388 C 303.824 38.351,301.526 38.364,301.151 38.417 M126.718 96.183 L 126.718 102.595 132.366 102.595 L 138.015 102.595 138.015 96.183 L 138.015 89.771 132.366 89.771 L 126.718 89.771 126.718 96.183 M116.260 102.838 L 114.198 102.929 114.198 115.281 L 114.198 127.634 120.458 127.634 L 126.718 127.634 126.718 115.283 L 126.718 102.933 122.519 102.841 C 120.210 102.790,117.393 102.789,116.260 102.838 M101.374 166.260 L 101.374 204.885 89.160 204.885 L 76.947 204.885 76.947 198.314 L 76.947 191.743 70.611 191.826 L 64.275 191.908 64.235 198.397 L 64.195 204.885 70.571 204.885 L 76.947 204.885 76.947 210.840 L 76.947 216.794 70.528 216.794 L 64.110 216.794 64.192 223.282 L 64.275 229.771 76.260 229.834 L 88.244 229.897 88.244 224.720 L 88.244 219.542 101.069 219.542 L 113.893 219.542 113.893 173.588 L 113.893 127.634 107.634 127.634 L 101.374 127.634 101.374 166.260 M214.417 166.183 L 214.504 178.473 226.489 178.553 L 238.473 178.633 238.473 166.263 L 238.473 153.893 226.402 153.893 L 214.331 153.893 214.417 166.183 M338.931 166.260 L 338.931 178.626 344.580 178.626 L 350.229 178.626 350.229 166.260 L 350.229 153.893 344.580 153.893 L 338.931 153.893 338.931 166.260 M27.176 185.185 L 27.176 191.743 20.840 191.826 L 14.504 191.908 14.421 198.397 L 14.339 204.885 8.696 204.885 L 3.053 204.885 3.053 236.336 L 3.053 267.786 8.702 267.786 L 14.351 267.786 14.351 274.351 L 14.351 280.916 20.763 280.916 L 27.176 280.916 27.176 318.925 L 27.176 356.934 20.840 357.017 L 14.504 357.099 14.421 363.588 L 14.339 370.076 20.757 370.076 L 27.176 370.076 27.176 363.511 L 27.176 356.947 32.824 356.947 L 38.473 356.947 38.473 318.931 L 38.473 280.916 32.824 280.916 L 27.176 280.916 27.176 274.351 L 27.176 267.786 20.763 267.786 L 14.351 267.786 14.351 236.336 L 14.351 204.885 20.763 204.885 L 27.176 204.885 27.176 198.321 L 27.176 191.756 45.649 191.756 L 64.122 191.756 64.122 185.191 L 64.122 178.626 45.649 178.626 L 27.176 178.626 27.176 185.185 M276.336 185.191 L 276.336 191.756 282.748 191.756 L 289.160 191.756 289.160 198.321 L 289.160 204.885 276.641 204.885 L 264.122 204.885 264.122 198.321 L 264.122 191.756 257.863 191.756 L 251.603 191.756 251.603 205.649 L 251.603 219.542 257.252 219.542 L 262.901 219.542 262.901 224.710 L 262.901 229.877 268.168 229.884 C 271.065 229.888,273.744 229.899,274.122 229.908 C 274.806 229.924,274.809 229.945,274.809 234.962 L 274.809 240.000 296.183 240.000 L 317.557 240.000 317.557 234.962 C 317.557 230.372,317.605 229.922,318.092 229.910 C 318.385 229.902,320.927 229.888,323.740 229.880 L 328.855 229.864 328.855 224.703 L 328.855 219.542 333.740 219.542 L 338.626 219.542 338.626 205.649 L 338.626 191.756 332.366 191.756 L 326.107 191.756 326.107 198.321 L 326.107 204.885 313.282 204.885 L 300.458 204.885 300.458 198.321 L 300.458 191.756 307.481 191.756 L 314.504 191.756 314.504 185.191 L 314.504 178.626 295.420 178.626 L 276.336 178.626 276.336 185.191 M51.603 236.489 L 51.603 243.053 57.863 243.053 L 64.122 243.053 64.122 236.489 L 64.122 229.924 57.863 229.924 L 51.603 229.924 51.603 236.489 M38.779 261.985 L 38.779 280.916 45.038 280.916 L 51.298 280.916 51.298 261.985 L 51.298 243.053 45.038 243.053 L 38.779 243.053 38.779 261.985 M375.878 249.618 L 375.878 256.183 369.466 256.183 L 363.053 256.183 363.053 262.748 L 363.053 269.313 356.641 269.313 L 350.229 269.313 350.229 275.878 L 350.229 282.443 344.581 282.443 L 338.933 282.443 338.856 339.466 L 338.779 396.489 332.366 396.489 L 325.954 396.489 325.902 384.733 C 325.874 378.267,325.839 372.668,325.826 372.290 C 325.802 371.603,325.800 371.603,320.153 371.603 L 314.504 371.603 314.504 352.672 L 314.504 333.740 307.481 333.740 L 300.458 333.740 300.458 346.107 L 300.458 358.473 294.046 358.473 L 287.634 358.473 287.634 365.038 L 287.634 371.603 281.221 371.603 L 274.809 371.603 274.809 377.405 L 274.809 383.206 284.580 383.221 C 289.954 383.230,295.382 383.237,296.641 383.237 C 297.901 383.237,299.275 383.230,299.695 383.221 L 300.458 383.206 300.458 377.405 L 300.458 371.603 307.481 371.603 L 314.504 371.603 314.504 390.687 L 314.504 409.771 332.366 409.771 L 350.229 409.771 350.229 346.107 L 350.229 282.443 356.641 282.443 L 363.053 282.443 363.053 275.878 L 363.053 269.313 369.466 269.313 L 375.878 269.313 375.878 262.748 L 375.878 256.183 382.137 256.183 C 387.889 256.183,388.398 256.140,388.414 255.649 C 388.438 254.925,388.439 248.007,388.416 245.267 L 388.397 243.053 382.137 243.053 L 375.878 243.053 375.878 249.618 M228.702 352.061 L 228.702 383.511 221.527 383.511 L 214.351 383.511 214.351 390.083 L 214.351 396.654 208.015 396.571 L 201.679 396.489 201.600 383.435 L 201.520 370.382 139.233 370.382 L 76.947 370.382 76.947 364.427 L 76.947 358.473 70.534 358.473 L 64.122 358.473 64.122 364.427 L 64.122 370.382 52.061 370.382 L 40.000 370.382 40.000 376.794 L 40.000 383.206 42.061 383.213 C 43.195 383.217,62.706 383.223,85.420 383.225 L 126.718 383.230 126.718 396.501 L 126.718 409.771 141.374 409.771 L 156.031 409.771 156.031 403.206 L 156.031 396.641 163.206 396.641 L 170.382 396.641 170.382 389.924 L 170.382 383.206 180.305 383.206 L 190.229 383.206 190.229 396.489 L 190.229 409.771 208.092 409.771 L 225.954 409.771 225.954 403.206 L 225.954 396.641 250.382 396.641 L 274.809 396.641 274.809 390.079 L 274.809 383.516 256.718 383.438 L 238.626 383.359 238.548 351.985 L 238.470 320.611 233.586 320.611 L 228.702 320.611 228.702 352.061 M8.015 370.313 L 3.053 370.397 3.053 390.084 L 3.053 409.771 15.115 409.771 L 27.176 409.771 27.176 403.206 L 27.176 396.641 20.763 396.641 L 14.351 396.641 14.351 383.547 L 14.351 370.453 13.664 370.341 C 13.286 370.279,10.744 370.267,8.015 370.313 M156.031 389.924 L 156.031 396.641 149.008 396.641 L 141.985 396.641 141.985 389.924 L 141.985 383.206 149.008 383.206 L 156.031 383.206 156.031 389.924 M27.246 390.000 L 27.328 396.489 33.664 396.571 L 40.000 396.654 40.000 390.083 L 40.000 383.511 33.582 383.511 L 27.163 383.511 27.246 390.000 " stroke="none" fill="#050506" fill-rule="evenodd"></path><path id="path2" d="M228.702 140.575 L 228.702 153.517 238.855 153.735 C 244.439 153.854,249.557 153.904,250.229 153.846 L 251.450 153.740 251.530 140.687 L 251.610 127.634 240.156 127.634 L 228.702 127.634 228.702 140.575 M326.107 140.763 L 326.107 153.893 332.366 153.893 L 338.626 153.893 338.626 140.763 L 338.626 127.634 332.366 127.634 L 326.107 127.634 326.107 140.763 M164.580 159.695 L 164.580 165.496 158.168 165.496 L 151.756 165.496 151.756 172.061 L 151.756 178.626 146.870 178.626 L 141.985 178.626 141.985 210.840 L 141.985 243.053 146.870 243.053 L 151.756 243.053 151.756 249.618 L 151.756 256.183 158.168 256.183 L 164.580 256.183 164.580 261.985 L 164.580 267.786 170.992 267.786 L 177.405 267.786 177.405 274.351 L 177.405 280.916 182.443 280.916 L 187.481 280.916 187.481 294.198 L 187.481 307.481 200.916 307.481 L 214.351 307.481 214.351 314.089 L 214.351 320.697 226.489 320.578 L 238.626 320.458 238.704 346.031 L 238.782 371.603 256.796 371.603 L 274.809 371.603 274.809 365.038 L 274.809 358.473 281.221 358.473 L 287.634 358.473 287.634 339.542 L 287.634 320.611 294.052 320.611 L 300.470 320.611 300.388 313.969 L 300.305 307.328 282.372 307.249 L 264.440 307.171 264.357 300.685 L 264.275 294.198 251.527 294.119 L 238.779 294.039 238.779 288.242 L 238.779 282.445 288.779 282.367 L 338.779 282.290 338.861 275.802 L 338.943 269.313 344.586 269.313 L 350.229 269.313 350.229 262.748 L 350.229 256.183 356.641 256.183 L 363.053 256.183 363.053 249.625 L 363.053 243.066 369.389 242.983 L 375.725 242.901 375.803 210.763 L 375.881 178.626 369.314 178.626 L 362.748 178.626 362.748 185.191 L 362.748 191.756 350.840 191.756 L 338.931 191.756 338.931 185.191 L 338.931 178.626 326.876 178.626 L 314.821 178.626 314.739 185.267 L 314.656 191.908 307.557 191.990 L 300.458 192.072 300.458 198.479 L 300.458 204.885 313.130 204.885 L 325.802 204.885 325.802 198.321 L 325.802 191.756 332.369 191.756 L 338.937 191.756 338.858 205.725 L 338.779 219.695 333.817 219.779 L 328.855 219.862 328.855 224.893 L 328.855 229.924 323.206 229.924 L 317.557 229.924 317.557 235.115 L 317.557 240.305 296.183 240.305 L 274.809 240.305 274.809 235.121 L 274.809 229.937 268.779 229.854 L 262.748 229.771 262.664 224.816 L 262.580 219.861 257.015 219.778 L 251.450 219.695 251.371 205.725 L 251.292 191.756 257.860 191.756 L 264.427 191.756 264.427 198.321 L 264.427 204.885 276.641 204.885 L 288.855 204.885 288.855 198.479 L 288.855 192.073 282.519 191.991 L 276.183 191.908 276.101 185.271 L 276.019 178.633 263.735 178.553 L 251.450 178.473 251.367 172.748 L 251.284 167.023 245.081 167.023 L 238.877 167.023 238.675 175.775 C 238.564 180.588,238.473 186.153,238.473 188.141 L 238.473 191.756 220.153 191.756 L 201.832 191.756 201.832 185.191 L 201.832 178.626 208.092 178.626 L 214.351 178.626 214.351 172.061 L 214.351 165.496 208.092 165.496 L 201.832 165.496 201.832 159.695 L 201.832 153.893 183.206 153.893 L 164.580 153.893 164.580 159.695 M27.481 198.473 L 27.481 204.885 32.971 204.885 L 38.460 204.885 38.543 210.763 L 38.626 216.641 45.038 216.641 L 51.450 216.641 51.533 210.763 L 51.616 204.885 57.869 204.885 L 64.122 204.885 64.122 198.473 L 64.122 192.061 45.802 192.061 L 27.481 192.061 27.481 198.473 M78.550 358.415 L 77.252 358.508 77.252 364.292 L 77.252 370.076 139.542 370.076 L 201.832 370.076 201.832 364.275 L 201.832 358.473 201.145 358.464 C 196.178 358.393,79.490 358.346,78.550 358.415 " stroke="none" fill="#fbf5e9" fill-rule="evenodd"></path><path id="path3" d="M325.879 11.908 C 325.875 12.664,325.935 13.042,326.012 12.748 C 326.139 12.261,326.705 12.214,332.389 12.214 L 338.626 12.214 338.626 37.710 L 338.626 63.206 332.366 63.206 L 326.107 63.206 326.107 57.252 L 326.107 51.298 320.458 51.298 L 314.809 51.298 314.809 44.885 L 314.809 38.473 320.458 38.473 L 326.107 38.473 326.046 36.107 L 325.986 33.740 325.880 35.954 L 325.775 38.168 318.689 38.223 C 314.792 38.253,312.253 38.329,313.047 38.392 L 314.492 38.506 314.574 44.978 L 314.656 51.450 320.229 51.534 L 325.802 51.617 325.802 57.413 L 325.802 63.209 270.153 63.131 L 214.504 63.053 214.592 69.695 L 214.679 76.336 257.569 76.336 L 300.458 76.336 300.458 82.901 L 300.458 89.466 307.634 89.466 L 314.809 89.466 314.809 115.115 L 314.809 140.763 307.634 140.763 L 300.458 140.763 300.458 147.328 L 300.458 153.893 288.397 153.893 L 276.336 153.893 276.336 160.458 L 276.336 167.023 263.969 167.023 L 251.603 167.023 251.603 172.803 L 251.603 178.583 288.702 178.606 L 325.802 178.628 325.802 172.673 L 325.802 166.718 332.207 166.718 L 338.613 166.718 338.703 172.595 C 338.752 175.828,338.824 172.943,338.862 166.183 L 338.931 153.893 344.580 153.893 L 350.229 153.893 350.229 160.294 L 350.229 166.694 356.642 166.782 L 363.054 166.870 363.054 147.252 L 363.053 127.634 356.641 127.634 L 350.229 127.634 350.229 101.985 L 350.229 76.336 344.580 76.336 L 338.931 76.336 338.931 44.122 L 338.931 11.908 332.540 11.908 C 326.155 11.908,326.149 11.908,326.017 11.221 C 325.944 10.844,325.882 11.153,325.879 11.908 M325.913 16.336 C 325.914 18.015,325.965 18.663,326.027 17.776 C 326.089 16.889,326.088 15.515,326.026 14.723 C 325.963 13.931,325.912 14.656,325.913 16.336 M325.904 22.901 C 325.904 24.160,325.958 24.676,326.024 24.046 C 326.090 23.416,326.090 22.385,326.024 21.756 C 325.958 21.126,325.904 21.641,325.904 22.901 M164.580 31.679 L 164.580 38.168 156.718 38.221 C 152.393 38.251,149.473 38.332,150.229 38.403 C 150.985 38.473,157.408 38.433,164.504 38.314 L 177.405 38.096 177.405 31.732 L 177.405 25.367 170.992 25.279 L 164.580 25.191 164.580 31.679 M325.904 30.229 C 325.904 31.489,325.958 32.004,326.024 31.374 C 326.090 30.744,326.090 29.714,326.024 29.084 C 325.958 28.454,325.904 28.969,325.904 30.229 M138.130 38.616 C 138.035 38.862,138.028 39.240,138.115 39.456 C 138.202 39.671,138.283 39.544,138.297 39.173 C 138.319 38.542,138.484 38.491,140.840 38.395 L 143.359 38.292 140.830 38.230 C 138.848 38.181,138.264 38.265,138.130 38.616 M145.424 38.387 C 145.888 38.457,146.575 38.455,146.951 38.383 C 147.326 38.310,146.947 38.253,146.107 38.255 C 145.267 38.258,144.960 38.317,145.424 38.387 M182.366 38.405 L 177.405 38.488 177.405 57.406 L 177.405 76.323 171.069 76.406 L 164.733 76.489 164.650 82.977 C 164.570 89.306,164.583 89.466,165.185 89.481 C 165.524 89.489,166.832 89.496,168.092 89.496 C 169.351 89.496,171.962 89.489,173.893 89.481 L 177.405 89.466 177.405 82.901 L 177.405 76.336 189.466 76.336 L 201.527 76.336 201.527 69.771 L 201.527 63.206 195.878 63.206 L 190.229 63.206 190.229 50.840 L 190.229 38.473 195.872 38.473 L 201.515 38.473 201.597 44.962 L 201.679 51.450 210.687 51.457 L 219.695 51.464 210.763 51.376 L 201.832 51.289 201.832 44.903 C 201.832 39.086,201.880 38.504,202.366 38.361 C 202.882 38.209,192.598 38.232,182.366 38.405 M204.821 38.394 C 205.877 38.454,207.526 38.454,208.485 38.393 C 209.444 38.333,208.580 38.284,206.565 38.285 C 204.550 38.285,203.765 38.335,204.821 38.394 M212.294 38.387 C 212.758 38.457,213.445 38.455,213.821 38.383 C 214.197 38.310,213.817 38.253,212.977 38.255 C 212.137 38.258,211.830 38.317,212.294 38.387 M303.292 38.393 C 304.094 38.456,305.331 38.455,306.040 38.391 C 306.748 38.327,306.092 38.275,304.580 38.276 C 303.069 38.277,302.489 38.330,303.292 38.393 M308.172 38.387 C 308.636 38.457,309.323 38.455,309.699 38.383 C 310.074 38.310,309.695 38.253,308.855 38.255 C 308.015 38.258,307.708 38.317,308.172 38.387 M220.986 51.518 C 221.528 51.586,222.489 51.587,223.123 51.521 C 223.756 51.454,223.313 51.399,222.137 51.398 C 220.962 51.397,220.444 51.451,220.986 51.518 M225.260 51.518 C 225.802 51.586,226.764 51.587,227.398 51.521 C 228.031 51.454,227.588 51.399,226.412 51.398 C 225.237 51.397,224.718 51.451,225.260 51.518 M230.763 51.513 C 231.141 51.586,231.760 51.586,232.137 51.513 C 232.515 51.440,232.206 51.381,231.450 51.381 C 230.695 51.381,230.385 51.440,230.763 51.513 M233.810 51.518 C 234.352 51.586,235.314 51.587,235.947 51.521 C 236.581 51.454,236.137 51.399,234.962 51.398 C 233.786 51.397,233.268 51.451,233.810 51.518 M239.612 51.518 C 240.154 51.586,241.115 51.587,241.749 51.521 C 242.382 51.454,241.939 51.399,240.763 51.398 C 239.588 51.397,239.069 51.451,239.612 51.518 M243.886 51.518 C 244.428 51.586,245.390 51.587,246.024 51.521 C 246.657 51.454,246.214 51.399,245.038 51.398 C 243.863 51.397,243.344 51.451,243.886 51.518 M248.161 51.518 C 248.703 51.586,249.665 51.587,250.299 51.521 C 250.932 51.454,250.489 51.399,249.313 51.398 C 248.137 51.397,247.619 51.451,248.161 51.518 M252.436 51.518 C 252.978 51.586,253.940 51.587,254.573 51.521 C 255.207 51.454,254.763 51.399,253.588 51.398 C 252.412 51.397,251.894 51.451,252.436 51.518 M256.711 51.518 C 257.253 51.586,258.215 51.587,258.848 51.521 C 259.482 51.454,259.038 51.399,257.863 51.398 C 256.687 51.397,256.169 51.451,256.711 51.518 M262.065 51.517 C 262.529 51.587,263.216 51.585,263.592 51.513 C 263.968 51.440,263.588 51.383,262.748 51.385 C 261.908 51.387,261.601 51.447,262.065 51.517 M269.389 51.523 C 270.355 51.584,271.935 51.584,272.901 51.523 C 273.866 51.463,273.076 51.413,271.145 51.413 C 269.214 51.413,268.424 51.463,269.389 51.523 M277.169 51.518 C 277.711 51.586,278.673 51.587,279.306 51.521 C 279.940 51.454,279.496 51.399,278.321 51.398 C 277.145 51.397,276.627 51.451,277.169 51.518 M281.444 51.518 C 281.986 51.586,282.947 51.587,283.581 51.521 C 284.214 51.454,283.771 51.399,282.595 51.398 C 281.420 51.397,280.902 51.451,281.444 51.518 M285.718 51.518 C 286.260 51.586,287.222 51.587,287.856 51.521 C 288.489 51.454,288.046 51.399,286.870 51.398 C 285.695 51.397,285.176 51.451,285.718 51.518 M289.993 51.518 C 290.535 51.586,291.497 51.587,292.131 51.521 C 292.764 51.454,292.321 51.399,291.145 51.398 C 289.969 51.397,289.451 51.451,289.993 51.518 M295.348 51.517 C 295.812 51.587,296.499 51.585,296.874 51.513 C 297.250 51.440,296.870 51.383,296.031 51.385 C 295.191 51.387,294.884 51.447,295.348 51.517 M138.057 88.757 C 138.030 89.187,137.772 89.470,137.328 89.556 L 136.641 89.688 137.328 89.729 L 138.015 89.771 138.015 96.178 L 138.015 102.584 130.992 102.675 L 123.969 102.765 131.069 102.757 L 138.168 102.748 138.250 96.265 L 138.333 89.783 145.121 89.694 L 151.908 89.606 145.136 89.536 C 138.380 89.466,138.363 89.464,138.231 88.779 C 138.099 88.097,138.098 88.096,138.057 88.757 M129.077 89.686 C 129.619 89.753,130.581 89.755,131.215 89.688 C 131.848 89.622,131.405 89.567,130.229 89.566 C 129.053 89.564,128.535 89.619,129.077 89.686 M133.352 89.686 C 133.894 89.753,134.856 89.755,135.489 89.688 C 136.123 89.622,135.679 89.567,134.504 89.566 C 133.328 89.564,132.810 89.619,133.352 89.686 M114.007 103.043 C 113.913 103.290,113.906 103.668,113.993 103.883 C 114.079 104.099,114.161 103.976,114.174 103.610 C 114.188 103.245,114.439 102.883,114.733 102.806 C 115.234 102.675,115.233 102.664,114.723 102.631 C 114.424 102.611,114.102 102.797,114.007 103.043 M116.111 102.815 C 116.575 102.885,117.262 102.883,117.638 102.810 C 118.013 102.738,117.634 102.680,116.794 102.683 C 115.954 102.685,115.647 102.744,116.111 102.815 M120.528 102.816 C 121.070 102.883,122.031 102.884,122.665 102.818 C 123.298 102.752,122.855 102.697,121.679 102.696 C 120.504 102.694,119.985 102.748,120.528 102.816 M336.870 127.625 L 338.931 127.634 338.931 140.763 L 338.931 153.893 332.366 153.893 L 325.802 153.893 325.801 140.687 L 325.801 127.481 330.305 127.549 C 332.782 127.586,335.737 127.620,336.870 127.625 M114.042 173.588 C 114.042 198.947,114.078 209.366,114.122 196.742 C 114.166 184.117,114.166 163.369,114.122 150.635 C 114.078 137.900,114.042 148.229,114.042 173.588 M238.603 160.458 C 238.604 164.153,238.648 165.622,238.701 163.724 C 238.755 161.825,238.755 158.802,238.701 157.006 C 238.647 155.210,238.603 156.763,238.603 160.458 M388.500 169.160 C 388.500 170.420,388.554 170.935,388.619 170.305 C 388.685 169.676,388.685 168.645,388.619 168.015 C 388.554 167.385,388.500 167.901,388.500 169.160 M388.484 175.725 C 388.487 176.565,388.546 176.872,388.616 176.408 C 388.686 175.944,388.684 175.257,388.612 174.881 C 388.539 174.506,388.482 174.885,388.484 175.725 M388.544 212.977 C 388.544 231.954,388.581 239.673,388.626 230.129 C 388.671 220.586,388.671 205.059,388.626 195.625 C 388.581 186.192,388.544 194.000,388.544 212.977 M27.481 223.370 L 27.481 229.947 20.916 229.859 L 14.351 229.771 14.351 248.779 L 14.351 267.786 20.763 267.786 L 27.176 267.786 27.176 274.351 L 27.176 280.916 32.823 280.916 L 38.471 280.916 38.550 319.008 C 38.613 349.665,38.643 345.970,38.703 300.076 L 38.779 243.053 45.036 243.053 L 51.293 243.053 51.374 262.061 L 51.455 281.069 51.529 258.599 C 51.570 246.241,51.512 231.779,51.401 226.462 L 51.199 216.794 39.340 216.794 L 27.481 216.794 27.481 223.370 M88.370 224.733 C 88.370 227.672,88.416 228.874,88.472 227.405 C 88.528 225.935,88.528 223.531,88.472 222.061 C 88.416 220.592,88.370 221.794,88.370 224.733 M388.500 250.992 C 388.500 252.252,388.554 252.767,388.619 252.137 C 388.685 251.508,388.685 250.477,388.619 249.847 C 388.554 249.218,388.500 249.733,388.500 250.992 M338.701 300.687 L 338.626 319.084 332.372 319.084 L 326.118 319.084 326.036 326.336 L 325.954 333.588 320.229 333.671 L 314.504 333.754 314.504 352.678 L 314.504 371.603 320.153 371.603 C 325.799 371.603,325.802 371.603,325.830 372.290 C 325.846 372.668,325.869 375.656,325.881 378.931 C 325.893 382.206,325.959 384.576,326.026 384.198 C 326.149 383.512,326.158 383.511,332.388 383.511 L 338.626 383.511 338.626 389.924 L 338.626 396.336 332.383 396.336 L 326.140 396.336 326.016 394.885 L 325.892 393.435 325.923 394.962 L 325.954 396.489 332.297 396.571 C 337.206 396.635,338.674 396.566,338.788 396.266 C 338.869 396.052,338.900 370.321,338.856 339.084 C 338.813 307.847,338.743 290.569,338.701 300.687 M3.886 370.297 C 4.428 370.364,5.390 370.365,6.024 370.299 C 6.657 370.233,6.214 370.178,5.038 370.177 C 3.863 370.175,3.344 370.229,3.886 370.297 M8.161 370.297 C 8.703 370.364,9.665 370.365,10.299 370.299 C 10.932 370.233,10.489 370.178,9.313 370.177 C 8.137 370.175,7.619 370.229,8.161 370.297 M16.565 370.304 C 18.538 370.358,21.767 370.358,23.740 370.304 C 25.714 370.251,24.099 370.208,20.153 370.208 C 16.206 370.208,14.592 370.251,16.565 370.304 M45.858 370.305 C 49.163 370.354,54.659 370.354,58.071 370.305 C 61.483 370.256,58.779 370.216,52.061 370.215 C 45.344 370.215,42.552 370.256,45.858 370.305 M201.667 383.359 C 201.667 390.580,201.707 393.491,201.755 389.827 C 201.804 386.163,201.804 380.254,201.755 376.697 C 201.707 373.140,201.667 376.137,201.667 383.359 M238.616 377.405 L 238.626 383.359 257.252 383.362 L 275.878 383.366 257.335 383.284 L 238.792 383.201 238.698 377.326 L 238.605 371.450 238.616 377.405 M30.611 383.434 C 32.584 383.487,35.813 383.487,37.786 383.434 C 39.760 383.381,38.145 383.337,34.198 383.337 C 30.252 383.337,28.637 383.381,30.611 383.434 M60.687 383.422 C 61.065 383.494,61.683 383.494,62.061 383.422 C 62.439 383.349,62.130 383.289,61.374 383.289 C 60.618 383.289,60.309 383.349,60.687 383.422 M90.611 383.422 C 90.989 383.494,91.607 383.494,91.985 383.422 C 92.363 383.349,92.053 383.289,91.298 383.289 C 90.542 383.289,90.233 383.349,90.611 383.422 M110.458 383.422 C 110.836 383.494,111.454 383.494,111.832 383.422 C 112.210 383.349,111.901 383.289,111.145 383.289 C 110.389 383.289,110.080 383.349,110.458 383.422 M145.420 383.434 C 147.393 383.487,150.622 383.487,152.595 383.434 C 154.569 383.381,152.954 383.337,149.008 383.337 C 145.061 383.337,143.447 383.381,145.420 383.434 M174.268 383.426 C 174.810 383.494,175.772 383.495,176.405 383.429 C 177.039 383.363,176.595 383.308,175.420 383.306 C 174.244 383.305,173.726 383.359,174.268 383.426 M179.623 383.425 C 180.087 383.495,180.774 383.494,181.149 383.421 C 181.525 383.349,181.145 383.291,180.305 383.293 C 179.466 383.296,179.158 383.355,179.623 383.425 M185.267 383.422 C 185.645 383.494,186.263 383.494,186.641 383.422 C 187.019 383.349,186.710 383.289,185.954 383.289 C 185.198 383.289,184.889 383.349,185.267 383.422 M188.172 383.425 C 188.636 383.495,189.323 383.494,189.699 383.421 C 190.074 383.349,189.695 383.291,188.855 383.293 C 188.015 383.296,187.708 383.355,188.172 383.425 M217.956 383.434 C 220.023 383.487,223.321 383.487,225.285 383.434 C 227.248 383.381,225.557 383.338,221.527 383.338 C 217.496 383.338,215.890 383.381,217.956 383.434 M289.695 383.422 C 290.073 383.494,290.691 383.494,291.069 383.422 C 291.447 383.349,291.137 383.289,290.382 383.289 C 289.626 383.289,289.317 383.349,289.695 383.422 M325.904 389.924 C 325.904 391.183,325.958 391.698,326.024 391.069 C 326.090 390.439,326.090 389.408,326.024 388.779 C 325.958 388.149,325.904 388.664,325.904 389.924 " stroke="none" fill="#a8540d" fill-rule="evenodd"></path><path id="path5" d="M201.614 35.267 C 201.616 36.107,201.676 36.414,201.746 35.950 C 201.816 35.486,201.814 34.799,201.742 34.423 C 201.669 34.048,201.612 34.427,201.614 35.267 M325.942 140.611 C 325.942 147.832,325.982 150.743,326.030 147.079 C 326.079 143.415,326.079 137.506,326.030 133.949 C 325.981 130.391,325.941 133.389,325.942 140.611 M338.766 140.611 C 338.766 147.832,338.806 150.743,338.855 147.079 C 338.903 143.415,338.903 137.506,338.855 133.949 C 338.806 130.391,338.766 133.389,338.766 140.611 M231.236 153.815 C 232.714 153.871,235.050 153.871,236.427 153.815 C 237.804 153.758,236.595 153.712,233.740 153.713 C 230.885 153.713,229.759 153.759,231.236 153.815 M238.576 169.160 C 238.576 170.420,238.630 170.935,238.696 170.305 C 238.762 169.676,238.762 168.645,238.696 168.015 C 238.630 167.385,238.576 167.901,238.576 169.160 M251.425 172.672 C 251.425 175.863,251.471 177.126,251.526 175.480 C 251.581 173.834,251.580 171.224,251.525 169.679 C 251.470 168.134,251.425 169.481,251.425 172.672 M325.829 172.824 L 325.849 178.626 332.314 178.626 L 338.779 178.627 338.690 172.825 L 338.600 167.023 332.205 167.023 L 325.810 167.023 325.829 172.824 M350.229 172.824 L 350.229 178.626 363.055 178.626 L 375.881 178.626 375.803 210.763 L 375.725 242.901 369.389 242.983 L 363.053 243.066 363.053 249.625 L 363.053 256.183 356.641 256.183 L 350.229 256.183 350.229 262.748 L 350.229 269.313 344.586 269.313 L 338.943 269.313 338.861 275.802 L 338.779 282.290 288.779 282.367 L 238.779 282.445 238.779 288.242 L 238.779 294.039 251.527 294.119 L 264.275 294.198 264.357 300.685 L 264.440 307.171 282.372 307.249 L 300.305 307.328 300.388 313.969 L 300.470 320.611 294.052 320.611 L 287.634 320.611 287.634 339.542 L 287.634 358.473 281.221 358.473 L 274.809 358.473 274.809 365.038 L 274.809 371.603 256.794 371.603 L 238.779 371.603 238.779 368.651 C 238.779 367.028,238.711 365.767,238.629 365.849 C 238.547 365.931,238.569 369.870,238.679 374.602 L 238.877 383.206 256.843 383.206 L 274.809 383.206 274.809 377.405 L 274.809 371.603 281.221 371.603 L 287.634 371.603 287.634 365.038 L 287.634 358.473 294.046 358.473 L 300.458 358.473 300.458 346.107 L 300.458 333.740 313.130 333.740 L 325.802 333.740 325.802 326.412 L 325.802 319.084 332.214 319.084 L 338.626 319.084 338.626 300.763 L 338.626 282.443 344.427 282.443 L 350.229 282.443 350.229 275.878 L 350.229 269.313 356.641 269.313 L 363.053 269.313 363.053 262.748 L 363.053 256.183 369.466 256.183 L 375.878 256.183 375.878 249.618 L 375.878 243.053 382.137 243.053 L 388.397 243.053 388.397 210.840 L 388.397 178.626 382.137 178.626 L 375.878 178.626 375.878 172.824 L 375.878 167.023 363.053 167.023 L 350.229 167.023 350.229 172.824 M238.576 174.962 C 238.576 176.221,238.630 176.737,238.696 176.107 C 238.762 175.477,238.762 174.447,238.696 173.817 C 238.630 173.187,238.576 173.702,238.576 174.962 M276.174 185.191 L 276.183 191.908 282.513 191.991 L 288.843 192.073 288.935 198.480 L 289.026 204.886 289.017 198.397 L 289.008 191.908 282.678 191.826 L 276.348 191.743 276.256 185.108 L 276.164 178.473 276.174 185.191 M314.574 185.109 L 314.504 191.744 307.405 191.832 L 300.305 191.920 307.414 191.991 C 312.948 192.045,314.556 191.975,314.672 191.671 C 314.755 191.457,314.782 188.400,314.733 184.878 L 314.643 178.473 314.574 185.109 M27.246 198.397 L 27.315 205.038 27.404 198.552 L 27.493 192.066 45.884 191.985 L 64.275 191.904 45.725 191.830 L 27.176 191.756 27.246 198.397 M251.450 205.725 L 251.450 219.695 257.015 219.778 L 262.580 219.861 262.672 224.816 L 262.764 229.771 262.833 224.656 L 262.901 219.542 257.255 219.542 L 251.609 219.542 251.530 205.649 L 251.450 191.756 251.450 205.725 M325.932 198.321 C 325.932 202.015,325.976 203.485,326.030 201.586 C 326.083 199.688,326.083 196.665,326.029 194.869 C 325.975 193.073,325.931 194.626,325.932 198.321 M264.234 196.183 C 264.234 197.863,264.286 198.511,264.348 197.623 C 264.409 196.736,264.409 195.362,264.346 194.570 C 264.283 193.778,264.233 194.504,264.234 196.183 M338.737 196.183 C 338.738 197.863,338.790 198.511,338.851 197.623 C 338.913 196.736,338.913 195.362,338.850 194.570 C 338.787 193.778,338.737 194.504,338.737 196.183 M264.225 202.748 C 264.225 204.008,264.279 204.523,264.345 203.893 C 264.410 203.263,264.410 202.233,264.345 201.603 C 264.279 200.973,264.225 201.489,264.225 202.748 M338.729 202.748 C 338.729 204.008,338.783 204.523,338.848 203.893 C 338.914 203.263,338.914 202.233,338.848 201.603 C 338.783 200.973,338.729 201.489,338.729 202.748 M51.527 212.137 C 51.439 216.126,51.387 221.725,51.409 224.580 L 51.450 229.771 57.786 229.854 L 64.122 229.936 64.122 223.365 L 64.122 216.794 70.534 216.794 L 76.947 216.794 76.947 210.840 L 76.947 204.885 64.316 204.885 L 51.685 204.885 51.527 212.137 M338.729 210.076 C 338.729 211.336,338.783 211.851,338.848 211.221 C 338.914 210.592,338.914 209.561,338.848 208.931 C 338.783 208.302,338.729 208.817,338.729 210.076 M338.689 216.557 L 338.626 219.527 333.664 219.619 L 328.702 219.711 333.674 219.779 C 339.434 219.858,338.999 220.149,338.854 216.312 L 338.752 213.588 338.689 216.557 M285.420 240.229 C 291.340 240.275,301.027 240.275,306.947 240.229 C 312.866 240.183,308.023 240.145,296.183 240.145 C 284.344 240.145,279.500 240.183,285.420 240.229 M233.495 320.530 L 238.440 320.626 238.561 321.994 L 238.682 323.363 238.654 321.910 L 238.626 320.458 233.588 320.446 L 228.550 320.434 233.495 320.530 M238.576 327.023 C 238.576 328.282,238.630 328.798,238.696 328.168 C 238.762 327.538,238.762 326.508,238.696 325.878 C 238.630 325.248,238.576 325.763,238.576 327.023 M238.576 334.351 C 238.576 335.611,238.630 336.126,238.696 335.496 C 238.762 334.866,238.762 333.836,238.696 333.206 C 238.630 332.576,238.576 333.092,238.576 334.351 M238.585 340.916 C 238.586 342.595,238.637 343.243,238.699 342.356 C 238.761 341.469,238.760 340.095,238.697 339.303 C 238.635 338.511,238.584 339.237,238.585 340.916 M238.585 348.244 C 238.586 349.924,238.637 350.572,238.699 349.684 C 238.761 348.797,238.760 347.423,238.697 346.631 C 238.635 345.839,238.584 346.565,238.585 348.244 M238.576 354.809 C 238.576 356.069,238.630 356.584,238.696 355.954 C 238.762 355.324,238.762 354.294,238.696 353.664 C 238.630 353.034,238.576 353.550,238.576 354.809 M77.089 364.275 L 77.099 370.229 78.399 370.259 L 79.699 370.289 78.482 370.165 L 77.265 370.042 77.172 364.181 L 77.078 358.321 77.089 364.275 M238.576 362.137 C 238.576 363.397,238.630 363.912,238.696 363.282 C 238.762 362.653,238.762 361.622,238.696 360.992 C 238.630 360.363,238.576 360.878,238.576 362.137 M80.833 370.297 C 81.375 370.364,82.337 370.365,82.970 370.299 C 83.604 370.233,83.160 370.178,81.985 370.177 C 80.809 370.175,80.291 370.229,80.833 370.297 M85.108 370.297 C 85.650 370.364,86.612 370.365,87.245 370.299 C 87.879 370.233,87.435 370.178,86.260 370.177 C 85.084 370.175,84.566 370.229,85.108 370.297 M89.383 370.297 C 89.925 370.364,90.886 370.365,91.520 370.299 C 92.153 370.233,91.710 370.178,90.534 370.177 C 89.359 370.175,88.840 370.229,89.383 370.297 M93.657 370.297 C 94.199 370.364,95.161 370.365,95.795 370.299 C 96.428 370.233,95.985 370.178,94.809 370.177 C 93.634 370.175,93.115 370.229,93.657 370.297 M98.702 370.295 C 99.164 370.365,99.920 370.365,100.382 370.295 C 100.844 370.225,100.466 370.168,99.542 370.168 C 98.618 370.168,98.240 370.225,98.702 370.295 M102.207 370.297 C 102.749 370.364,103.711 370.365,104.344 370.299 C 104.978 370.233,104.534 370.178,103.359 370.177 C 102.183 370.175,101.665 370.229,102.207 370.297 M106.482 370.297 C 107.024 370.364,107.986 370.365,108.619 370.299 C 109.253 370.233,108.809 370.178,107.634 370.177 C 106.458 370.175,105.940 370.229,106.482 370.297 M110.757 370.297 C 111.299 370.364,112.260 370.365,112.894 370.299 C 113.527 370.233,113.084 370.178,111.908 370.177 C 110.733 370.175,110.214 370.229,110.757 370.297 M115.031 370.297 C 115.573 370.364,116.535 370.365,117.169 370.299 C 117.802 370.233,117.359 370.178,116.183 370.177 C 115.008 370.175,114.489 370.229,115.031 370.297 M123.282 370.305 C 126.011 370.355,130.477 370.355,133.206 370.305 C 135.935 370.254,133.702 370.213,128.244 370.213 C 122.786 370.213,120.553 370.254,123.282 370.305 M139.466 370.300 C 140.179 370.364,141.347 370.364,142.061 370.300 C 142.775 370.236,142.191 370.183,140.763 370.183 C 139.336 370.183,138.752 370.236,139.466 370.300 M144.344 370.297 C 144.886 370.364,145.848 370.365,146.482 370.299 C 147.115 370.233,146.672 370.178,145.496 370.177 C 144.321 370.175,143.802 370.229,144.344 370.297 M152.595 370.305 C 155.324 370.355,159.790 370.355,162.519 370.305 C 165.248 370.254,163.015 370.213,157.557 370.213 C 152.099 370.213,149.866 370.254,152.595 370.305 M168.466 370.297 C 169.009 370.364,169.970 370.365,170.604 370.299 C 171.237 370.233,170.794 370.178,169.618 370.177 C 168.443 370.175,167.924 370.229,168.466 370.297 M175.055 370.304 C 176.869 370.358,179.755 370.358,181.467 370.304 C 183.179 370.250,181.695 370.205,178.168 370.206 C 174.641 370.206,173.240 370.250,175.055 370.304 M186.628 370.302 C 187.754 370.361,189.678 370.361,190.903 370.303 C 192.128 370.245,191.206 370.197,188.855 370.197 C 186.504 370.196,185.502 370.244,186.628 370.302 M194.115 370.297 C 194.657 370.364,195.619 370.365,196.253 370.299 C 196.886 370.233,196.443 370.178,195.267 370.177 C 194.092 370.175,193.573 370.229,194.115 370.297 M198.550 370.299 C 199.179 370.365,200.210 370.365,200.840 370.299 C 201.469 370.233,200.954 370.179,199.695 370.179 C 198.435 370.179,197.920 370.233,198.550 370.299 M141.985 390.076 L 141.985 396.641 149.008 396.641 L 156.031 396.641 156.031 390.076 L 156.031 383.511 149.008 383.511 L 141.985 383.511 141.985 390.076 " stroke="none" fill="#7b7280" fill-rule="evenodd"></path></g></svg>