<svg id="svg" version="1.1" xmlns="http://www.w3.org/2000/svg" xmlns:xlink="http://www.w3.org/1999/xlink" width="400" height="410.99236641221376" viewBox="0, 0, 400,410.99236641221376"><g id="svgg"><path id="path0" d="M164.580 25.038 L 164.580 38.168 158.168 38.168 L 151.756 38.168 151.756 63.817 L 151.756 89.466 145.038 89.466 L 138.321 89.466 138.321 96.031 L 138.321 102.595 132.519 102.595 L 126.718 102.595 126.718 115.115 L 126.718 127.634 120.320 127.634 L 113.923 127.634 113.916 172.137 C 113.912 196.615,113.905 217.294,113.901 218.092 L 113.893 219.542 101.046 219.542 L 88.199 219.542 88.249 220.992 C 88.276 221.790,88.286 224.057,88.271 226.031 L 88.244 229.618 76.183 229.618 L 64.122 229.618 64.122 236.177 L 64.122 242.736 57.786 242.818 L 51.450 242.901 51.384 260.458 C 51.347 270.115,51.313 278.668,51.308 279.466 L 51.298 280.916 44.903 280.916 L 38.509 280.916 38.501 338.626 L 38.493 396.336 44.895 396.336 L 51.298 396.336 51.298 389.771 L 51.298 383.206 57.710 383.206 L 64.122 383.206 64.122 370.686 L 64.122 358.167 132.901 358.244 L 201.679 358.321 201.762 364.198 L 201.845 370.076 208.098 370.076 L 214.351 370.076 214.351 376.641 L 214.351 383.206 221.527 383.206 L 228.702 383.206 228.702 389.771 L 228.702 396.336 233.588 396.336 L 238.473 396.336 238.473 377.405 L 238.473 358.473 233.588 358.473 L 228.702 358.473 228.702 339.389 L 228.702 320.305 221.527 320.305 L 214.351 320.305 214.351 313.740 L 214.351 307.176 200.916 307.176 L 187.481 307.176 187.481 294.046 L 187.481 280.916 182.443 280.916 L 177.405 280.916 177.405 274.351 L 177.405 267.786 170.992 267.786 L 164.580 267.786 164.580 261.991 L 164.580 256.196 158.244 256.113 L 151.908 256.031 151.826 249.389 L 151.744 242.748 146.710 242.748 L 141.677 242.748 141.754 210.611 L 141.832 178.473 146.788 178.389 L 151.744 178.306 151.826 171.825 L 151.908 165.344 158.244 165.261 L 164.580 165.178 164.580 159.383 L 164.580 153.588 183.053 153.588 L 201.527 153.588 201.527 159.389 L 201.527 165.191 207.939 165.191 L 214.351 165.191 214.351 159.389 L 214.351 153.588 221.527 153.588 L 228.702 153.588 228.702 140.458 L 228.702 127.328 240.000 127.328 L 251.298 127.328 251.298 140.458 L 251.298 153.588 244.897 153.588 L 238.497 153.588 238.499 160.153 L 238.500 166.718 244.899 166.718 L 251.298 166.718 251.367 172.595 L 251.436 178.473 251.526 172.752 L 251.617 167.030 263.900 166.950 L 276.183 166.870 276.266 160.382 L 276.348 153.893 288.403 153.893 L 300.458 153.893 300.458 147.328 L 300.458 140.763 307.634 140.763 L 314.809 140.763 314.809 115.115 L 314.809 89.466 313.206 89.442 C 312.324 89.429,309.095 89.428,306.031 89.439 L 300.458 89.460 300.458 82.745 L 300.458 76.031 257.557 76.031 L 214.656 76.031 214.656 72.595 C 214.656 70.706,214.565 65.141,214.454 60.229 L 214.253 51.298 207.890 51.298 L 201.527 51.298 201.527 44.733 L 201.527 38.168 195.878 38.168 L 190.229 38.168 190.229 50.534 L 190.229 62.901 195.878 62.901 L 201.527 62.901 201.527 69.618 L 201.527 76.336 189.466 76.336 L 177.405 76.336 177.405 57.252 L 177.405 38.168 182.443 38.168 L 187.481 38.168 187.481 25.038 L 187.481 11.908 176.031 11.908 L 164.580 11.908 164.580 25.038 M326.107 25.038 L 326.107 38.168 320.458 38.168 L 314.809 38.168 314.809 44.701 L 314.809 51.233 319.618 51.246 C 322.263 51.253,324.805 51.268,325.267 51.278 L 326.107 51.298 326.107 57.099 L 326.107 62.901 332.366 62.901 L 338.626 62.901 338.626 37.405 L 338.626 11.908 332.366 11.908 L 326.107 11.908 326.107 25.038 M177.405 82.901 L 177.405 89.466 170.992 89.466 L 164.580 89.466 164.580 82.901 L 164.580 76.336 170.992 76.336 L 177.405 76.336 177.405 82.901 M338.699 140.376 L 338.626 153.576 332.137 153.664 L 325.649 153.753 332.147 153.823 C 337.116 153.877,338.680 153.803,338.792 153.511 C 338.872 153.302,338.901 147.290,338.855 140.153 L 338.772 127.176 338.699 140.376 M208.168 178.556 L 201.832 178.638 201.832 185.044 L 201.832 191.450 220.153 191.450 L 238.473 191.450 238.473 185.045 L 238.473 178.640 226.489 178.557 C 219.897 178.511,211.653 178.510,208.168 178.556 M344.351 178.557 L 338.931 178.640 338.931 185.045 L 338.931 191.450 350.840 191.450 L 362.748 191.450 362.748 185.050 L 362.748 178.650 356.260 178.561 C 352.691 178.513,347.332 178.511,344.351 178.557 M14.351 217.405 L 14.351 229.924 20.763 229.924 L 27.176 229.924 27.176 223.359 L 27.176 216.794 39.313 216.724 C 46.128 216.685,48.605 216.615,44.962 216.565 L 38.473 216.476 38.473 210.681 L 38.473 204.885 26.412 204.885 L 14.351 204.885 14.351 217.405 M300.458 389.771 L 300.458 396.336 307.481 396.336 L 314.504 396.336 314.504 389.771 L 314.504 383.206 307.481 383.206 L 300.458 383.206 300.458 389.771 " stroke="none" fill="#e7a534" fill-rule="evenodd"></path><path id="path1" d="M164.580 5.954 L 164.580 11.908 158.168 11.908 L 151.756 11.908 151.756 25.038 L 151.756 38.168 145.038 38.168 L 138.321 38.168 138.321 63.817 L 138.321 89.466 145.038 89.466 L 151.756 89.466 151.756 63.817 L 151.756 38.168 158.168 38.168 L 164.580 38.168 164.580 25.038 L 164.580 11.908 165.954 11.893 C 166.710 11.885,168.359 11.878,169.618 11.878 C 170.878 11.878,175.412 11.885,179.695 11.893 L 187.481 11.908 187.481 25.038 L 187.481 38.168 194.504 38.168 L 201.527 38.168 201.527 44.733 L 201.527 51.298 207.939 51.298 L 214.351 51.298 214.351 57.099 L 214.351 62.901 270.076 62.901 L 325.802 62.901 325.830 60.687 C 325.863 58.084,325.862 56.187,325.827 53.359 L 325.802 51.298 320.153 51.298 L 314.504 51.298 314.504 44.733 L 314.504 38.168 320.153 38.168 C 325.326 38.168,325.802 38.123,325.809 37.634 C 325.828 36.407,325.837 14.690,325.820 13.359 L 325.802 11.908 320.153 11.908 L 314.504 11.908 314.504 25.038 L 314.504 38.168 307.481 38.168 L 300.458 38.168 300.458 44.733 L 300.458 51.298 257.405 51.298 L 214.351 51.298 214.351 44.733 L 214.351 38.168 207.939 38.168 L 201.527 38.168 201.527 25.038 L 201.527 11.908 194.504 11.908 L 187.481 11.908 187.481 5.954 L 187.481 0.000 176.031 0.000 L 164.580 0.000 164.580 5.954 M326.043 5.954 L 326.132 11.908 332.379 11.908 L 338.626 11.908 338.626 44.122 L 338.626 76.336 344.427 76.336 L 350.229 76.336 350.229 101.832 L 350.229 127.328 351.374 127.340 C 352.004 127.347,354.855 127.381,357.710 127.416 L 362.901 127.481 362.979 147.099 L 363.058 166.718 369.315 166.718 L 375.573 166.718 375.596 166.031 C 375.727 162.212,375.611 127.876,375.467 127.732 C 375.362 127.627,372.492 127.527,369.088 127.511 L 362.901 127.481 362.847 102.595 C 362.818 88.908,362.784 77.404,362.771 77.029 C 362.748 76.350,362.730 76.348,356.412 76.266 L 350.076 76.183 350.023 38.931 C 349.993 18.443,349.959 1.302,349.946 0.840 L 349.924 0.000 337.939 -0.000 L 325.954 -0.001 326.043 5.954 M126.718 96.031 L 126.718 102.595 120.305 102.595 L 113.893 102.595 113.893 114.962 L 113.893 127.328 120.305 127.328 L 126.718 127.328 126.718 114.962 L 126.718 102.595 132.366 102.595 L 138.015 102.595 138.015 96.031 L 138.015 89.466 132.366 89.466 L 126.718 89.466 126.718 96.031 M102.519 127.574 L 101.069 127.667 101.069 166.276 L 101.069 204.885 89.008 204.885 L 76.947 204.885 76.947 198.321 L 76.947 191.756 70.534 191.756 L 64.122 191.756 64.122 185.191 L 64.122 178.626 63.435 178.604 C 62.684 178.581,28.578 178.587,27.710 178.611 C 27.218 178.625,27.176 179.148,27.176 185.191 L 27.176 191.756 20.763 191.756 L 14.351 191.756 14.351 198.321 L 14.351 204.885 8.702 204.885 L 3.053 204.885 3.053 236.336 L 3.053 267.786 8.702 267.786 L 14.351 267.786 14.351 274.351 L 14.351 280.916 20.763 280.916 L 27.176 280.916 27.176 345.191 L 27.176 409.466 39.237 409.466 L 51.298 409.466 51.298 402.901 L 51.298 396.336 57.710 396.336 L 64.122 396.336 64.122 389.771 L 64.122 383.206 82.595 383.206 L 101.069 383.206 101.069 396.336 L 101.069 409.466 113.893 409.466 L 126.718 409.466 126.718 402.901 L 126.718 396.336 134.198 396.336 L 141.679 396.336 141.706 395.649 C 141.720 395.271,141.735 392.317,141.740 389.084 L 141.747 383.206 178.049 383.206 L 214.351 383.206 214.351 389.771 L 214.351 396.336 221.527 396.336 L 228.702 396.336 228.702 402.901 L 228.702 409.466 240.000 409.466 L 251.298 409.466 251.298 402.901 L 251.298 396.336 263.053 396.336 L 274.809 396.336 274.809 389.771 L 274.809 383.206 281.221 383.206 L 287.634 383.206 287.634 396.336 L 287.634 409.466 306.718 409.466 L 325.802 409.466 325.825 408.779 C 325.855 407.883,325.854 384.439,325.824 383.740 C 325.803 383.252,325.320 383.206,320.153 383.206 L 314.504 383.206 314.504 389.771 L 314.504 396.336 307.349 396.336 L 300.194 396.336 300.200 378.092 C 300.203 368.057,300.194 359.538,300.179 359.160 L 300.153 358.473 293.899 358.473 L 287.646 358.473 287.563 364.962 L 287.481 371.450 281.145 371.533 L 274.809 371.615 274.809 377.411 L 274.809 383.206 263.053 383.206 L 251.298 383.206 251.298 370.840 L 251.298 358.473 244.885 358.473 L 238.473 358.473 238.473 377.405 L 238.473 396.336 233.588 396.336 L 228.702 396.336 228.702 389.771 L 228.702 383.206 221.527 383.206 L 214.351 383.206 214.351 376.641 L 214.351 370.076 145.649 370.076 L 76.947 370.076 76.947 364.275 L 76.947 358.473 70.534 358.473 L 64.122 358.473 64.122 370.840 L 64.122 383.206 57.710 383.206 L 51.298 383.206 51.298 389.771 L 51.298 396.336 44.885 396.336 L 38.473 396.336 38.473 338.626 L 38.473 280.916 39.924 280.902 C 40.721 280.894,43.607 280.886,46.336 280.885 L 51.298 280.883 51.298 261.816 L 51.298 242.748 57.710 242.748 L 64.122 242.748 64.122 236.183 L 64.122 229.618 76.183 229.618 L 88.244 229.618 88.244 224.580 L 88.244 219.542 91.832 219.530 C 93.805 219.523,99.576 219.515,104.656 219.512 L 113.893 219.506 113.893 173.570 C 113.893 130.031,113.865 127.633,113.359 127.618 C 110.340 127.527,103.663 127.501,102.519 127.574 M214.515 153.875 C 214.417 154.034,214.364 159.599,214.397 166.242 L 214.458 178.321 226.465 178.321 L 238.473 178.321 238.473 165.954 L 238.473 153.588 226.583 153.588 C 219.473 153.588,214.621 153.703,214.515 153.875 M338.830 153.791 C 338.718 153.903,338.626 159.468,338.626 166.158 L 338.626 178.321 344.275 178.321 L 349.924 178.321 349.948 170.305 C 349.970 163.267,349.963 155.724,349.934 154.122 C 349.923 153.573,339.362 153.258,338.830 153.791 M375.878 172.519 L 375.878 178.321 382.137 178.321 L 388.397 178.321 388.421 177.634 C 388.452 176.765,388.451 167.969,388.420 167.252 C 388.399 166.761,387.887 166.718,382.137 166.718 L 375.878 166.718 375.878 172.519 M281.793 178.556 L 276.105 178.639 276.144 185.121 L 276.183 191.603 282.401 191.663 C 285.821 191.697,288.689 191.794,288.774 191.879 C 288.901 192.005,288.979 200.924,288.881 204.046 L 288.855 204.885 276.489 204.885 L 264.122 204.885 264.122 198.321 L 264.122 191.756 257.752 191.756 L 251.383 191.756 251.380 210.687 L 251.377 229.618 257.750 229.618 L 264.122 229.618 264.143 230.305 C 264.154 230.683,264.172 236.592,264.182 243.435 L 264.201 255.878 270.116 255.878 L 276.031 255.878 276.031 236.183 L 276.031 216.489 295.267 216.489 L 314.504 216.489 314.504 236.183 L 314.504 255.878 320.153 255.878 L 325.802 255.878 325.802 242.748 L 325.802 229.618 332.214 229.618 L 338.626 229.618 338.626 210.687 L 338.626 191.756 332.366 191.756 L 326.107 191.756 326.107 198.324 L 326.107 204.892 313.206 204.812 L 300.305 204.733 300.223 198.244 L 300.141 191.756 302.360 191.738 C 303.581 191.728,306.813 191.731,309.542 191.745 L 314.504 191.769 314.504 185.198 L 314.504 178.626 311.832 178.615 C 310.363 178.609,304.282 178.575,298.321 178.539 C 292.359 178.503,284.921 178.511,281.793 178.556 M390.000 178.567 L 388.702 178.661 388.702 210.705 L 388.702 242.748 394.351 242.748 L 400.000 242.748 400.000 210.611 L 400.000 178.473 395.649 178.473 C 393.256 178.473,390.714 178.516,390.000 178.567 M63.588 191.745 C 64.080 191.755,64.122 192.276,64.122 198.321 L 64.122 204.885 70.534 204.885 L 76.947 204.885 76.947 210.687 L 76.947 216.489 70.534 216.489 L 64.122 216.489 64.122 223.047 L 64.122 229.606 57.786 229.688 L 51.450 229.771 51.368 236.253 L 51.286 242.736 44.956 242.818 L 38.626 242.901 38.547 261.908 L 38.469 280.916 32.822 280.916 L 27.176 280.916 27.176 274.351 L 27.176 267.786 20.763 267.786 L 14.351 267.786 14.351 236.336 L 14.351 204.885 20.763 204.885 L 27.176 204.885 27.176 198.328 L 27.176 191.771 32.137 191.687 C 35.861 191.624,59.654 191.668,63.588 191.745 M375.878 249.313 L 375.878 255.878 380.687 255.906 C 386.032 255.938,388.186 255.882,388.363 255.707 C 388.456 255.615,388.499 245.583,388.416 243.282 C 388.399 242.792,387.888 242.748,382.137 242.748 L 375.878 242.748 375.878 249.313 M277.512 256.122 L 276.092 256.214 276.105 262.611 L 276.119 269.008 295.311 269.008 L 314.504 269.008 314.504 262.595 L 314.504 256.183 313.053 256.164 C 306.836 256.083,278.637 256.050,277.512 256.122 M363.053 262.595 L 363.053 269.008 369.313 269.008 L 375.573 269.008 375.598 268.321 C 375.626 267.581,375.619 257.602,375.590 256.718 C 375.574 256.227,375.064 256.183,369.313 256.183 L 363.053 256.183 363.053 262.595 M350.229 275.725 L 350.229 282.137 351.527 282.151 C 357.148 282.213,362.534 282.147,362.665 282.017 C 362.792 281.890,362.876 272.654,362.774 270.000 L 362.748 269.313 356.489 269.313 L 350.229 269.313 350.229 275.725 M338.626 294.809 L 338.626 307.176 332.366 307.176 L 326.107 307.176 326.107 345.191 L 326.107 383.206 332.366 383.206 L 338.626 383.206 338.626 345.191 L 338.626 307.176 344.275 307.176 C 349.442 307.176,349.926 307.130,349.946 306.641 C 349.976 305.934,349.977 284.014,349.947 283.130 C 349.924 282.443,349.922 282.443,344.275 282.443 L 338.626 282.443 338.626 294.809 M228.702 339.237 L 228.702 358.168 233.588 358.168 L 238.473 358.168 238.473 339.237 L 238.473 320.305 233.588 320.305 L 228.702 320.305 228.702 339.237 M300.458 339.237 L 300.458 358.168 307.481 358.168 L 314.504 358.168 314.504 339.237 L 314.504 320.305 307.481 320.305 L 300.458 320.305 300.458 339.237 M126.718 389.771 L 126.718 396.336 120.305 396.336 L 113.893 396.336 113.893 389.771 L 113.893 383.206 120.305 383.206 L 126.718 383.206 126.718 389.771 " stroke="none" fill="#050505" fill-rule="evenodd"></path><path id="path2" d="M228.702 140.458 L 228.702 153.588 240.000 153.588 L 251.298 153.588 251.298 140.458 L 251.298 127.328 240.000 127.328 L 228.702 127.328 228.702 140.458 M326.107 140.611 L 326.107 153.588 332.366 153.588 L 338.626 153.588 338.626 140.611 L 338.626 127.634 332.366 127.634 L 326.107 127.634 326.107 140.611 M164.580 159.383 L 164.580 165.178 158.244 165.261 L 151.908 165.344 151.826 171.825 L 151.744 178.306 146.788 178.389 L 141.832 178.473 141.754 210.611 L 141.677 242.748 146.710 242.748 L 151.744 242.748 151.826 249.389 L 151.908 256.031 158.244 256.113 L 164.580 256.196 164.580 261.991 L 164.580 267.786 170.992 267.786 L 177.405 267.786 177.405 274.351 L 177.405 280.916 182.443 280.916 L 187.481 280.916 187.481 294.046 L 187.481 307.176 200.916 307.176 L 214.351 307.176 214.351 313.740 L 214.351 320.305 226.565 320.305 L 238.779 320.305 238.779 339.230 L 238.779 358.156 245.115 358.238 L 251.450 358.321 251.533 364.965 L 251.615 371.610 263.136 371.530 L 274.656 371.450 274.739 364.968 L 274.821 358.486 281.151 358.403 L 287.481 358.321 287.560 339.313 L 287.638 320.305 294.048 320.305 L 300.458 320.305 300.458 313.740 L 300.458 307.176 282.290 307.176 L 264.122 307.176 264.122 300.611 L 264.122 294.046 251.298 294.046 L 238.473 294.046 238.473 288.244 L 238.473 282.443 246.336 282.434 C 250.660 282.430,273.195 282.426,296.412 282.425 L 338.626 282.424 338.626 275.875 L 338.626 269.326 344.351 269.243 L 350.076 269.160 350.159 262.672 L 350.241 256.183 352.296 256.168 C 353.426 256.160,356.275 256.125,358.626 256.092 L 362.901 256.031 362.983 249.389 L 363.065 242.748 369.473 242.748 L 375.881 242.748 375.803 210.611 L 375.725 178.473 369.313 178.473 L 362.901 178.473 362.818 184.962 L 362.736 191.450 350.840 191.450 L 338.943 191.450 338.861 184.962 L 338.779 178.473 337.863 178.365 C 337.359 178.306,331.968 178.356,325.884 178.477 L 314.821 178.697 314.739 185.150 L 314.656 191.603 307.557 191.685 L 300.458 191.767 300.458 198.174 L 300.458 204.580 309.466 204.595 C 314.420 204.604,319.504 204.611,320.763 204.611 C 322.023 204.611,323.669 204.604,324.421 204.595 L 325.789 204.580 325.872 198.092 L 325.954 191.603 332.366 191.603 L 338.779 191.603 338.779 210.687 L 338.779 229.771 332.443 229.854 L 326.107 229.936 326.107 243.060 L 326.107 256.183 320.464 256.183 L 314.821 256.183 314.739 262.672 L 314.656 269.160 295.344 269.239 L 276.031 269.318 276.031 262.750 L 276.031 256.183 270.076 256.183 L 264.122 256.183 264.122 243.060 L 264.122 229.936 257.786 229.854 L 251.450 229.771 251.450 210.687 L 251.450 191.603 257.863 191.603 L 264.275 191.603 264.357 198.092 C 264.432 204.002,264.487 204.581,264.968 204.592 C 265.608 204.607,285.728 204.605,287.557 204.591 L 288.855 204.580 288.855 198.168 L 288.855 191.756 282.443 191.756 L 276.031 191.756 276.031 185.194 L 276.031 178.633 263.740 178.553 L 251.450 178.473 251.367 172.595 L 251.285 166.718 245.081 166.718 L 238.877 166.718 238.675 175.470 C 238.564 180.283,238.473 185.848,238.473 187.836 L 238.473 191.450 220.153 191.450 L 201.832 191.450 201.832 185.038 L 201.832 178.626 208.092 178.626 L 214.351 178.626 214.351 171.908 L 214.351 165.191 207.939 165.191 L 201.527 165.191 201.527 159.389 L 201.527 153.588 183.053 153.588 L 164.580 153.588 164.580 159.383 M27.176 198.321 L 27.176 204.885 32.824 204.885 L 38.473 204.885 38.473 210.687 L 38.473 216.489 44.885 216.489 L 51.298 216.489 51.298 210.687 L 51.298 204.885 57.710 204.885 L 64.122 204.885 64.122 198.321 L 64.122 191.756 45.649 191.756 L 27.176 191.756 27.176 198.321 M76.947 364.121 L 76.947 370.076 139.396 370.076 L 201.845 370.076 201.762 364.198 L 201.679 358.321 139.313 358.244 L 76.947 358.166 76.947 364.121 " stroke="none" fill="#fbf5e8" fill-rule="evenodd"></path><path id="path3" d="M325.893 13.130 C 325.893 14.053,325.950 14.431,326.020 13.969 C 326.090 13.508,326.090 12.752,326.020 12.290 C 325.950 11.828,325.893 12.206,325.893 13.130 M325.904 19.847 C 325.904 21.107,325.958 21.622,326.024 20.992 C 326.090 20.363,326.090 19.332,326.024 18.702 C 325.958 18.073,325.904 18.588,325.904 19.847 M325.913 26.412 C 325.914 28.092,325.965 28.740,326.027 27.852 C 326.089 26.965,326.088 25.591,326.026 24.799 C 325.963 24.007,325.912 24.733,325.913 26.412 M325.913 33.740 C 325.914 35.420,325.965 36.068,326.027 35.181 C 326.089 34.293,326.088 32.919,326.026 32.127 C 325.963 31.335,325.912 32.061,325.913 33.740 M177.405 57.252 L 177.405 76.336 170.992 76.336 L 164.580 76.336 164.580 82.901 L 164.580 89.466 170.992 89.466 L 177.405 89.466 177.405 82.901 L 177.405 76.336 189.466 76.336 L 201.527 76.336 201.527 69.618 L 201.527 62.901 195.878 62.901 L 190.229 62.901 190.229 50.534 L 190.229 38.168 183.817 38.168 L 177.405 38.168 177.405 57.252 M314.634 44.733 C 314.634 48.427,314.678 49.897,314.732 47.998 C 314.786 46.100,314.785 43.077,314.731 41.281 C 314.678 39.485,314.634 41.038,314.634 44.733 M325.904 53.435 C 325.904 54.695,325.958 55.210,326.024 54.580 C 326.090 53.950,326.090 52.920,326.024 52.290 C 325.958 51.660,325.904 52.176,325.904 53.435 M325.862 60.687 L 325.802 62.901 270.153 62.900 L 214.504 62.900 214.592 69.465 L 214.680 76.031 257.569 76.031 L 300.458 76.031 300.458 82.745 L 300.458 89.460 306.031 89.439 C 309.095 89.428,312.324 89.429,313.206 89.442 L 314.809 89.466 314.809 115.115 L 314.809 140.763 307.634 140.763 L 300.458 140.763 300.458 147.328 L 300.458 153.893 288.403 153.893 L 276.348 153.893 276.266 160.382 L 276.183 166.870 263.893 166.950 L 251.603 167.030 251.603 172.675 L 251.603 178.321 258.550 178.340 C 262.370 178.351,275.321 178.423,287.328 178.499 C 299.336 178.575,312.905 178.544,317.481 178.430 L 325.802 178.223 325.802 172.470 L 325.802 166.718 332.208 166.718 L 338.614 166.718 338.696 160.229 L 338.779 153.740 344.351 153.657 C 349.510 153.580,349.924 153.614,349.934 154.115 C 349.963 155.739,349.970 163.266,349.948 170.298 L 349.924 178.307 344.351 178.401 L 338.779 178.495 344.427 178.484 L 350.076 178.473 350.159 172.595 L 350.242 166.718 356.650 166.718 L 363.058 166.718 362.979 147.099 L 362.901 127.481 357.710 127.416 C 354.855 127.381,352.004 127.347,351.374 127.340 L 350.229 127.328 350.229 101.832 L 350.229 76.336 344.427 76.336 L 338.626 76.336 338.626 69.618 L 338.626 62.901 332.380 62.901 L 326.134 62.901 326.028 60.687 L 325.923 58.473 325.862 60.687 M138.145 96.031 C 138.146 99.725,138.190 101.195,138.243 99.296 C 138.297 97.397,138.297 94.375,138.243 92.578 C 138.189 90.782,138.145 92.336,138.145 96.031 M117.023 127.556 C 118.828 127.610,121.782 127.610,123.588 127.556 C 125.393 127.502,123.916 127.458,120.305 127.458 C 116.695 127.458,115.218 127.502,117.023 127.556 M338.858 140.534 L 338.779 153.740 332.290 153.823 L 325.802 153.905 325.802 140.617 L 325.802 127.328 332.370 127.328 L 338.938 127.328 338.858 140.534 M375.715 172.519 L 375.725 178.473 382.060 178.556 L 388.394 178.638 388.473 210.922 L 388.552 243.206 388.627 210.763 L 388.702 178.321 382.297 178.321 L 375.891 178.321 375.798 172.443 L 375.704 166.565 375.715 172.519 M220.534 178.549 C 223.851 178.599,229.279 178.599,232.595 178.549 C 235.912 178.500,233.198 178.460,226.565 178.460 C 219.931 178.460,217.218 178.500,220.534 178.549 M276.031 236.305 L 276.031 256.122 295.344 256.119 L 314.656 256.117 314.576 236.303 L 314.495 216.489 295.263 216.489 L 276.031 216.489 276.031 236.305 M27.176 223.359 L 27.176 229.924 20.763 229.924 L 14.351 229.924 14.351 248.855 L 14.351 267.786 20.763 267.786 L 27.176 267.786 27.176 274.351 L 27.176 280.916 32.822 280.916 L 38.469 280.916 38.547 261.908 L 38.626 242.901 45.038 242.901 L 51.450 242.901 51.380 236.183 C 51.341 232.489,51.307 226.615,51.304 223.130 L 51.298 216.794 39.237 216.794 L 27.176 216.794 27.176 223.359 M375.573 249.459 L 375.573 255.865 369.237 255.948 L 362.901 256.031 362.818 262.513 L 362.736 268.995 356.406 269.078 L 350.076 269.160 349.994 275.642 L 349.912 282.124 344.345 282.214 L 338.779 282.305 344.504 282.374 L 350.229 282.443 350.229 275.878 L 350.229 269.313 356.641 269.313 L 363.053 269.313 363.053 262.748 L 363.053 256.183 369.466 256.183 L 375.878 256.183 375.878 249.618 C 375.878 246.008,375.809 243.053,375.725 243.053 C 375.641 243.053,375.573 245.936,375.573 249.459 M325.802 313.740 L 325.802 320.305 320.153 320.305 L 314.504 320.305 314.504 339.237 L 314.504 358.168 307.483 358.168 L 300.463 358.168 300.382 339.313 L 300.301 320.458 300.227 339.307 L 300.153 358.156 293.817 358.238 L 287.481 358.321 287.472 364.809 L 287.462 371.298 287.554 364.886 L 287.646 358.473 293.899 358.473 L 300.153 358.473 300.181 359.160 C 300.196 359.538,300.230 366.443,300.255 374.504 C 300.280 382.565,300.341 387.821,300.391 386.183 L 300.480 383.206 313.293 383.206 L 326.107 383.206 326.107 345.191 C 326.107 324.282,326.038 307.176,325.954 307.176 C 325.870 307.176,325.802 310.130,325.802 313.740 M67.252 358.396 C 69.057 358.450,72.011 358.450,73.817 358.396 C 75.622 358.342,74.145 358.298,70.534 358.298 C 66.924 358.298,65.447 358.342,67.252 358.396 M231.236 358.396 C 232.714 358.452,235.050 358.451,236.427 358.395 C 237.804 358.338,236.595 358.293,233.740 358.293 C 230.885 358.293,229.759 358.339,231.236 358.396 M300.255 392.672 C 300.255 393.931,300.309 394.447,300.375 393.817 C 300.441 393.187,300.441 392.156,300.375 391.527 C 300.309 390.897,300.255 391.412,300.255 392.672 " stroke="none" fill="#b13c15" fill-rule="evenodd"></path><path id="path5" d="M325.929 5.954 C 325.929 9.145,325.974 10.409,326.029 8.763 C 326.084 7.117,326.084 4.506,326.029 2.961 C 325.974 1.417,325.929 2.763,325.929 5.954 M350.011 35.267 C 350.013 36.107,350.073 36.414,350.143 35.950 C 350.213 35.486,350.211 34.799,350.139 34.423 C 350.066 34.048,350.009 34.427,350.011 35.267 M138.161 63.817 C 138.161 78.008,138.199 83.813,138.244 76.718 C 138.290 69.622,138.290 58.011,138.244 50.916 C 138.199 43.821,138.161 49.626,138.161 63.817 M300.283 44.733 C 300.283 48.427,300.327 49.897,300.381 47.998 C 300.434 46.100,300.434 43.077,300.380 41.281 C 300.326 39.485,300.283 41.038,300.283 44.733 M362.851 126.718 C 362.895 127.399,363.040 127.484,364.201 127.511 L 365.501 127.541 364.296 127.418 C 363.356 127.322,363.060 127.148,362.946 126.625 C 362.824 126.063,362.809 126.078,362.851 126.718 M101.760 127.547 C 102.224 127.618,102.911 127.616,103.287 127.543 C 103.662 127.471,103.282 127.413,102.443 127.416 C 101.603 127.418,101.296 127.477,101.760 127.547 M106.183 127.544 C 106.561 127.617,107.179 127.617,107.557 127.544 C 107.935 127.471,107.626 127.411,106.870 127.411 C 106.115 127.411,105.805 127.471,106.183 127.544 M110.458 127.544 C 110.836 127.617,111.454 127.617,111.832 127.544 C 112.210 127.471,111.901 127.411,111.145 127.411 C 110.389 127.411,110.080 127.471,110.458 127.544 M325.941 127.710 C 325.861 127.920,325.832 133.863,325.878 140.916 L 325.961 153.740 326.034 140.693 L 326.107 127.646 332.443 127.557 L 338.779 127.468 332.433 127.398 C 327.585 127.345,326.053 127.418,325.941 127.710 M374.867 127.526 C 375.234 127.606,375.596 127.940,375.671 128.268 C 375.776 128.732,375.797 128.710,375.766 128.173 C 375.736 127.664,375.523 127.468,374.962 127.431 C 374.326 127.389,374.310 127.405,374.867 127.526 M375.573 166.107 C 375.573 166.708,375.369 166.718,362.901 166.718 L 350.229 166.718 350.229 172.705 L 350.229 178.693 362.977 178.583 L 375.725 178.473 375.803 210.611 L 375.881 242.748 369.473 242.748 L 363.065 242.748 362.983 249.389 L 362.901 256.031 358.626 256.092 C 356.275 256.125,353.426 256.160,352.296 256.168 L 350.241 256.183 350.159 262.672 L 350.076 269.160 344.351 269.243 L 338.626 269.326 338.626 275.875 L 338.626 282.424 296.412 282.425 C 273.195 282.426,250.660 282.430,246.336 282.434 L 238.473 282.443 238.473 288.244 L 238.473 294.046 251.298 294.046 L 264.122 294.046 264.122 300.611 L 264.122 307.176 282.290 307.176 L 300.458 307.176 300.458 313.740 L 300.458 320.305 294.048 320.305 L 287.638 320.305 287.560 339.313 L 287.481 358.321 281.151 358.403 L 274.821 358.486 274.739 364.968 L 274.656 371.450 263.136 371.530 L 251.615 371.610 251.533 364.965 L 251.450 358.321 245.117 358.238 L 238.783 358.156 238.701 339.154 L 238.619 320.153 238.622 339.237 L 238.626 358.321 244.962 358.403 L 251.298 358.486 251.298 370.846 L 251.298 383.206 263.053 383.206 L 274.809 383.206 274.809 377.405 L 274.809 371.603 281.063 371.603 L 287.316 371.603 287.399 364.962 L 287.481 358.321 293.814 358.238 L 300.148 358.156 300.227 339.307 L 300.305 320.458 313.053 320.378 L 325.802 320.299 325.802 313.737 L 325.802 307.176 332.210 307.176 L 338.619 307.176 338.699 294.733 L 338.779 282.290 344.345 282.207 L 349.912 282.124 349.994 275.642 L 350.076 269.160 356.406 269.078 L 362.736 268.995 362.818 262.513 L 362.901 256.031 369.231 255.948 L 375.560 255.866 375.643 249.383 L 375.725 242.901 382.061 242.818 L 388.397 242.736 388.397 210.687 L 388.397 178.638 382.061 178.556 L 375.725 178.473 375.725 171.984 C 375.725 168.416,375.691 165.496,375.649 165.496 C 375.607 165.496,375.573 165.771,375.573 166.107 M238.601 172.519 C 238.601 175.794,238.646 177.134,238.701 175.496 C 238.756 173.859,238.756 171.179,238.701 169.542 C 238.646 167.905,238.601 169.244,238.601 172.519 M326.005 166.921 C 325.893 167.033,325.802 169.641,325.802 172.716 L 325.802 178.307 320.229 178.390 L 314.656 178.473 314.647 184.962 L 314.638 191.451 314.729 185.074 L 314.821 178.697 325.942 178.471 C 332.059 178.347,337.449 178.303,337.921 178.372 L 338.779 178.498 338.690 172.608 L 338.601 166.718 332.405 166.718 C 328.997 166.718,326.117 166.809,326.005 166.921 M388.500 177.710 C 388.544 178.392,388.689 178.476,389.850 178.503 L 391.150 178.533 389.945 178.410 C 389.004 178.314,388.709 178.140,388.595 177.617 C 388.473 177.055,388.458 177.070,388.500 177.710 M31.062 178.541 C 31.604 178.608,32.566 178.610,33.199 178.543 C 33.833 178.477,33.389 178.422,32.214 178.421 C 31.038 178.419,30.520 178.474,31.062 178.541 M35.038 178.536 C 35.416 178.609,36.034 178.609,36.412 178.536 C 36.790 178.463,36.481 178.404,35.725 178.404 C 34.969 178.404,34.660 178.463,35.038 178.536 M39.313 178.536 C 39.691 178.609,40.309 178.609,40.687 178.536 C 41.065 178.463,40.756 178.404,40.000 178.404 C 39.244 178.404,38.935 178.463,39.313 178.536 M43.588 178.536 C 43.966 178.609,44.584 178.609,44.962 178.536 C 45.340 178.463,45.031 178.404,44.275 178.404 C 43.519 178.404,43.210 178.463,43.588 178.536 M47.863 178.536 C 48.240 178.609,48.859 178.609,49.237 178.536 C 49.615 178.463,49.305 178.404,48.550 178.404 C 47.794 178.404,47.485 178.463,47.863 178.536 M60.687 178.536 C 61.065 178.609,61.683 178.609,62.061 178.536 C 62.439 178.463,62.130 178.404,61.374 178.404 C 60.618 178.404,60.309 178.463,60.687 178.536 M257.634 178.549 C 261.034 178.598,266.599 178.598,270.000 178.549 C 273.401 178.500,270.618 178.460,263.817 178.460 C 257.015 178.460,254.233 178.500,257.634 178.549 M393.511 178.536 C 393.889 178.609,394.508 178.609,394.885 178.536 C 395.263 178.463,394.954 178.404,394.198 178.404 C 393.443 178.404,393.134 178.463,393.511 178.536 M397.786 178.536 C 398.164 178.609,398.782 178.609,399.160 178.536 C 399.538 178.463,399.229 178.404,398.473 178.404 C 397.718 178.404,397.408 178.463,397.786 178.536 M253.657 191.671 C 254.199 191.738,255.161 191.739,255.795 191.673 C 256.428 191.607,255.985 191.552,254.809 191.551 C 253.634 191.549,253.115 191.603,253.657 191.671 M257.932 191.671 C 258.474 191.738,259.436 191.739,260.070 191.673 C 260.703 191.607,260.260 191.552,259.084 191.551 C 257.908 191.549,257.390 191.603,257.932 191.671 M262.672 191.665 L 264.122 191.789 264.122 198.337 L 264.122 204.885 264.809 204.850 C 265.317 204.824,265.358 204.778,264.968 204.676 C 264.491 204.551,264.431 203.904,264.357 198.070 L 264.275 191.603 262.748 191.572 L 261.221 191.541 262.672 191.665 M326.005 191.654 C 325.893 191.766,325.802 194.713,325.802 198.202 L 325.802 204.547 324.351 204.671 L 322.901 204.795 324.427 204.764 L 325.954 204.733 326.037 198.266 C 326.111 192.432,326.171 191.785,326.647 191.660 C 327.077 191.547,327.085 191.515,326.692 191.486 C 326.426 191.466,326.117 191.542,326.005 191.654 M328.161 191.671 C 328.703 191.738,329.665 191.739,330.299 191.673 C 330.932 191.607,330.489 191.552,329.313 191.551 C 328.137 191.549,327.619 191.603,328.161 191.671 M332.436 191.671 C 332.978 191.738,333.940 191.739,334.573 191.673 C 335.207 191.607,334.763 191.552,333.588 191.551 C 332.412 191.549,331.894 191.603,332.436 191.671 M337.176 191.665 L 338.626 191.789 338.626 210.698 L 338.626 229.606 332.294 229.688 C 326.217 229.768,325.960 229.796,325.899 230.382 C 325.852 230.845,325.874 230.865,325.993 230.464 C 326.134 229.989,326.784 229.928,332.464 229.853 L 338.779 229.771 338.779 210.687 L 338.779 191.603 337.252 191.572 L 335.725 191.541 337.176 191.665 M300.240 193.130 C 300.242 193.969,300.302 194.277,300.372 193.813 C 300.442 193.348,300.440 192.661,300.368 192.286 C 300.295 191.910,300.238 192.290,300.240 193.130 M300.255 199.695 C 300.255 200.954,300.309 201.469,300.375 200.840 C 300.441 200.210,300.441 199.179,300.375 198.550 C 300.309 197.920,300.255 198.435,300.255 199.695 M300.255 203.969 L 300.305 204.733 309.466 204.740 L 318.626 204.747 309.563 204.659 L 300.499 204.571 300.352 203.889 C 300.224 203.295,300.212 203.306,300.255 203.969 M266.336 204.799 C 266.798 204.869,267.553 204.869,268.015 204.799 C 268.477 204.729,268.099 204.672,267.176 204.672 C 266.252 204.672,265.874 204.729,266.336 204.799 M269.841 204.801 C 270.383 204.868,271.344 204.869,271.978 204.803 C 272.611 204.737,272.168 204.682,270.992 204.680 C 269.817 204.679,269.298 204.733,269.841 204.801 M274.115 204.801 C 274.657 204.868,275.619 204.869,276.253 204.803 C 276.886 204.737,276.443 204.682,275.267 204.680 C 274.092 204.679,273.573 204.733,274.115 204.801 M278.390 204.801 C 278.932 204.868,279.894 204.869,280.528 204.803 C 281.161 204.737,280.718 204.682,279.542 204.680 C 278.366 204.679,277.848 204.733,278.390 204.801 M282.665 204.801 C 283.207 204.868,284.169 204.869,284.802 204.803 C 285.436 204.737,284.992 204.682,283.817 204.680 C 282.641 204.679,282.123 204.733,282.665 204.801 M286.798 204.799 C 287.262 204.869,287.949 204.868,288.325 204.795 C 288.700 204.723,288.321 204.665,287.481 204.667 C 286.641 204.670,286.334 204.729,286.798 204.799 M319.612 204.801 C 320.154 204.868,321.115 204.869,321.749 204.803 C 322.382 204.737,321.939 204.682,320.763 204.680 C 319.588 204.679,319.069 204.733,319.612 204.801 M51.298 217.252 L 51.298 229.618 57.710 229.618 L 64.122 229.618 64.122 223.053 L 64.122 216.489 70.534 216.489 L 76.947 216.489 76.947 210.687 L 76.947 204.885 64.122 204.885 L 51.298 204.885 51.298 217.252 M254.749 229.846 C 256.564 229.900,259.449 229.900,261.162 229.846 C 262.874 229.792,261.389 229.747,257.863 229.748 C 254.336 229.748,252.935 229.792,254.749 229.846 M325.904 233.282 C 325.904 234.542,325.958 235.057,326.024 234.427 C 326.090 233.798,326.090 232.767,326.024 232.137 C 325.958 231.508,325.904 232.023,325.904 233.282 M325.904 240.611 C 325.904 241.870,325.958 242.385,326.024 241.756 C 326.090 241.126,326.090 240.095,326.024 239.466 C 325.958 238.836,325.904 239.351,325.904 240.611 M325.913 247.176 C 325.914 248.855,325.965 249.503,326.027 248.616 C 326.089 247.728,326.088 246.354,326.026 245.562 C 325.963 244.770,325.912 245.496,325.913 247.176 M388.484 245.649 C 388.487 246.489,388.546 246.796,388.616 246.332 C 388.686 245.868,388.684 245.181,388.612 244.805 C 388.539 244.429,388.482 244.809,388.484 245.649 M325.802 253.734 L 325.802 255.864 320.229 255.947 L 314.656 256.031 314.574 262.517 L 314.492 269.003 295.185 269.085 L 275.878 269.167 295.267 269.164 L 314.656 269.160 314.739 262.672 L 314.821 256.183 320.464 256.183 L 326.107 256.183 326.107 253.893 C 326.107 252.634,326.038 251.603,325.954 251.603 C 325.870 251.603,325.802 252.562,325.802 253.734 M388.421 255.174 C 388.400 255.750,388.192 255.861,386.947 255.959 L 385.496 256.073 386.956 256.128 C 388.437 256.184,388.962 255.791,388.603 254.896 C 388.516 254.680,388.434 254.805,388.421 255.174 M267.115 256.106 C 268.846 256.160,271.594 256.160,273.222 256.105 C 274.851 256.051,273.435 256.006,270.076 256.006 C 266.718 256.006,265.385 256.051,267.115 256.106 M375.687 256.326 C 375.592 256.572,375.586 256.950,375.672 257.165 C 375.759 257.381,375.840 257.252,375.854 256.878 C 375.877 256.210,375.956 256.197,380.687 256.106 L 385.496 256.014 380.677 255.946 C 376.680 255.889,375.829 255.954,375.687 256.326 M375.656 258.931 C 375.656 259.687,375.715 259.996,375.788 259.618 C 375.861 259.240,375.861 258.622,375.788 258.244 C 375.715 257.866,375.656 258.176,375.656 258.931 M375.597 268.314 C 375.573 268.993,375.554 268.995,369.237 269.078 C 363.143 269.157,362.900 269.184,362.871 269.771 C 362.848 270.236,362.871 270.254,362.968 269.847 C 363.085 269.360,363.646 269.313,369.344 269.313 C 375.824 269.313,376.260 269.226,375.778 268.025 C 375.692 267.810,375.610 267.940,375.597 268.314 M362.772 281.429 C 362.756 281.867,362.512 282.140,362.061 282.227 L 361.374 282.360 362.071 282.401 C 362.794 282.444,363.226 281.834,362.954 281.155 C 362.867 280.940,362.785 281.063,362.772 281.429 M350.038 282.585 C 349.943 282.832,349.937 283.210,350.023 283.425 C 350.110 283.641,350.192 283.516,350.205 283.147 C 350.225 282.586,350.440 282.459,351.527 282.361 L 352.824 282.244 351.517 282.191 C 350.612 282.154,350.157 282.275,350.038 282.585 M353.810 282.358 C 354.352 282.425,355.314 282.426,355.947 282.360 C 356.581 282.294,356.137 282.239,354.962 282.238 C 353.786 282.236,353.268 282.290,353.810 282.358 M358.085 282.358 C 358.627 282.425,359.589 282.426,360.222 282.360 C 360.856 282.294,360.412 282.239,359.237 282.238 C 358.061 282.236,357.543 282.290,358.085 282.358 M113.893 389.771 L 113.893 396.336 120.305 396.336 L 126.718 396.336 126.718 389.771 L 126.718 383.206 120.305 383.206 L 113.893 383.206 113.893 389.771 M287.468 396.336 C 287.468 403.641,287.508 406.630,287.557 402.977 C 287.606 399.324,287.606 393.347,287.557 389.695 C 287.508 386.042,287.468 389.031,287.468 396.336 " stroke="none" fill="#99909e" fill-rule="evenodd"></path></g></svg>