<?xml version="1.0" encoding="UTF-8"?>
<svg xmlns="http://www.w3.org/2000/svg" xmlns:xlink="http://www.w3.org/1999/xlink" viewBox="0 0 128 128" width="128px" height="128px">
<g id="surface26703726">
<path style=" stroke:none;fill-rule:nonzero;fill:rgb(44.313726%,76.078433%,100%);fill-opacity:1;" d="M 124 64 C 124 97.136719 97.136719 124 64 124 C 30.863281 124 4 97.136719 4 64 C 4 30.863281 30.863281 4 64 4 C 97.136719 4 124 30.863281 124 64 Z M 124 64 "/>
<path style=" stroke:none;fill-rule:nonzero;fill:rgb(100%,100%,100%);fill-opacity:1;" d="M 90.011719 62.488281 L 66.589844 22.328125 C 66.050781 21.410156 65.070312 20.839844 64 20.839844 C 62.929688 20.839844 61.949219 21.410156 61.410156 22.328125 L 37.988281 62.488281 C 37.449219 63.421875 37.449219 64.578125 37.988281 65.511719 L 61.410156 105.660156 C 61.949219 106.578125 62.929688 107.148438 64 107.148438 C 65.070312 107.148438 66.050781 106.578125 66.589844 105.660156 L 90.011719 65.511719 C 90.558594 64.578125 90.558594 63.421875 90.011719 62.488281 Z M 64 29.800781 L 83.179688 62.679688 L 64 73.628906 L 44.820312 62.679688 Z M 64 98.199219 L 48.550781 71.71875 L 62.511719 79.699219 C 62.96875 79.960938 63.480469 80.101562 64 80.101562 C 64.519531 80.101562 65.03125 79.96875 65.488281 79.699219 L 79.449219 71.71875 Z M 64 98.199219 "/>
<path style=" stroke:none;fill-rule:nonzero;fill:rgb(26.666668%,29.411766%,32.941177%);fill-opacity:1;" d="M 64 127 C 29.261719 127 1 98.738281 1 64 C 1 29.261719 29.261719 1 64 1 C 98.738281 1 127 29.261719 127 64 C 127 98.738281 98.738281 127 64 127 Z M 64 7 C 32.570312 7 7 32.570312 7 64 C 7 95.429688 32.570312 121 64 121 C 95.429688 121 121 95.429688 121 64 C 121 32.570312 95.429688 7 64 7 Z M 64 7 "/>
</g>
</svg>
