<?xml version="1.0" encoding="UTF-8"?>
<svg xmlns="http://www.w3.org/2000/svg" xmlns:xlink="http://www.w3.org/1999/xlink" viewBox="0 0 144 144" width="144px" height="144px">
<g id="surface23302476">
<path style=" stroke:none;fill-rule:nonzero;fill:rgb(96.078432%,73.725492%,0%);fill-opacity:1;" d="M 72 132 C 105.136719 132 132 105.136719 132 72 C 132 38.863281 105.136719 12 72 12 C 38.863281 12 12 38.863281 12 72 C 12 105.140625 38.859375 132 72 132 Z M 72 132 "/>
<path style=" stroke:none;fill-rule:nonzero;fill:rgb(100%,100%,100%);fill-opacity:1;" d="M 99 60 C 99 52.175781 93.984375 45.507812 87 43.027344 L 87 33 L 75 33 L 75 42 L 66 42 L 66 33 L 54 33 L 54 42 L 45 42 L 45 54 L 54 54 L 54 90 L 45 90 L 45 102 L 54 102 L 54 111 L 66 111 L 66 102 L 75 102 L 75 111 L 87 111 L 87 100.972656 C 93.984375 98.496094 99 91.824219 99 84 C 99 79.394531 97.261719 75.1875 94.402344 72 C 97.261719 68.8125 99 64.605469 99 60 Z M 66 54 L 81 54 C 84.308594 54 87 56.691406 87 60 C 87 63.308594 84.308594 66 81 66 L 66 66 Z M 81 90 L 66 90 L 66 78 L 81 78 C 84.308594 78 87 80.691406 87 84 C 87 87.308594 84.308594 90 81 90 Z M 81 90 "/>
<path style=" stroke:none;fill-rule:nonzero;fill:rgb(100%,100%,100%);fill-opacity:1;" d="M 54 42 L 66 42 L 66 54 L 54 54 Z M 54 42 "/>
<path style=" stroke:none;fill-rule:nonzero;fill:rgb(100%,100%,100%);fill-opacity:1;" d="M 54 90 L 66 90 L 66 102 L 54 102 Z M 54 90 "/>
</g>
</svg>
