<svg id="svg" version="1.1" xmlns="http://www.w3.org/2000/svg" xmlns:xlink="http://www.w3.org/1999/xlink" width="400" height="410.99236641221376" viewBox="0, 0, 400,410.99236641221376"><g id="svgg"><path id="path0" d="M164.580 5.802 L 164.580 11.603 175.725 11.603 L 186.870 11.603 186.870 5.802 L 186.870 0.000 175.725 0.000 L 164.580 0.000 164.580 5.802 M325.802 5.795 L 325.802 11.591 332.132 11.673 L 338.463 11.756 338.363 31.756 C 338.307 42.756,338.363 57.218,338.488 63.893 L 338.714 76.031 344.166 76.031 L 349.618 76.031 349.618 38.015 L 349.618 0.000 337.710 0.000 L 325.802 0.000 325.802 5.795 M314.650 11.978 C 314.570 12.191,314.470 18.137,314.428 25.191 L 314.351 38.015 307.411 38.097 L 300.470 38.179 300.388 44.662 L 300.305 51.145 257.176 51.222 L 214.046 51.300 214.046 56.948 L 214.046 62.595 269.930 62.595 L 325.815 62.595 325.732 56.870 L 325.649 51.145 320.076 51.062 L 314.504 50.979 314.504 44.421 L 314.504 37.863 319.994 37.863 C 325.435 37.863,325.486 37.856,325.652 37.176 C 325.744 36.798,325.780 30.924,325.734 24.122 L 325.649 11.756 320.222 11.672 C 316.047 11.608,314.762 11.679,314.650 11.978 M151.756 24.885 L 151.756 37.863 158.015 37.863 L 164.275 37.863 164.275 24.885 L 164.275 11.908 158.015 11.908 L 151.756 11.908 151.756 24.885 M187.176 24.885 L 187.176 37.863 194.198 37.863 L 201.221 37.863 201.221 24.885 L 201.221 11.908 194.198 11.908 L 187.176 11.908 187.176 24.885 M201.730 38.066 C 201.618 38.178,201.527 41.132,201.527 44.631 L 201.527 50.992 207.786 50.992 L 214.046 50.992 214.046 44.613 C 214.046 39.077,213.982 38.209,213.563 38.048 C 212.904 37.795,201.985 37.812,201.730 38.066 M137.941 63.740 L 137.863 89.313 132.296 89.396 L 126.730 89.479 126.647 95.961 L 126.565 102.443 120.229 102.525 L 113.893 102.608 113.893 114.968 L 113.893 127.328 107.482 127.328 L 101.071 127.328 100.994 166.031 L 100.916 204.733 88.938 204.813 L 76.960 204.893 76.877 210.614 L 76.794 216.336 70.458 216.418 L 64.122 216.501 64.122 222.907 L 64.122 229.313 57.557 229.313 L 50.992 229.313 50.992 235.878 L 50.992 242.443 44.904 242.443 C 41.555 242.443,38.750 242.547,38.671 242.675 C 38.592 242.803,38.427 251.390,38.303 261.759 L 38.078 280.611 32.633 280.611 L 27.188 280.611 27.105 274.122 L 27.023 267.634 20.687 267.551 L 14.351 267.469 14.351 274.033 L 14.351 280.598 20.687 280.681 L 27.023 280.763 27.023 307.023 L 27.023 333.282 20.687 333.365 L 14.351 333.448 14.351 339.090 L 14.351 344.733 20.763 344.733 L 27.176 344.733 27.176 339.088 L 27.176 333.443 37.786 333.363 L 48.397 333.282 48.397 328.244 L 48.397 323.206 43.435 323.122 L 38.473 323.038 38.473 301.831 L 38.473 280.623 44.809 280.541 L 51.145 280.458 51.224 261.609 L 51.302 242.760 57.636 242.678 L 63.969 242.595 64.052 236.110 L 64.134 229.625 76.113 229.546 L 88.092 229.466 88.092 224.275 L 88.092 219.084 100.916 219.084 L 113.740 219.084 113.818 173.212 L 113.895 127.341 120.230 127.258 L 126.565 127.176 126.645 114.892 L 126.724 102.609 132.294 102.526 L 137.863 102.443 137.945 95.802 L 138.027 89.160 144.739 89.160 L 151.450 89.160 151.450 63.664 L 151.450 38.168 144.735 38.168 L 138.019 38.168 137.941 63.740 M350.067 76.406 C 349.985 76.619,349.954 88.130,349.997 101.985 L 350.076 127.176 356.412 127.258 L 362.748 127.341 362.748 146.876 L 362.748 166.412 369.163 166.412 L 375.577 166.412 375.498 146.947 L 375.420 127.481 369.086 127.398 L 362.752 127.316 362.673 101.750 L 362.595 76.183 356.405 76.101 C 351.619 76.037,350.181 76.106,350.067 76.406 M214.249 153.486 C 214.137 153.598,214.046 159.163,214.046 165.852 L 214.046 178.015 226.260 178.015 L 238.473 178.015 238.473 165.649 L 238.473 153.282 226.463 153.282 C 219.858 153.282,214.361 153.374,214.249 153.486 M338.321 156.890 C 338.321 158.882,338.411 164.450,338.522 169.263 L 338.724 178.015 344.136 178.015 L 349.547 178.015 349.772 166.332 C 349.895 159.906,349.944 154.375,349.880 154.042 C 349.769 153.466,349.473 153.431,344.042 153.352 L 338.321 153.269 338.321 156.890 M375.642 172.443 L 375.725 178.168 381.985 178.321 L 388.244 178.473 388.322 210.458 L 388.400 242.443 394.200 242.443 L 400.000 242.443 400.000 210.388 L 400.000 178.334 394.122 178.251 L 388.244 178.168 388.161 172.443 L 388.078 166.718 381.819 166.718 L 375.559 166.718 375.642 172.443 M275.929 178.524 C 275.817 178.636,275.725 181.571,275.725 185.046 L 275.725 191.363 279.115 191.578 C 280.979 191.696,283.951 191.696,285.719 191.577 L 288.933 191.362 288.784 198.047 L 288.635 204.733 276.302 204.733 L 263.969 204.733 263.887 198.244 L 263.805 191.756 258.815 191.756 C 256.071 191.756,253.188 191.668,252.409 191.562 L 250.992 191.367 250.992 210.493 L 250.992 229.618 256.794 229.618 L 262.595 229.618 262.595 242.748 L 262.595 255.878 269.160 255.878 L 275.725 255.878 275.725 262.443 L 275.725 269.008 295.115 269.008 L 314.504 269.008 314.504 262.443 L 314.504 255.878 320.916 255.878 L 327.328 255.878 327.328 242.748 L 327.328 229.618 332.979 229.618 L 338.631 229.618 338.552 210.611 L 338.473 191.603 332.214 191.603 L 325.954 191.603 325.872 198.244 L 325.790 204.885 313.005 204.885 L 300.220 204.885 299.999 198.691 C 299.877 195.284,299.829 192.227,299.893 191.897 C 300.003 191.325,300.329 191.294,307.103 191.216 L 314.198 191.134 314.198 184.727 L 314.198 178.321 295.165 178.321 C 284.697 178.321,276.041 178.412,275.929 178.524 M27.176 184.885 L 27.176 191.145 45.496 191.145 L 63.817 191.145 63.817 184.885 L 63.817 178.626 45.496 178.626 L 27.176 178.626 27.176 184.885 M14.351 198.168 L 14.351 204.580 20.763 204.580 L 27.176 204.580 27.176 198.168 L 27.176 191.756 20.763 191.756 L 14.351 191.756 14.351 198.168 M63.817 198.168 L 63.817 204.580 70.229 204.580 L 76.641 204.580 76.641 198.168 L 76.641 191.756 70.229 191.756 L 63.817 191.756 63.817 198.168 M3.053 236.031 L 3.053 267.176 8.550 267.176 L 14.046 267.176 14.046 236.031 L 14.046 204.885 8.550 204.885 L 3.053 204.885 3.053 236.031 M314.430 235.954 L 314.508 255.573 295.117 255.573 L 275.725 255.573 275.725 236.081 C 275.725 225.361,275.818 216.498,275.931 216.384 C 276.044 216.271,284.735 216.214,295.244 216.257 L 314.351 216.336 314.430 235.954 M375.776 242.646 C 375.664 242.758,375.573 245.712,375.573 249.211 L 375.573 255.573 381.832 255.573 L 388.092 255.573 388.092 249.008 L 388.092 242.443 382.036 242.443 C 378.705 242.443,375.888 242.534,375.776 242.646 M362.958 255.770 C 362.842 255.885,362.748 258.845,362.748 262.347 L 362.748 268.715 369.084 268.632 L 375.420 268.550 375.420 262.137 L 375.420 255.725 369.294 255.643 C 365.924 255.597,363.073 255.655,362.958 255.770 M350.229 275.223 L 350.229 281.756 355.802 281.898 C 358.866 281.976,361.686 281.927,362.067 281.789 L 362.761 281.537 362.678 275.196 L 362.595 268.855 356.412 268.772 L 350.229 268.690 350.229 275.223 M338.531 282.334 C 338.263 282.602,338.257 313.470,338.523 324.656 L 338.724 333.130 350.583 333.130 L 362.443 333.130 362.443 327.481 L 362.443 321.832 356.354 321.832 C 353.005 321.832,350.201 321.729,350.124 321.603 C 350.046 321.477,349.887 312.580,349.771 301.832 L 349.559 282.290 344.150 282.207 C 341.175 282.161,338.646 282.219,338.531 282.334 M221.138 327.405 L 221.221 333.282 231.832 333.363 L 242.443 333.443 242.443 339.088 L 242.443 344.733 249.025 344.733 L 255.607 344.733 255.513 351.120 C 255.462 354.633,255.305 357.622,255.166 357.761 C 255.026 357.901,242.934 358.084,228.295 358.168 L 201.679 358.321 201.596 364.046 L 201.513 369.771 233.691 369.771 C 251.389 369.771,266.505 369.684,267.282 369.577 L 268.695 369.384 268.775 357.135 L 268.855 344.885 275.267 344.885 L 281.679 344.885 281.762 351.374 L 281.844 357.863 303.829 357.863 L 325.814 357.863 325.731 351.374 L 325.649 344.885 303.740 344.807 L 281.832 344.729 281.832 338.929 L 281.832 333.130 275.267 333.130 L 268.702 333.130 268.702 338.931 L 268.702 344.733 262.137 344.733 L 255.573 344.733 255.573 338.931 L 255.573 333.130 249.160 333.130 L 242.748 333.130 242.748 327.328 L 242.748 321.527 231.902 321.527 L 221.056 321.527 221.138 327.405 M362.748 339.072 L 362.748 344.720 369.084 344.803 L 375.420 344.885 375.420 351.196 C 375.420 354.667,375.305 357.621,375.166 357.761 C 375.026 357.901,363.930 358.062,350.509 358.119 L 326.107 358.223 326.107 364.608 L 326.107 370.992 348.626 371.011 C 361.011 371.021,373.756 371.071,376.947 371.121 C 380.137 371.170,383.952 371.152,385.423 371.079 L 388.098 370.947 388.019 358.069 L 387.939 345.191 381.762 345.108 L 375.586 345.026 375.503 339.307 L 375.420 333.588 369.084 333.505 L 362.748 333.423 362.748 339.072 M3.053 357.405 L 3.053 369.771 8.550 369.771 L 14.046 369.771 14.046 357.405 L 14.046 345.038 8.550 345.038 L 3.053 345.038 3.053 357.405 M76.641 351.450 L 76.641 357.863 139.084 357.863 L 201.527 357.863 201.527 351.450 L 201.527 345.038 139.084 345.038 L 76.641 345.038 76.641 351.450 M27.074 358.372 C 26.962 358.483,26.870 361.094,26.870 364.173 L 26.870 369.771 20.611 369.771 L 14.351 369.771 14.351 376.336 L 14.351 382.901 26.253 382.901 L 38.156 382.901 38.238 376.412 L 38.321 369.924 57.481 369.845 L 76.641 369.766 76.641 363.967 L 76.641 358.168 51.959 358.168 C 38.384 358.168,27.186 358.260,27.074 358.372 " stroke="none" fill="#000000" fill-rule="evenodd"></path><path id="path1" d="M164.580 18.473 L 164.580 25.038 170.840 25.038 L 177.099 25.038 177.099 31.414 L 177.099 37.791 164.429 38.017 L 151.759 38.243 151.681 63.778 L 151.603 89.313 144.809 89.395 L 138.015 89.477 138.015 96.036 L 138.015 102.595 132.366 102.595 L 126.718 102.595 126.718 114.962 L 126.718 127.328 120.305 127.328 L 113.893 127.328 113.893 173.233 L 113.893 219.138 104.962 219.340 C 100.050 219.450,94.347 219.541,92.290 219.541 L 88.550 219.542 88.550 221.327 C 88.550 222.308,88.460 224.575,88.351 226.365 L 88.151 229.618 76.137 229.618 L 64.122 229.618 64.122 236.183 L 64.122 242.748 57.710 242.748 L 51.298 242.748 51.298 261.633 L 51.298 280.518 48.044 280.717 C 46.255 280.826,43.369 280.916,41.632 280.916 L 38.473 280.916 38.473 301.985 L 38.473 323.053 43.511 323.053 L 48.550 323.053 48.550 328.244 L 48.550 333.435 37.863 333.435 L 27.176 333.435 27.176 339.237 L 27.176 345.038 20.763 345.038 L 14.351 345.038 14.351 357.405 L 14.351 369.771 20.611 369.771 L 26.870 369.771 26.870 363.969 L 26.870 358.168 51.752 358.168 L 76.634 358.168 76.714 345.725 L 76.794 333.282 139.084 333.282 L 201.374 333.282 201.454 345.725 L 201.534 358.168 221.939 358.168 C 233.162 358.168,245.252 358.077,248.806 357.967 L 255.267 357.765 255.267 351.402 L 255.267 345.038 248.855 345.038 L 242.443 345.038 242.443 339.237 L 242.443 333.435 231.756 333.435 L 221.069 333.435 221.069 327.634 L 221.069 321.832 217.557 321.832 L 214.046 321.832 214.046 314.548 L 214.046 307.264 211.985 307.069 C 210.851 306.962,204.805 306.874,198.550 306.872 L 187.176 306.870 187.173 295.496 C 187.171 289.240,187.084 283.401,186.978 282.519 L 186.785 280.916 181.942 280.916 L 177.099 280.916 177.099 274.198 L 177.099 267.481 170.687 267.481 L 164.275 267.481 164.275 261.679 L 164.275 255.878 157.863 255.878 L 151.450 255.878 151.450 249.313 L 151.450 242.748 146.563 242.748 L 141.677 242.748 141.754 210.611 L 141.832 178.473 145.954 178.399 C 152.136 178.287,151.450 179.155,151.450 171.445 L 151.450 164.885 157.863 164.885 L 164.275 164.885 164.275 159.084 L 164.275 153.282 182.901 153.282 L 201.527 153.282 201.527 159.084 L 201.527 164.885 207.786 164.885 L 214.046 164.885 214.046 159.084 L 214.046 153.282 221.221 153.282 L 228.397 153.282 228.397 140.153 L 228.397 127.023 239.847 127.023 L 251.298 127.023 251.298 140.305 L 251.298 153.588 244.885 153.588 L 238.473 153.588 238.473 159.964 L 238.473 166.340 251.374 166.551 C 258.469 166.666,266.885 166.717,270.076 166.663 L 275.878 166.565 275.960 160.080 L 276.043 153.595 288.174 153.515 L 300.305 153.435 300.388 146.952 L 300.470 140.469 307.411 140.387 L 314.351 140.305 314.351 114.809 L 314.351 89.313 307.252 89.231 L 300.153 89.149 300.153 82.591 L 300.153 76.033 257.176 75.955 L 214.198 75.878 214.119 63.594 L 214.039 51.310 207.706 51.228 L 201.374 51.145 201.292 44.497 L 201.209 37.849 195.643 37.932 L 190.076 38.015 190.076 50.382 L 190.076 62.748 195.649 62.831 L 201.221 62.915 201.221 69.469 L 201.221 76.023 189.237 76.103 L 177.252 76.183 177.169 82.672 L 177.087 89.160 170.681 89.160 L 164.275 89.160 164.275 82.595 L 164.275 76.031 170.687 76.031 L 177.099 76.031 177.099 56.947 L 177.099 37.863 181.985 37.863 L 186.870 37.863 186.870 24.885 L 186.870 11.908 175.725 11.908 L 164.580 11.908 164.580 18.473 M201.527 184.885 L 201.527 191.450 220.000 191.450 L 238.473 191.450 238.473 185.368 C 238.473 182.023,238.390 179.069,238.288 178.804 C 238.122 178.371,236.209 178.321,219.815 178.321 L 201.527 178.321 201.527 184.885 M338.764 178.707 C 338.681 178.924,338.650 181.845,338.696 185.199 L 338.779 191.298 350.687 191.298 L 362.595 191.298 362.595 184.885 L 362.595 178.473 350.755 178.393 C 341.311 178.330,338.884 178.393,338.764 178.707 M14.351 217.099 L 14.351 229.313 20.605 229.313 L 26.858 229.313 26.940 222.824 L 27.023 216.336 32.595 216.253 L 38.168 216.169 38.168 210.527 L 38.168 204.885 26.260 204.885 L 14.351 204.885 14.351 217.099 " stroke="none" fill="#f4ba48" fill-rule="evenodd"></path><path id="path2" d="M164.275 24.733 L 164.275 37.863 157.863 37.863 L 151.450 37.863 151.450 63.506 L 151.450 89.149 144.656 89.240 L 137.863 89.331 144.733 89.322 L 151.603 89.313 151.681 63.740 L 151.759 38.168 155.040 38.167 C 156.844 38.167,162.546 38.076,167.710 37.965 L 177.099 37.764 177.099 56.897 L 177.099 76.031 170.687 76.031 L 164.275 76.031 164.275 82.595 L 164.275 89.160 170.681 89.160 L 177.087 89.160 177.169 82.672 L 177.252 76.183 189.237 76.103 L 201.221 76.023 201.221 69.469 L 201.221 62.915 195.649 62.831 L 190.076 62.748 190.076 50.305 L 190.076 37.862 188.626 37.863 L 187.176 37.863 187.176 24.733 L 187.176 11.603 175.725 11.603 L 164.275 11.603 164.275 24.733 M325.802 24.244 C 325.802 31.203,325.718 37.114,325.616 37.380 C 325.457 37.795,324.668 37.863,319.967 37.863 L 314.504 37.863 314.504 44.421 L 314.504 50.979 320.076 51.062 L 325.649 51.145 325.732 56.870 L 325.815 62.595 269.924 62.595 L 214.034 62.595 214.116 69.237 L 214.198 75.878 257.176 75.955 L 300.153 76.033 300.153 82.591 L 300.153 89.149 307.252 89.231 L 314.351 89.313 314.351 114.809 L 314.351 140.305 307.411 140.387 L 300.470 140.469 300.388 146.952 L 300.305 153.435 288.174 153.515 L 276.043 153.595 275.960 160.080 L 275.878 166.565 263.740 166.645 L 251.603 166.725 251.603 172.320 L 251.603 177.915 269.695 178.118 C 292.555 178.373,306.267 178.374,317.016 178.118 L 325.483 177.917 325.566 172.241 L 325.649 166.565 331.985 166.482 L 338.321 166.400 338.321 159.834 L 338.321 153.269 344.046 153.352 L 349.771 153.435 349.853 159.924 L 349.936 166.412 356.342 166.412 L 362.748 166.412 362.748 146.876 L 362.748 127.341 356.412 127.258 L 350.076 127.176 349.924 101.679 L 349.771 76.183 344.242 76.100 L 338.714 76.017 338.488 63.886 C 338.363 57.215,338.307 42.756,338.363 31.756 L 338.463 11.756 332.132 11.673 L 325.802 11.591 325.802 24.244 M186.870 24.885 L 186.870 37.863 181.985 37.863 L 177.099 37.863 177.099 31.450 L 177.099 25.038 170.840 25.038 L 164.580 25.038 164.580 18.473 L 164.580 11.908 175.725 11.908 L 186.870 11.908 186.870 24.885 M201.365 44.427 L 201.374 51.145 207.634 51.154 L 213.893 51.164 207.716 51.072 L 201.539 50.980 201.447 44.345 L 201.355 37.710 201.365 44.427 M228.470 140.229 L 228.543 153.435 228.626 140.382 L 228.709 127.328 239.851 127.328 L 250.992 127.328 250.992 140.299 L 250.992 153.270 244.656 153.359 L 238.321 153.448 244.809 153.518 L 251.298 153.588 251.298 140.305 L 251.298 127.023 239.847 127.023 L 228.397 127.023 228.470 140.229 M337.634 127.529 L 338.321 127.700 338.321 140.491 L 338.321 153.282 332.254 153.282 L 326.187 153.282 325.994 152.137 C 325.711 150.460,325.362 128.119,325.608 127.477 C 325.815 126.938,335.426 126.979,337.634 127.529 M164.275 159.084 L 164.275 164.885 157.874 164.885 L 151.473 164.885 151.385 171.574 C 151.337 175.253,151.401 178.199,151.527 178.121 C 151.653 178.043,151.756 175.105,151.756 171.591 L 151.756 165.203 158.092 165.121 L 164.427 165.038 164.511 159.313 L 164.594 153.588 182.901 153.588 L 201.208 153.588 201.291 159.313 L 201.374 165.038 207.786 165.048 L 214.198 165.058 207.863 164.965 L 201.527 164.873 201.527 159.078 L 201.527 153.282 182.901 153.282 L 164.275 153.282 164.275 159.084 M241.620 166.640 C 243.434 166.694,246.320 166.694,248.032 166.640 C 249.744 166.585,248.260 166.541,244.733 166.541 C 241.206 166.542,239.805 166.586,241.620 166.640 M220.209 178.244 C 223.514 178.293,229.010 178.293,232.422 178.244 C 235.834 178.195,233.130 178.154,226.412 178.154 C 219.695 178.154,216.903 178.195,220.209 178.244 M14.046 236.024 L 14.046 267.469 20.534 267.551 L 27.023 267.634 27.105 274.122 L 27.188 280.611 32.633 280.611 L 38.078 280.611 38.303 261.759 C 38.427 251.390,38.592 242.803,38.671 242.675 C 38.750 242.547,41.537 242.443,44.865 242.443 L 50.915 242.443 51.141 229.645 C 51.265 222.606,51.274 216.698,51.162 216.515 C 51.025 216.294,48.881 216.183,44.715 216.183 L 38.473 216.183 38.473 210.382 L 38.473 204.580 26.260 204.580 L 14.046 204.580 14.046 236.024 M38.168 210.527 L 38.168 216.169 32.595 216.253 L 27.023 216.336 26.940 222.824 L 26.858 229.313 20.605 229.313 L 14.351 229.313 14.351 217.099 L 14.351 204.885 26.260 204.885 L 38.168 204.885 38.168 210.527 M88.142 219.135 C 88.031 219.247,87.956 221.205,87.977 223.486 C 88.020 228.144,88.486 227.066,88.527 222.214 L 88.550 219.542 94.885 219.501 C 98.370 219.478,102.870 219.364,104.885 219.249 C 107.618 219.092,105.982 219.025,98.448 218.985 C 92.892 218.955,88.254 219.023,88.142 219.135 M141.725 241.756 L 141.679 242.748 146.565 242.748 L 151.450 242.748 151.450 249.313 L 151.450 255.878 157.863 255.878 L 164.275 255.878 164.275 261.679 L 164.275 267.481 170.687 267.481 L 177.099 267.481 177.099 274.198 L 177.099 280.916 181.959 280.916 C 184.974 280.916,186.878 281.035,186.975 281.229 C 187.060 281.401,187.094 281.367,187.051 281.153 C 186.992 280.861,185.769 280.742,182.195 280.679 L 177.416 280.595 177.334 273.962 L 177.252 267.328 170.923 267.246 L 164.594 267.163 164.511 261.444 L 164.427 255.725 158.098 255.643 L 151.768 255.560 151.685 249.078 L 151.603 242.595 146.813 242.511 L 142.024 242.427 141.897 241.595 C 141.781 240.830,141.767 240.843,141.725 241.756 M40.534 280.837 C 41.752 280.895,43.744 280.895,44.962 280.837 C 46.179 280.779,45.183 280.732,42.748 280.732 C 40.313 280.732,39.317 280.779,40.534 280.837 M213.733 307.071 C 213.934 307.171,214.046 309.847,214.046 314.529 L 214.046 321.832 217.634 321.767 L 221.221 321.702 217.792 321.604 L 214.362 321.507 214.280 314.290 C 214.217 308.738,214.109 307.055,213.809 306.995 C 213.595 306.951,213.561 306.986,213.733 307.071 M325.706 321.724 C 325.590 321.840,325.496 324.450,325.496 327.525 L 325.496 333.116 319.924 333.199 L 314.351 333.282 314.268 339.008 L 314.185 344.733 320.005 344.733 L 325.824 344.733 325.737 351.451 L 325.649 358.168 346.288 358.168 C 357.639 358.168,368.803 358.078,371.097 357.968 L 375.267 357.768 375.267 351.250 L 375.267 344.733 369.008 344.733 L 362.748 344.733 362.748 338.931 L 362.748 333.130 350.694 333.130 L 338.639 333.130 338.556 327.405 L 338.473 321.679 332.194 321.597 C 328.741 321.552,325.821 321.609,325.706 321.724 M14.185 345.115 C 14.105 345.325,14.076 350.993,14.122 357.710 L 14.206 369.924 14.278 357.487 L 14.351 345.050 20.840 344.961 L 27.328 344.873 20.830 344.803 C 15.856 344.749,14.298 344.822,14.185 345.115 M248.772 344.961 L 255.254 345.050 255.344 351.075 L 255.434 357.099 255.503 350.916 L 255.573 344.733 248.931 344.803 L 242.290 344.873 248.772 344.961 M248.485 358.089 C 249.541 358.149,251.190 358.148,252.149 358.088 C 253.108 358.027,252.244 357.979,250.229 357.979 C 248.214 357.980,247.429 358.029,248.485 358.089 " stroke="none" fill="#b16931" fill-rule="evenodd"></path><path id="path3" d="M275.931 216.384 C 275.818 216.498,275.725 225.361,275.725 236.081 L 275.725 255.573 295.117 255.573 L 314.508 255.573 314.430 235.954 L 314.351 216.336 295.244 216.257 C 284.735 216.214,276.044 216.271,275.931 216.384 " stroke="none" fill="#c41c1c" fill-rule="evenodd"></path><path id="path4" d="M325.802 172.366 L 325.802 178.015 320.159 178.015 L 314.516 178.015 314.433 184.656 L 314.351 191.298 309.618 191.486 C 307.015 191.590,303.889 191.693,302.672 191.715 L 300.458 191.756 300.458 198.168 L 300.458 204.580 312.971 204.580 L 325.484 204.580 325.567 197.939 L 325.649 191.298 332.137 191.215 C 336.444 191.161,338.626 191.239,338.626 191.448 C 338.626 191.660,342.578 191.737,350.763 191.683 L 362.901 191.603 362.983 185.115 L 363.066 178.626 369.166 178.626 L 375.267 178.626 375.267 210.528 L 375.267 242.430 369.084 242.513 L 362.901 242.595 362.818 249.078 L 362.736 255.560 356.406 255.643 L 350.076 255.725 349.994 262.214 L 349.912 268.702 356.330 268.702 L 362.748 268.702 362.748 262.137 L 362.748 255.573 369.160 255.573 L 375.573 255.573 375.573 249.008 L 375.573 242.443 381.832 242.443 L 388.092 242.443 388.092 210.534 L 388.092 178.626 382.046 178.626 C 374.583 178.626,375.267 179.264,375.267 172.305 L 375.267 166.718 362.595 166.718 L 349.924 166.718 349.924 172.513 L 349.924 178.308 356.260 178.391 L 362.595 178.473 362.595 184.885 L 362.595 191.298 350.687 191.298 L 338.779 191.298 338.720 184.776 C 338.687 181.189,338.584 178.177,338.491 178.084 C 338.397 177.990,338.321 175.394,338.321 172.316 L 338.321 166.718 332.061 166.718 L 325.802 166.718 325.802 172.366 M201.221 184.885 L 201.221 191.756 220.000 191.756 L 238.779 191.756 238.711 187.099 L 238.644 182.443 238.550 186.947 L 238.457 191.450 219.992 191.450 L 201.527 191.450 201.527 184.893 L 201.527 178.335 206.947 178.244 L 212.366 178.153 206.794 178.084 L 201.221 178.015 201.221 184.885 M51.164 204.855 C 51.038 205.059,51.036 210.645,51.159 217.269 L 51.383 229.313 57.600 229.313 L 63.817 229.313 63.817 222.748 L 63.817 216.183 70.229 216.183 L 76.641 216.183 76.641 210.534 L 76.641 204.885 73.359 204.885 C 71.553 204.885,65.873 204.794,60.735 204.684 C 53.553 204.530,51.340 204.569,51.164 204.855 M375.690 259.542 C 375.690 261.641,375.739 262.500,375.799 261.450 C 375.858 260.401,375.858 258.683,375.799 257.634 C 375.739 256.584,375.690 257.443,375.690 259.542 M338.321 275.267 L 338.321 281.832 288.244 281.832 L 238.168 281.832 238.168 287.939 L 238.168 294.046 250.992 294.046 L 263.817 294.046 263.817 300.611 L 263.817 307.176 281.832 307.176 L 299.847 307.176 299.847 313.581 L 299.847 319.987 293.664 320.070 L 287.481 320.153 287.401 332.443 L 287.321 344.733 300.760 344.733 L 314.198 344.733 314.198 338.931 L 314.198 333.130 319.847 333.130 L 325.496 333.130 325.496 327.328 L 325.496 321.527 331.908 321.527 L 338.321 321.527 338.321 301.679 L 338.321 281.832 343.969 281.832 L 349.618 281.832 349.618 275.267 L 349.618 268.702 343.969 268.702 L 338.321 268.702 338.321 275.267 M362.866 272.672 C 362.866 274.771,362.915 275.630,362.974 274.580 C 363.034 273.531,363.034 271.813,362.974 270.763 C 362.915 269.714,362.866 270.573,362.866 272.672 M187.247 298.550 L 187.176 306.870 195.191 306.799 L 203.206 306.728 195.348 306.641 L 187.491 306.555 187.404 298.392 L 187.318 290.229 187.247 298.550 M76.846 333.333 C 76.733 333.445,76.641 336.056,76.641 339.135 L 76.641 344.733 139.091 344.733 L 201.540 344.733 201.457 339.008 L 201.374 333.282 139.212 333.205 C 105.023 333.163,76.958 333.220,76.846 333.333 " stroke="none" fill="#99909e" fill-rule="evenodd"></path><path id="path5" d="M164.344 5.719 L 164.275 11.591 157.939 11.673 L 151.603 11.756 151.523 24.803 L 151.444 37.851 144.653 37.933 L 137.863 38.015 137.785 63.581 L 137.706 89.147 132.136 89.230 L 126.565 89.313 126.482 95.795 L 126.400 102.278 120.070 102.360 L 113.740 102.443 113.661 114.727 L 113.581 127.011 107.248 127.093 L 100.916 127.176 100.839 165.878 L 100.761 204.580 88.860 204.580 L 76.959 204.580 76.876 198.092 L 76.794 191.603 70.382 191.450 L 63.969 191.298 63.969 184.885 L 63.969 178.473 45.496 178.473 L 27.023 178.473 27.023 184.885 L 27.023 191.298 47.786 191.483 C 59.206 191.585,70.370 191.689,72.595 191.712 L 76.641 191.756 76.641 198.324 L 76.641 204.893 88.779 204.813 L 100.916 204.733 100.994 166.031 L 101.071 127.328 107.482 127.328 L 113.893 127.328 113.893 114.968 L 113.893 102.608 120.229 102.525 L 126.565 102.443 126.647 95.961 L 126.730 89.479 132.296 89.396 L 137.863 89.313 137.941 63.746 L 138.019 38.180 144.811 38.097 L 151.603 38.015 151.683 24.962 L 151.762 11.908 158.028 11.908 C 162.843 11.908,164.329 11.818,164.444 11.517 C 164.527 11.302,164.554 8.588,164.504 5.486 L 164.413 -0.153 164.344 5.719 M325.622 5.191 C 325.622 8.130,325.668 9.332,325.724 7.863 C 325.780 6.393,325.780 3.989,325.724 2.519 C 325.668 1.050,325.622 2.252,325.622 5.191 M349.691 38.092 C 349.651 59.126,349.721 76.336,349.847 76.336 C 350.055 76.336,350.053 49.869,349.844 13.588 C 349.800 6.031,349.732 17.057,349.691 38.092 M187.070 11.679 C 187.148 11.805,190.364 11.908,194.216 11.908 L 201.221 11.908 201.221 24.867 C 201.221 31.995,201.324 37.890,201.450 37.968 C 201.576 38.046,201.611 32.180,201.527 24.933 L 201.374 11.756 194.151 11.603 C 190.178 11.519,186.992 11.553,187.070 11.679 M314.402 11.807 C 314.290 11.919,314.198 17.824,314.198 24.931 L 314.198 37.851 307.252 37.933 L 300.305 38.015 300.223 44.504 L 300.141 50.992 257.252 50.992 L 214.363 50.992 214.281 44.529 C 214.218 39.588,214.107 38.047,213.809 37.987 C 213.595 37.944,213.561 37.978,213.733 38.064 C 213.932 38.162,214.046 40.597,214.046 44.759 L 214.046 51.300 257.176 51.222 L 300.305 51.145 300.388 44.662 L 300.470 38.179 307.411 38.097 L 314.351 38.015 314.504 24.809 C 314.588 17.546,314.645 11.603,314.631 11.603 C 314.617 11.603,314.514 11.695,314.402 11.807 M381.749 166.638 L 388.078 166.730 388.161 172.449 L 388.244 178.168 394.198 178.178 L 400.153 178.189 394.282 178.095 L 388.410 178.002 388.327 172.284 L 388.244 166.565 381.832 166.555 L 375.420 166.545 381.749 166.638 M381.985 178.546 L 388.092 178.639 388.092 217.099 L 388.092 255.560 381.985 255.652 L 375.877 255.745 382.061 255.735 L 388.244 255.725 388.327 249.243 L 388.409 242.761 394.281 242.671 L 400.153 242.581 394.276 242.512 L 388.400 242.443 388.322 210.458 L 388.244 178.473 382.061 178.464 L 375.877 178.454 381.985 178.546 M63.817 184.885 L 63.817 191.145 45.496 191.145 L 27.176 191.145 27.176 184.885 L 27.176 178.626 45.496 178.626 L 63.817 178.626 63.817 184.885 M299.980 191.545 C 299.895 191.766,299.870 193.517,299.924 195.439 L 300.022 198.931 300.087 195.197 L 300.153 191.463 306.489 191.374 L 312.824 191.285 306.479 191.215 C 301.476 191.160,300.101 191.230,299.980 191.545 M14.249 191.654 C 14.137 191.766,14.046 194.717,14.046 198.212 L 14.046 204.566 8.473 204.650 L 2.901 204.733 2.901 236.031 L 2.901 267.328 8.467 267.411 L 14.034 267.495 14.116 274.129 L 14.198 280.763 20.534 280.846 L 26.870 280.928 26.870 307.023 L 26.870 333.117 20.534 333.200 L 14.198 333.282 14.115 339.001 L 14.032 344.719 8.467 344.802 L 2.901 344.885 2.901 357.405 L 2.901 369.924 8.467 370.007 L 14.034 370.090 14.116 376.572 L 14.198 383.053 26.260 383.053 L 38.321 383.053 38.403 376.567 L 38.485 370.081 57.640 370.002 L 76.794 369.924 76.804 364.198 L 76.815 358.473 76.721 364.120 L 76.628 369.766 57.474 369.845 L 38.321 369.924 38.238 376.412 L 38.156 382.901 26.253 382.901 L 14.351 382.901 14.351 376.336 L 14.351 369.771 8.702 369.771 L 3.053 369.771 3.053 357.405 L 3.053 345.038 8.702 345.038 L 14.351 345.038 14.351 339.243 L 14.351 333.448 20.687 333.365 L 27.023 333.282 27.023 307.023 L 27.023 280.763 20.693 280.681 L 14.363 280.598 14.281 273.963 L 14.198 267.328 8.626 267.245 L 3.053 267.162 3.053 236.031 L 3.053 204.899 8.626 204.816 L 14.198 204.733 14.281 198.250 L 14.363 191.768 20.693 191.679 L 27.023 191.590 20.738 191.520 C 17.281 191.482,14.361 191.542,14.249 191.654 M286.786 191.676 L 288.534 191.786 288.627 196.580 L 288.719 201.374 288.787 196.412 L 288.855 191.450 286.947 191.508 L 285.038 191.566 286.786 191.676 M369.160 268.702 L 362.901 268.874 369.066 268.941 C 372.920 268.983,375.302 268.893,375.420 268.702 C 375.524 268.534,375.566 268.427,375.514 268.464 C 375.462 268.500,372.603 268.608,369.160 268.702 M349.923 275.420 C 349.840 279.198,349.771 282.290,349.771 282.290 C 349.771 282.290,351.969 282.215,354.656 282.122 L 359.542 281.954 354.891 281.893 L 350.241 281.832 350.158 275.191 L 350.076 268.550 349.923 275.420 M349.755 292.672 C 349.755 298.214,349.796 300.524,349.847 297.806 C 349.897 295.087,349.897 290.553,349.847 287.729 C 349.796 284.906,349.755 287.130,349.755 292.672 M350.058 319.237 L 350.076 321.679 356.253 321.762 L 362.429 321.845 362.512 327.564 L 362.595 333.282 369.055 333.435 C 372.608 333.519,375.451 333.485,375.373 333.359 C 375.295 333.233,372.425 333.130,368.996 333.130 L 362.762 333.130 362.678 327.405 L 362.595 321.679 356.424 321.597 L 350.254 321.514 350.146 319.154 L 350.039 316.794 350.058 319.237 M375.473 345.038 C 375.334 347.977,375.271 351.687,375.333 353.282 C 375.403 355.076,375.470 354.056,375.509 350.611 L 375.573 345.038 377.328 344.982 L 379.084 344.925 377.493 344.813 L 375.902 344.702 375.814 342.198 C 375.748 340.328,375.661 341.047,375.473 345.038 M108.040 344.962 C 125.225 345.005,153.255 345.005,170.330 344.962 C 187.404 344.918,173.344 344.883,139.084 344.883 C 104.824 344.883,90.854 344.918,108.040 344.962 M268.912 344.930 C 268.797 345.046,268.702 350.605,268.702 357.283 L 268.702 369.427 267.710 369.562 L 266.718 369.698 267.786 369.658 L 268.855 369.618 268.935 357.328 L 269.015 345.038 275.265 345.038 L 281.515 345.038 281.597 351.527 L 281.679 358.015 303.511 358.018 L 325.344 358.021 303.594 357.940 L 281.844 357.859 281.762 351.372 L 281.679 344.885 275.400 344.803 C 271.947 344.758,269.027 344.815,268.912 344.930 M388.022 358.018 L 388.104 370.967 385.732 371.075 L 383.359 371.182 385.802 371.164 L 388.244 371.145 388.324 358.339 C 388.368 351.296,388.299 345.429,388.171 345.301 C 388.044 345.173,387.976 350.896,388.022 358.018 M108.040 358.092 C 125.225 358.135,153.255 358.135,170.330 358.092 C 187.404 358.048,173.344 358.012,139.084 358.012 C 104.824 358.012,90.854 358.048,108.040 358.092 M201.357 358.560 C 201.274 358.775,201.244 361.420,201.290 364.438 L 201.374 369.924 215.878 369.928 L 230.382 369.933 215.941 369.849 L 201.501 369.765 201.590 363.966 C 201.678 358.262,201.657 357.778,201.357 358.560 M325.871 364.656 L 325.802 371.298 350.153 371.223 L 374.504 371.149 350.311 371.069 L 326.119 370.989 326.030 364.502 L 325.941 358.015 325.871 364.656 " stroke="none" fill="#3c637d" fill-rule="evenodd"></path><path id="path7" d="M187.013 5.802 L 187.023 11.450 194.198 11.603 L 201.374 11.756 201.454 24.809 L 201.533 37.863 203.744 37.803 L 205.954 37.743 203.896 37.636 L 201.839 37.529 201.759 24.490 L 201.679 11.450 194.434 11.369 L 187.189 11.287 187.096 5.720 L 187.003 0.153 187.013 5.802 M349.999 37.939 L 349.924 76.031 356.336 76.031 L 362.748 76.031 362.748 101.679 L 362.748 127.328 369.160 127.328 L 375.573 127.328 375.573 146.864 L 375.573 166.400 369.160 166.492 L 362.748 166.584 369.236 166.574 L 375.725 166.565 375.804 146.794 L 375.882 127.023 369.470 127.023 L 363.057 127.023 362.979 101.450 L 362.901 75.878 356.566 75.795 L 350.231 75.713 350.153 37.780 L 350.074 -0.153 349.999 37.939 M325.496 10.778 C 325.496 11.200,325.017 11.292,322.366 11.375 L 319.237 11.474 322.376 11.539 C 325.418 11.601,326.476 11.260,325.687 10.470 C 325.582 10.366,325.496 10.504,325.496 10.778 M300.051 38.066 C 299.939 38.178,299.847 41.063,299.847 44.477 L 299.847 50.685 257.023 50.763 L 214.198 50.842 257.164 50.917 L 300.130 50.992 300.217 44.427 C 300.266 40.816,300.294 37.862,300.280 37.862 C 300.266 37.862,300.163 37.954,300.051 38.066 M228.702 140.305 L 228.702 153.282 239.847 153.282 L 250.992 153.282 250.992 140.305 L 250.992 127.328 239.847 127.328 L 228.702 127.328 228.702 140.305 M326.107 140.458 L 326.107 153.282 332.214 153.282 L 338.321 153.282 338.321 140.458 L 338.321 127.634 332.214 127.634 L 326.107 127.634 326.107 140.458 M164.511 159.313 L 164.427 165.038 158.092 165.121 L 151.756 165.203 151.756 171.591 C 151.756 175.373,151.635 178.054,151.461 178.162 C 151.298 178.262,149.100 178.429,146.575 178.532 L 141.985 178.721 141.985 210.574 L 141.985 242.427 146.794 242.511 L 151.603 242.595 151.685 249.078 L 151.768 255.560 158.098 255.643 L 164.427 255.725 164.511 261.444 L 164.594 267.163 170.923 267.246 L 177.252 267.328 177.334 273.969 L 177.416 280.611 182.125 280.611 C 184.880 280.611,186.911 280.735,187.020 280.911 C 187.122 281.076,187.289 286.893,187.391 293.839 L 187.577 306.467 200.684 306.666 C 207.892 306.775,213.916 306.943,214.071 307.038 C 214.228 307.136,214.351 310.347,214.351 314.369 L 214.351 321.527 228.550 321.527 L 242.748 321.527 242.748 327.328 L 242.748 333.130 249.160 333.130 L 255.573 333.130 255.573 338.931 L 255.573 344.733 262.137 344.733 L 268.702 344.733 268.702 338.931 L 268.702 333.130 275.267 333.130 L 281.832 333.130 281.832 338.931 L 281.832 344.733 284.577 344.733 L 287.321 344.733 287.401 332.443 L 287.481 320.153 293.664 320.070 L 299.847 319.987 299.847 313.581 L 299.847 307.176 281.832 307.176 L 263.817 307.176 263.817 300.611 L 263.817 294.046 250.992 294.046 L 238.168 294.046 238.168 287.939 L 238.168 281.832 288.244 281.832 L 338.321 281.832 338.321 275.267 L 338.321 268.702 343.969 268.702 L 349.618 268.702 349.618 275.260 L 349.618 281.818 344.122 281.912 L 338.625 282.006 344.198 281.995 L 349.771 281.985 349.924 268.855 L 350.076 255.725 356.406 255.643 L 362.736 255.560 362.818 249.078 L 362.901 242.595 369.084 242.513 L 375.267 242.430 375.267 210.528 L 375.267 178.626 369.160 178.626 L 363.053 178.626 363.053 185.191 L 363.053 191.756 350.840 191.756 L 338.626 191.756 338.626 210.687 L 338.626 229.618 332.977 229.618 L 327.328 229.618 327.328 242.748 L 327.328 255.878 320.916 255.878 L 314.504 255.878 314.504 262.443 L 314.504 269.008 295.115 269.008 L 275.725 269.008 275.725 262.443 L 275.725 255.878 269.160 255.878 L 262.595 255.878 262.595 242.748 L 262.595 229.618 256.794 229.618 L 250.992 229.618 250.992 210.490 L 250.992 191.361 253.329 191.558 C 254.613 191.667,257.496 191.756,259.735 191.756 L 263.805 191.756 263.887 198.244 L 263.969 204.733 276.260 204.738 L 288.550 204.743 276.342 204.658 L 264.134 204.573 264.052 198.088 L 263.969 191.603 260.458 191.430 L 256.947 191.257 260.611 191.277 L 264.275 191.298 264.357 197.786 L 264.440 204.275 276.495 204.275 L 288.550 204.275 288.550 198.015 L 288.550 191.756 285.115 191.754 C 283.225 191.753,280.340 191.664,278.702 191.555 L 275.725 191.358 275.725 184.992 L 275.725 178.626 263.359 178.626 L 250.992 178.626 250.992 172.672 L 250.992 166.718 244.684 166.718 L 238.376 166.718 238.589 179.237 L 238.802 191.756 220.012 191.756 L 201.221 191.756 201.221 184.885 L 201.221 178.015 207.634 178.015 L 214.046 178.015 214.046 171.609 L 214.046 165.203 207.710 165.121 L 201.374 165.038 201.291 159.313 L 201.208 153.588 182.901 153.588 L 164.594 153.588 164.511 159.313 M338.448 172.366 C 338.448 175.557,338.493 176.821,338.548 175.175 C 338.603 173.529,338.603 170.918,338.548 169.373 C 338.493 167.829,338.448 169.176,338.448 172.366 M349.746 172.366 C 349.746 175.557,349.791 176.821,349.846 175.175 C 349.901 173.529,349.901 170.918,349.846 169.373 C 349.790 167.829,349.745 169.176,349.746 172.366 M27.020 191.704 C 27.105 191.928,27.176 194.917,27.176 198.346 L 27.176 204.580 32.824 204.580 L 38.473 204.580 38.473 210.382 L 38.473 216.183 44.733 216.183 L 50.992 216.183 50.992 210.552 C 50.992 206.828,51.105 204.852,51.324 204.716 C 51.507 204.604,57.278 204.613,64.149 204.737 L 76.641 204.963 76.641 210.567 L 76.641 216.171 70.305 216.253 L 63.969 216.336 63.960 222.825 L 63.951 229.313 64.043 222.907 L 64.134 216.501 70.464 216.418 L 76.794 216.336 76.794 210.534 L 76.794 204.733 70.294 204.650 L 63.794 204.568 63.882 197.933 L 63.969 191.298 45.416 191.298 C 30.092 191.298,26.891 191.368,27.020 191.704 M350.064 282.519 C 349.983 282.729,349.955 290.527,350.000 299.847 L 350.082 316.794 350.155 299.628 L 350.229 282.462 353.969 282.365 L 357.710 282.269 353.960 282.203 C 351.191 282.155,350.172 282.237,350.064 282.519 M375.660 338.473 C 375.662 339.313,375.721 339.620,375.792 339.156 C 375.862 338.692,375.860 338.005,375.787 337.629 C 375.715 337.254,375.658 337.634,375.660 338.473 M380.076 344.956 C 380.790 345.021,381.958 345.021,382.672 344.956 C 383.385 344.892,382.802 344.840,381.374 344.840 C 379.947 344.840,379.363 344.892,380.076 344.956 M325.566 364.809 L 325.496 371.603 344.504 371.529 L 363.511 371.455 344.662 371.374 L 325.813 371.293 325.725 364.654 L 325.636 358.015 325.566 364.809 M234.122 369.999 C 236.179 370.052,239.546 370.052,241.603 369.999 C 243.660 369.946,241.977 369.903,237.863 369.903 C 233.748 369.903,232.065 369.946,234.122 369.999 " stroke="none" fill="#ffffff" fill-rule="evenodd"></path><path id="path7" d="M325.700 127.226 C 325.448 127.478,325.507 140.063,325.792 146.870 C 325.944 150.512,325.996 148.523,325.978 139.695 L 325.954 127.481 331.756 127.511 C 336.978 127.538,337.206 127.519,334.046 127.322 C 329.220 127.021,325.943 126.984,325.700 127.226 M250.992 172.501 L 250.992 178.626 263.359 178.626 C 271.399 178.626,275.725 178.519,275.725 178.321 C 275.725 178.122,271.501 178.015,263.664 178.015 L 251.603 178.015 251.603 172.384 C 251.603 168.960,251.483 166.680,251.298 166.565 C 251.098 166.441,250.992 168.496,250.992 172.501 M325.632 166.804 C 325.549 167.020,325.523 169.665,325.573 172.682 L 325.664 178.168 325.733 172.449 L 325.802 166.730 332.137 166.641 L 338.473 166.552 332.128 166.482 C 327.193 166.428,325.749 166.499,325.632 166.804 M353.053 166.640 C 354.859 166.694,357.813 166.694,359.618 166.640 C 361.424 166.586,359.947 166.542,356.336 166.542 C 352.725 166.542,351.248 166.586,353.053 166.640 M375.394 172.366 C 375.395 175.557,375.440 176.821,375.495 175.175 C 375.550 173.529,375.550 170.918,375.494 169.373 C 375.439 167.829,375.394 169.176,375.394 172.366 M212.752 178.231 C 213.131 178.304,213.681 178.301,213.973 178.225 C 214.265 178.149,213.954 178.089,213.282 178.092 C 212.611 178.096,212.372 178.158,212.752 178.231 M314.268 184.478 C 314.216 189.432,314.103 191.133,313.817 191.248 C 313.518 191.369,313.520 191.407,313.826 191.426 C 314.475 191.466,314.520 190.926,314.427 184.267 L 314.338 177.863 314.268 184.478 M341.466 178.243 C 343.112 178.298,345.723 178.298,347.268 178.243 C 348.812 178.187,347.466 178.142,344.275 178.143 C 341.084 178.143,339.820 178.188,341.466 178.243 M141.820 178.702 C 141.740 178.912,141.711 193.031,141.755 210.076 L 141.835 241.069 141.910 209.858 L 141.985 178.647 145.267 178.548 L 148.550 178.450 145.258 178.385 C 142.856 178.338,141.926 178.424,141.820 178.702 M260.458 191.430 L 263.969 191.603 264.052 198.092 L 264.134 204.580 276.418 204.507 L 288.702 204.435 276.571 204.351 L 264.440 204.268 264.357 197.783 L 264.275 191.298 260.611 191.277 L 256.947 191.257 260.458 191.430 M325.700 191.349 C 325.588 191.461,325.496 194.483,325.496 198.066 L 325.496 204.580 312.977 204.580 L 300.458 204.580 300.458 198.179 L 300.458 191.779 303.282 191.678 L 306.107 191.577 303.124 191.514 L 300.141 191.450 300.223 198.092 L 300.305 204.733 312.977 204.733 L 325.649 204.733 325.731 198.098 L 325.813 191.462 332.296 191.374 L 338.779 191.285 332.341 191.215 C 328.800 191.177,325.812 191.237,325.700 191.349 M187.246 289.466 C 187.246 290.053,187.309 290.294,187.386 290.000 C 187.463 289.706,187.463 289.225,187.386 288.931 C 187.309 288.637,187.246 288.878,187.246 289.466 M211.836 307.086 C 212.215 307.159,212.765 307.156,213.057 307.080 C 213.349 307.004,213.038 306.944,212.366 306.947 C 211.695 306.951,211.456 307.013,211.836 307.086 " stroke="none" fill="#a299a2" fill-rule="evenodd"></path></g></svg>