<svg id="svg" version="1.1" xmlns="http://www.w3.org/2000/svg" xmlns:xlink="http://www.w3.org/1999/xlink" width="400" height="400" viewBox="0, 0, 400,400"><g id="svgg"><path id="path0" d="M282.583 117.016 C 280.471 117.272,277.414 118.090,275.246 118.980 C 274.148 119.431,270.700 120.847,267.583 122.128 C 264.467 123.409,259.629 125.395,256.833 126.542 C 254.037 127.689,250.850 129.004,249.750 129.464 C 248.650 129.924,245.762 131.126,243.333 132.134 C 228.972 138.095,222.012 141.012,219.546 142.103 C 216.730 143.349,203.927 148.671,185.917 156.081 C 182.525 157.477,172.100 161.771,162.750 165.625 C 145.753 172.630,137.776 175.912,122.750 182.082 C 118.350 183.889,113.700 185.803,112.417 186.336 C 109.922 187.371,104.274 189.683,99.917 191.451 C 98.450 192.046,95.750 193.155,93.917 193.916 C 89.811 195.620,87.688 196.492,84.250 197.885 C 77.476 200.629,74.721 202.161,72.180 204.594 C 68.342 208.267,68.587 212.834,72.774 215.704 C 73.618 216.282,95.684 223.637,104.833 226.390 C 105.888 226.707,107.875 227.317,109.250 227.746 C 120.015 231.105,129.734 231.321,136.236 228.348 C 138.451 227.335,186.867 194.932,212.500 177.308 C 225.867 168.117,230.195 165.535,234.833 163.984 C 241.244 161.841,241.992 166.050,236.526 173.500 C 233.859 177.135,201.160 208.612,177.250 230.561 C 169.958 237.256,168.716 238.885,168.156 242.497 C 167.208 248.609,170.870 252.193,195.507 269.266 C 198.877 271.601,217.406 283.962,227.037 290.299 C 229.446 291.884,231.979 293.583,232.667 294.075 C 241.983 300.734,254.059 304.853,260.083 303.425 C 265.716 302.090,270.094 295.963,270.986 288.167 C 271.142 286.805,272.431 278.702,280.849 226.167 C 282.957 213.012,284.940 200.563,285.256 198.500 C 295.589 131.147,295.443 132.183,295.289 127.352 C 295.040 119.555,290.710 116.033,282.583 117.016 " stroke="none" fill="#fbfbfb" fill-rule="evenodd"></path><path id="path1" d="M190.250 0.098 C 188.634 0.147,187.865 0.206,181.667 0.758 C 87.636 9.136,11.432 83.759,1.182 177.500 C 0.210 186.387,0.083 188.989,0.083 200.000 C 0.083 209.669,0.145 211.505,0.676 217.500 C 9.231 314.262,85.738 390.769,182.500 399.324 C 188.495 399.855,190.331 399.917,200.000 399.917 C 209.669 399.917,211.505 399.855,217.500 399.324 C 314.258 390.770,390.770 314.258,399.324 217.500 C 399.855 211.505,399.917 209.669,399.917 200.000 C 399.917 188.989,399.790 186.387,398.818 177.500 C 388.533 83.436,311.439 8.319,217.333 0.669 C 216.096 0.569,214.446 0.409,213.667 0.314 C 212.346 0.153,193.990 -0.017,190.250 0.098 M289.207 117.374 C 294.782 119.201,296.361 124.038,294.938 134.917 C 293.205 148.157,287.207 187.149,279.336 236.333 C 276.674 252.971,273.742 271.383,272.820 277.250 C 270.405 292.616,270.374 292.756,268.711 296.083 C 264.541 304.427,257.023 305.982,245.083 300.972 C 240.731 299.146,235.407 296.182,231.667 293.505 C 230.796 292.881,227.908 290.949,225.250 289.212 C 195.383 269.688,176.991 256.764,171.819 251.667 C 167.240 247.153,166.737 242.097,170.383 237.250 C 171.562 235.682,172.069 235.182,178.000 229.728 C 195.949 213.224,222.433 187.961,232.252 177.979 C 241.215 168.866,242.946 161.993,235.817 163.816 C 231.370 164.954,226.652 167.692,213.250 176.913 C 198.205 187.265,174.185 203.492,158.000 214.240 C 154.104 216.827,147.879 220.961,144.167 223.428 C 134.384 229.927,132.105 230.699,123.442 230.450 C 116.755 230.258,114.449 229.664,90.750 222.020 C 74.248 216.697,72.609 216.049,71.111 214.250 C 66.680 208.932,70.563 203.386,82.000 198.692 C 83.146 198.222,86.108 197.004,88.583 195.987 C 91.058 194.970,96.346 192.801,100.333 191.169 C 104.321 189.536,108.708 187.736,110.083 187.169 C 111.458 186.602,114.383 185.402,116.583 184.503 C 118.783 183.604,122.308 182.156,124.417 181.285 C 126.525 180.414,130.387 178.824,133.000 177.753 C 135.612 176.681,139.400 175.127,141.417 174.299 C 147.209 171.922,169.365 162.798,173.500 161.087 C 175.563 160.234,179.838 158.471,183.000 157.170 C 193.388 152.894,204.385 148.347,214.167 144.281 C 216.046 143.500,218.108 142.623,218.750 142.333 C 220.349 141.609,230.887 137.178,239.750 133.502 C 243.783 131.830,248.208 129.990,249.583 129.415 C 250.958 128.839,253.321 127.866,254.833 127.252 C 256.346 126.637,259.458 125.361,261.750 124.415 C 280.411 116.713,280.120 116.806,285.333 116.903 C 287.568 116.945,288.091 117.008,289.207 117.374 " stroke="none" fill="#34acdc" fill-rule="evenodd"></path></g></svg>